<svg width="10" height="10" viewBox="0 0 10 10" fill="none" xmlns="http://www.w3.org/2000/svg">
<path d="M6.74584 0.833252H3.25417C1.7375 0.833252 0.833336 1.73742 0.833336 3.25409V6.74159C0.833336 8.26242 1.7375 9.16658 3.25417 9.16658H6.74167C8.25834 9.16658 9.1625 8.26242 9.1625 6.74575V3.25409C9.16667 1.73742 8.2625 0.833252 6.74584 0.833252ZM6.75 7.60408C6.27917 7.60408 5.89584 7.22075 5.89584 6.74992C5.89584 6.47492 6.02917 6.23325 6.23334 6.07492C6.05834 5.61659 5.62084 5.29992 5.12917 5.31659L4.27084 5.32075H4.26667C4.0125 5.32075 3.77084 5.24575 3.56667 5.11659V5.95825C3.88334 6.08325 4.10834 6.39159 4.10834 6.74992C4.10834 7.22075 3.725 7.60408 3.25417 7.60408C2.78334 7.60408 2.4 7.22075 2.4 6.74992C2.4 6.38742 2.625 6.08325 2.94167 5.95825V4.14575C2.625 3.99992 2.4 3.68325 2.4 3.31242C2.4 2.80825 2.8125 2.39575 3.31667 2.39575C3.82084 2.39575 4.23334 2.80825 4.23334 3.31242C4.23334 3.72075 3.9625 4.06242 3.59167 4.18325C3.675 4.48742 3.95 4.69992 4.26667 4.69992C4.26667 4.69992 4.26667 4.69992 4.27084 4.69992L5.12917 4.69575C5.13334 4.69575 5.13334 4.69575 5.1375 4.69575C5.90417 4.69575 6.59167 5.18325 6.84167 5.90825C7.27084 5.95409 7.60834 6.31242 7.60834 6.75408C7.60417 7.22075 7.22084 7.60408 6.75 7.60408Z" fill="white"/>
</svg>
