<svg width="10" height="10" viewBox="0 0 10 10" fill="none" xmlns="http://www.w3.org/2000/svg">
<path d="M7.08333 9.16675H2.91666C2.74583 9.16675 2.60416 9.02508 2.60416 8.85425C2.60416 8.68341 2.74583 8.54175 2.91666 8.54175H7.08333C7.25416 8.54175 7.39583 8.68341 7.39583 8.85425C7.39583 9.02508 7.25416 9.16675 7.08333 9.16675Z" fill="white"/>
<path d="M8.47916 2.3001L6.81249 3.49176C6.59166 3.6501 6.27499 3.55426 6.17916 3.3001L5.39166 1.2001C5.25833 0.837598 4.74583 0.837598 4.61249 1.2001L3.82083 3.29593C3.72499 3.55426 3.41249 3.6501 3.19166 3.4876L1.52499 2.29593C1.19166 2.0626 0.749992 2.39176 0.887492 2.77926L2.62083 7.63343C2.67916 7.8001 2.83749 7.90843 3.01249 7.90843H6.98333C7.15833 7.90843 7.31666 7.79593 7.37499 7.63343L9.10833 2.77926C9.24999 2.39176 8.80833 2.0626 8.47916 2.3001ZM6.04166 6.14593H3.95833C3.78749 6.14593 3.64583 6.00426 3.64583 5.83343C3.64583 5.6626 3.78749 5.52093 3.95833 5.52093H6.04166C6.21249 5.52093 6.35416 5.6626 6.35416 5.83343C6.35416 6.00426 6.21249 6.14593 6.04166 6.14593Z" fill="white"/>
</svg>
