<svg width="10" height="10" viewBox="0 0 10 10" fill="none" xmlns="http://www.w3.org/2000/svg">
<path d="M6.22083 1.04159V3.49992C6.22083 3.68325 6.00417 3.77492 5.87083 3.65409L5.14167 2.98325C5.0625 2.90825 4.9375 2.90825 4.85833 2.98325L4.12917 3.64992C3.99583 3.77492 3.77917 3.67909 3.77917 3.49992V1.04159C3.77917 0.924919 3.87083 0.833252 3.9875 0.833252H6.0125C6.12917 0.833252 6.22083 0.924919 6.22083 1.04159Z" fill="white"/>
<path d="M7.075 0.858205C6.95417 0.841539 6.84583 0.945705 6.84583 1.06654V3.57487C6.84583 3.89154 6.65833 4.17904 6.36667 4.30821C6.075 4.43321 5.7375 4.37904 5.50417 4.16237L5.14167 3.82904C5.0625 3.75404 4.94167 3.75404 4.85833 3.82904L4.49583 4.16237C4.34583 4.30404 4.15 4.37487 3.95417 4.37487C3.84583 4.37487 3.7375 4.35404 3.63333 4.30821C3.34167 4.17904 3.15417 3.89154 3.15417 3.57487V1.06654C3.15417 0.945705 3.04583 0.841539 2.925 0.858205C1.75833 1.00404 1.25 1.79154 1.25 2.91654V7.08321C1.25 8.33321 1.875 9.16654 3.33333 9.16654H6.66667C8.125 9.16654 8.75 8.33321 8.75 7.08321V2.91654C8.75 1.79154 8.24167 1.00404 7.075 0.858205ZM7.29167 7.81237H3.75C3.57917 7.81237 3.4375 7.67071 3.4375 7.49987C3.4375 7.32904 3.57917 7.18737 3.75 7.18737H7.29167C7.4625 7.18737 7.60417 7.32904 7.60417 7.49987C7.60417 7.67071 7.4625 7.81237 7.29167 7.81237ZM7.29167 6.14571H5.52083C5.35 6.14571 5.20833 6.00404 5.20833 5.83321C5.20833 5.66237 5.35 5.52071 5.52083 5.52071H7.29167C7.4625 5.52071 7.60417 5.66237 7.60417 5.83321C7.60417 6.00404 7.4625 6.14571 7.29167 6.14571Z" fill="white"/>
</svg>
