<svg width="10" height="10" viewBox="0 0 10 10" fill="none" xmlns="http://www.w3.org/2000/svg">
<path d="M8.85417 7.69596L8.16667 7.85846C8.0125 7.89596 7.89167 8.01263 7.85833 8.16679L7.7125 8.77929C7.63333 9.11263 7.20833 9.21679 6.9875 8.95429L5.74167 7.52096C5.64167 7.40429 5.69583 7.22096 5.84583 7.18346C6.58333 7.00429 7.24583 6.59179 7.73333 6.00429C7.8125 5.90846 7.95417 5.89596 8.04167 5.98346L8.96667 6.90846C9.28333 7.22513 9.17083 7.62096 8.85417 7.69596Z" fill="white"/>
<path d="M1.12501 7.69596L1.81251 7.85846C1.96667 7.89596 2.08751 8.01263 2.12084 8.16679L2.26667 8.77929C2.34584 9.11263 2.77084 9.21679 2.99167 8.95429L4.23751 7.52096C4.33751 7.40429 4.28334 7.22096 4.13334 7.18346C3.39584 7.00429 2.73334 6.59179 2.24584 6.00429C2.16667 5.90846 2.02501 5.89596 1.93751 5.98346L1.01251 6.90846C0.69584 7.22513 0.80834 7.62096 1.12501 7.69596Z" fill="white"/>
<path d="M5 0.833252C3.3875 0.833252 2.08334 2.13742 2.08334 3.74992C2.08334 4.35409 2.2625 4.90825 2.57084 5.37075C3.02084 6.03742 3.73334 6.50825 4.5625 6.62909C4.70417 6.65409 4.85 6.66659 5 6.66659C5.15 6.66659 5.29584 6.65409 5.4375 6.62909C6.26667 6.50825 6.97917 6.03742 7.42917 5.37075C7.7375 4.90825 7.91667 4.35409 7.91667 3.74992C7.91667 2.13742 6.6125 0.833252 5 0.833252ZM6.275 3.65825L5.92917 4.00409C5.87084 4.06242 5.8375 4.17492 5.85834 4.25825L5.95834 4.68742C6.0375 5.02492 5.85834 5.15825 5.55834 4.97909L5.14167 4.73325C5.06667 4.68742 4.94167 4.68742 4.86667 4.73325L4.45 4.97909C4.15 5.15409 3.97084 5.02492 4.05 4.68742L4.15 4.25825C4.16667 4.17909 4.1375 4.06242 4.07917 4.00409L3.725 3.65825C3.52084 3.45409 3.5875 3.24992 3.87084 3.20409L4.31667 3.12909C4.39167 3.11659 4.47917 3.04992 4.5125 2.98325L4.75834 2.49159C4.89167 2.22492 5.10834 2.22492 5.24167 2.49159L5.4875 2.98325C5.52084 3.04992 5.60834 3.11659 5.6875 3.12909L6.13334 3.20409C6.4125 3.24992 6.47917 3.45409 6.275 3.65825Z" fill="white"/>
</svg>
