<svg width="10" height="10" viewBox="0 0 10 10" fill="none" xmlns="http://www.w3.org/2000/svg">
<path d="M7.50833 5.13742L6.99999 4.62909C6.87916 4.52492 6.80833 4.37075 6.80416 4.19992C6.79583 4.01242 6.87083 3.82492 7.00833 3.68742L7.50833 3.18742C7.94166 2.75409 8.10416 2.33742 7.96666 2.00825C7.83333 1.68325 7.42083 1.50409 6.8125 1.50409H2.45833V1.14575C2.45833 0.974919 2.31666 0.833252 2.14583 0.833252C1.97499 0.833252 1.83333 0.974919 1.83333 1.14575V8.85408C1.83333 9.02492 1.97499 9.16658 2.14583 9.16658C2.31666 9.16658 2.45833 9.02492 2.45833 8.85408V6.82075H6.8125C7.4125 6.82075 7.81666 6.63742 7.95416 6.30825C8.09166 5.97909 7.93333 5.56659 7.50833 5.13742Z" fill="white"/>
</svg>
