<svg width="10" height="10" viewBox="0 0 10 10" fill="none" xmlns="http://www.w3.org/2000/svg">
<path d="M7.30417 3.23742C7.275 3.23325 7.24583 3.23325 7.21667 3.23742C6.57083 3.21659 6.05833 2.68742 6.05833 2.03742C6.05833 1.37492 6.59583 0.833252 7.2625 0.833252C7.925 0.833252 8.46667 1.37075 8.46667 2.03742C8.4625 2.68742 7.95 3.21659 7.30417 3.23742Z" fill="white"/>
<path d="M8.66251 6.12492C8.19584 6.43742 7.54167 6.55409 6.9375 6.47492C7.09584 6.13326 7.17917 5.75409 7.18334 5.35409C7.18334 4.93742 7.09167 4.54159 6.91667 4.19576C7.53334 4.11242 8.18751 4.22909 8.65834 4.54159C9.31667 4.97492 9.31667 5.68742 8.66251 6.12492Z" fill="white"/>
<path d="M2.68333 3.23742C2.7125 3.23325 2.74167 3.23325 2.77083 3.23742C3.41667 3.21659 3.92917 2.68742 3.92917 2.03742C3.92917 1.37075 3.39167 0.833252 2.725 0.833252C2.0625 0.833252 1.525 1.37075 1.525 2.03742C1.525 2.68742 2.0375 3.21659 2.68333 3.23742Z" fill="white"/>
<path d="M2.72916 5.35417C2.72916 5.75834 2.81666 6.14167 2.975 6.4875C2.3875 6.55 1.775 6.425 1.325 6.12917C0.666662 5.69167 0.666662 4.97917 1.325 4.54167C1.77083 4.24167 2.4 4.12084 2.99166 4.1875C2.82083 4.5375 2.72916 4.93334 2.72916 5.35417Z" fill="white"/>
<path d="M5.04999 6.6125C5.01666 6.60833 4.97916 6.60833 4.94166 6.6125C4.17499 6.5875 3.56249 5.95833 3.56249 5.18333C3.56666 4.39167 4.20416 3.75 4.99999 3.75C5.79166 3.75 6.43333 4.39167 6.43333 5.18333C6.42916 5.95833 5.82083 6.5875 5.04999 6.6125Z" fill="white"/>
<path d="M3.69583 7.47485C3.06666 7.89569 3.06666 8.58735 3.69583 9.00402C4.41249 9.48319 5.5875 9.48319 6.30416 9.00402C6.93333 8.58319 6.93333 7.89152 6.30416 7.47485C5.59166 6.99569 4.41666 6.99569 3.69583 7.47485Z" fill="white"/>
</svg>
