<svg width="10" height="10" viewBox="0 0 10 10" fill="none" xmlns="http://www.w3.org/2000/svg">
<path d="M7.0125 6.51673C7.29167 6.3334 7.65833 6.5334 7.65833 6.86673V7.40423C7.65833 7.9334 7.24583 8.50006 6.75 8.66673L5.42083 9.1084C5.1875 9.18756 4.80833 9.18756 4.57917 9.1084L3.25 8.66673C2.75 8.50006 2.34167 7.9334 2.34167 7.40423V6.86256C2.34167 6.5334 2.70833 6.3334 2.98333 6.51256L3.84167 7.0709C4.17083 7.29173 4.5875 7.40006 5.00417 7.40006C5.42083 7.40006 5.8375 7.29173 6.16667 7.0709L7.0125 6.51673Z" fill="white"/>
<path d="M8.32499 2.69165L5.82916 1.05415C5.37916 0.758317 4.63749 0.758317 4.18749 1.05415L1.67916 2.69165C0.874993 3.21248 0.874993 4.39165 1.67916 4.91665L2.34583 5.34998L4.18749 6.54998C4.63749 6.84582 5.37916 6.84582 5.82916 6.54998L7.65833 5.34998L8.22916 4.97498V6.24998C8.22916 6.42082 8.37083 6.56248 8.54166 6.56248C8.71249 6.56248 8.85416 6.42082 8.85416 6.24998V4.19998C9.02083 3.66248 8.84999 3.03748 8.32499 2.69165Z" fill="white"/>
</svg>
