<svg width="10" height="10" viewBox="0 0 10 10" fill="none" xmlns="http://www.w3.org/2000/svg">
<path d="M6.74584 0.833252H3.25417C1.7375 0.833252 0.833336 1.73742 0.833336 3.25409V6.74159C0.833336 8.26242 1.7375 9.16658 3.25417 9.16658H6.74167C8.25834 9.16658 9.1625 8.26242 9.1625 6.74575V3.25409C9.16667 1.73742 8.2625 0.833252 6.74584 0.833252ZM3.54167 2.65825C3.97084 2.65825 4.325 3.00825 4.325 3.44159C4.325 3.87492 3.975 4.22492 3.54167 4.22492C3.10834 4.22492 2.75834 3.86659 2.75834 3.43742C2.75834 3.00825 3.1125 2.65825 3.54167 2.65825ZM5 7.94992C3.87917 7.94992 2.96667 7.03742 2.96667 5.91658C2.96667 5.62492 3.20417 5.38325 3.49584 5.38325H6.49584C6.7875 5.38325 7.025 5.62075 7.025 5.91658C7.03334 7.03742 6.12084 7.94992 5 7.94992ZM6.45834 4.21659C6.02917 4.21659 5.675 3.86659 5.675 3.43325C5.675 2.99992 6.025 2.64992 6.45834 2.64992C6.89167 2.64992 7.24167 2.99992 7.24167 3.43325C7.24167 3.86659 6.8875 4.21659 6.45834 4.21659Z" fill="white"/>
</svg>
