<svg width="10" height="10" viewBox="0 0 10 10" fill="none" xmlns="http://www.w3.org/2000/svg">
<path d="M7.08333 0.833252H3.33333C2.4125 0.833252 1.66666 1.57909 1.66666 2.49992V5.52075C1.66666 5.74992 1.85416 5.93742 2.08333 5.93742H8.33333C8.5625 5.93742 8.75 5.74992 8.75 5.52075V2.49992C8.75 1.57909 8.00416 0.833252 7.08333 0.833252ZM3.33333 5.31242H2.91666C2.74583 5.31242 2.60416 5.17075 2.60416 4.99992C2.60416 4.82909 2.74583 4.68742 2.91666 4.68742H3.33333C3.50416 4.68742 3.64583 4.82909 3.64583 4.99992C3.64583 5.17075 3.50416 5.31242 3.33333 5.31242ZM3.33333 4.27075H2.91666C2.74583 4.27075 2.60416 4.12909 2.60416 3.95825C2.60416 3.78742 2.74583 3.64575 2.91666 3.64575H3.33333C3.50416 3.64575 3.64583 3.78742 3.64583 3.95825C3.64583 4.12909 3.50416 4.27075 3.33333 4.27075ZM3.33333 3.22909H2.91666C2.74583 3.22909 2.60416 3.08742 2.60416 2.91659C2.60416 2.74575 2.74583 2.60409 2.91666 2.60409H3.33333C3.50416 2.60409 3.64583 2.74575 3.64583 2.91659C3.64583 3.08742 3.50416 3.22909 3.33333 3.22909Z" fill="white"/>
<path d="M1.66666 6.97917V7.5C1.66666 8.42083 2.4125 9.16667 3.33333 9.16667H7.08333C8.00416 9.16667 8.75 8.42083 8.75 7.5V6.97917C8.75 6.75 8.5625 6.5625 8.33333 6.5625H2.08333C1.85416 6.5625 1.66666 6.75 1.66666 6.97917ZM7.37916 8.10833C7.3 8.18333 7.19166 8.22917 7.08333 8.22917C6.975 8.22917 6.86666 8.18333 6.7875 8.10833C6.7125 8.02917 6.66666 7.92083 6.66666 7.8125C6.66666 7.70417 6.7125 7.59583 6.7875 7.51667C6.94166 7.3625 7.22083 7.3625 7.37916 7.51667C7.45416 7.59583 7.5 7.70417 7.5 7.8125C7.5 7.92083 7.45416 8.02917 7.37916 8.10833Z" fill="white"/>
</svg>
