<svg width="10" height="10" viewBox="0 0 10 10" fill="none" xmlns="http://www.w3.org/2000/svg">
<path d="M8.12917 2.43742L5.65417 1.00825C5.25001 0.774919 4.75001 0.774919 4.34167 1.00825L1.87084 2.43742C1.46667 2.67075 1.21667 3.10409 1.21667 3.57492V6.42492C1.21667 6.89159 1.46667 7.32492 1.87084 7.56242L4.34584 8.99158C4.75001 9.22492 5.25001 9.22492 5.65834 8.99158L8.13334 7.56242C8.53751 7.32908 8.78751 6.89575 8.78751 6.42492V3.57492C8.78334 3.10409 8.53334 2.67492 8.12917 2.43742ZM5.00001 3.05825C5.53751 3.05825 5.97084 3.49159 5.97084 4.02909C5.97084 4.56659 5.53751 4.99992 5.00001 4.99992C4.46251 4.99992 4.02917 4.56659 4.02917 4.02909C4.02917 3.49575 4.46251 3.05825 5.00001 3.05825ZM6.11667 6.94159H3.88334C3.54584 6.94159 3.35001 6.56659 3.53751 6.28742C3.82084 5.86659 4.37084 5.58325 5.00001 5.58325C5.62917 5.58325 6.17917 5.86659 6.46251 6.28742C6.65001 6.56242 6.45001 6.94159 6.11667 6.94159Z" fill="white"/>
</svg>
