<svg width="10" height="10" viewBox="0 0 10 10" fill="none" xmlns="http://www.w3.org/2000/svg">
<path d="M5 1.97923C4.95833 1.97923 4.91668 1.97506 4.87918 1.96673C4.83751 1.9584 4.8 1.94589 4.7625 1.93339C4.725 1.91673 4.68749 1.89589 4.65416 1.87506C4.62083 1.85006 4.5875 1.82506 4.55833 1.79589C4.44167 1.67923 4.375 1.52089 4.375 1.35423C4.375 1.18756 4.44167 1.02923 4.55833 0.912562C4.5875 0.883395 4.62083 0.858394 4.65416 0.833394C4.68749 0.812561 4.725 0.791726 4.7625 0.779226C4.8 0.762559 4.83751 0.750061 4.87918 0.741727C5.07918 0.700061 5.29583 0.766729 5.44167 0.912562C5.55833 1.02923 5.625 1.18756 5.625 1.35423C5.625 1.52089 5.55833 1.67923 5.44167 1.79589C5.325 1.91256 5.1625 1.97923 5 1.97923Z" fill="white"/>
<path d="M5 3.85425C4.95833 3.85425 4.91668 3.85008 4.87918 3.84175C4.83751 3.83342 4.8 3.82091 4.7625 3.80841C4.725 3.79175 4.68749 3.77092 4.65416 3.75008C4.62083 3.72508 4.5875 3.70008 4.55833 3.67091C4.44167 3.55425 4.375 3.39592 4.375 3.22925C4.375 3.06258 4.44167 2.90425 4.55833 2.78758C4.5875 2.75842 4.62083 2.73342 4.65416 2.70842C4.68749 2.68758 4.725 2.66675 4.7625 2.65425C4.8 2.63758 4.83751 2.62508 4.87918 2.61675C4.95834 2.60008 5.04166 2.60008 5.12082 2.61675C5.16249 2.62508 5.2 2.63758 5.2375 2.65425C5.275 2.66675 5.31251 2.68758 5.34584 2.70842C5.37917 2.73342 5.4125 2.75842 5.44167 2.78758C5.55833 2.90425 5.625 3.06258 5.625 3.22925C5.625 3.39592 5.55833 3.55425 5.44167 3.67091C5.4125 3.70008 5.37917 3.72508 5.34584 3.75008C5.31251 3.77092 5.275 3.79175 5.2375 3.80841C5.2 3.82091 5.16249 3.83342 5.12082 3.84175C5.08332 3.85008 5.04167 3.85425 5 3.85425Z" fill="white"/>
<path d="M5 5.52098C4.95833 5.52098 4.91668 5.51681 4.87918 5.50848C4.83751 5.50014 4.8 5.48764 4.7625 5.47514C4.725 5.45848 4.68749 5.43764 4.65416 5.41681C4.62083 5.39181 4.5875 5.36681 4.55833 5.33764C4.52917 5.30847 4.50417 5.27931 4.47917 5.24181C4.45833 5.20848 4.43749 5.17098 4.42083 5.13348C4.40833 5.09598 4.39585 5.05847 4.38751 5.01681C4.37918 4.97931 4.375 4.93764 4.375 4.89598C4.375 4.72931 4.44167 4.57098 4.55833 4.45431C4.5875 4.42514 4.62083 4.40014 4.65416 4.37514C4.68749 4.35431 4.725 4.33348 4.7625 4.31681C4.8 4.30431 4.83751 4.29181 4.87918 4.28348C5.07918 4.24181 5.29583 4.30848 5.44167 4.45431C5.55833 4.57098 5.625 4.72931 5.625 4.89598C5.625 4.93764 5.62082 4.97931 5.61249 5.01681C5.60415 5.05847 5.59167 5.09598 5.575 5.13348C5.5625 5.17098 5.54167 5.20848 5.52083 5.24181C5.49583 5.27931 5.47083 5.30847 5.44167 5.33764C5.4125 5.36681 5.37917 5.39181 5.34584 5.41681C5.31251 5.43764 5.275 5.45848 5.2375 5.47514C5.2 5.48764 5.16249 5.50014 5.12082 5.50848C5.08332 5.51681 5.04167 5.52098 5 5.52098Z" fill="white"/>
<path d="M5 6.97909C4.89167 6.97909 4.78333 6.93326 4.70416 6.85826C4.62916 6.77909 4.58334 6.67075 4.58334 6.56242C4.58334 6.45409 4.62916 6.34575 4.70416 6.26658C4.79999 6.17075 4.94584 6.12909 5.07917 6.15409C5.10834 6.15826 5.13334 6.16659 5.15834 6.17909C5.18334 6.18742 5.20833 6.19992 5.22916 6.21659C5.25416 6.23325 5.27501 6.24992 5.29585 6.26658C5.37085 6.34575 5.41667 6.45409 5.41667 6.56242C5.41667 6.67075 5.37085 6.77909 5.29585 6.85826C5.27501 6.87492 5.25416 6.89159 5.22916 6.90825C5.20833 6.92492 5.18334 6.93742 5.15834 6.94575C5.13334 6.95825 5.10834 6.96659 5.07917 6.97075C5.05417 6.97492 5.025 6.97909 5 6.97909Z" fill="white"/>
<path d="M5 8.33325C4.95833 8.33325 4.91668 8.32492 4.87918 8.30825C4.84168 8.29159 4.80832 8.27075 4.77915 8.24159C4.74999 8.21242 4.725 8.17908 4.7125 8.14158C4.69583 8.10408 4.6875 8.06242 4.6875 8.02075C4.6875 7.93742 4.72082 7.85825 4.77915 7.79992C4.80832 7.77075 4.84168 7.74992 4.87918 7.73325C4.95834 7.69992 5.04166 7.69992 5.12082 7.73325C5.15832 7.74992 5.19168 7.77075 5.22085 7.79992C5.25001 7.82909 5.27083 7.86242 5.2875 7.89992C5.30417 7.93742 5.3125 7.97909 5.3125 8.02075C5.3125 8.06242 5.30417 8.10408 5.2875 8.14158C5.27083 8.17908 5.25001 8.21242 5.22085 8.24159C5.19168 8.27075 5.15832 8.29159 5.12082 8.30825C5.07916 8.32492 5.04167 8.33325 5 8.33325Z" fill="white"/>
<path d="M5 9.19577C4.94583 9.19577 4.89167 9.17493 4.85417 9.13327C4.81251 9.09577 4.79166 9.0416 4.79166 8.98744C4.79166 8.93327 4.81251 8.8791 4.85417 8.8416C4.92917 8.76243 5.07082 8.76243 5.14582 8.8416C5.18749 8.8791 5.20833 8.93327 5.20833 8.98744C5.20833 9.0416 5.18749 9.09577 5.14582 9.13327C5.10832 9.17493 5.05416 9.19577 5 9.19577Z" fill="white"/>
<path d="M1.45834 3.85421C1.29167 3.85421 1.13334 3.78755 1.01667 3.67088C0.900004 3.55421 0.833336 3.39588 0.833336 3.22921C0.833336 3.06671 0.900004 2.90422 1.01667 2.78755C1.24584 2.55422 1.66667 2.55422 1.9 2.78755C2.01667 2.90422 2.08334 3.06671 2.08334 3.22921C2.08334 3.39588 2.01667 3.55421 1.9 3.67088C1.87083 3.70005 1.83751 3.72505 1.80418 3.75005C1.77084 3.77088 1.73334 3.79172 1.69584 3.80422C1.65834 3.82088 1.62083 3.83338 1.57916 3.84172C1.54166 3.85005 1.5 3.85421 1.45834 3.85421Z" fill="white"/>
<path d="M8.54166 3.85425C8.37916 3.85425 8.21667 3.78758 8.1 3.67091C7.98333 3.55425 7.91666 3.39175 7.91666 3.22925C7.91666 3.18758 7.92084 3.14592 7.92918 3.10842C7.93751 3.06675 7.94999 3.02925 7.96249 2.99175C7.97916 2.95425 8 2.91675 8.02083 2.88341C8.04583 2.85008 8.07083 2.81675 8.1 2.78758C8.12917 2.75842 8.16249 2.73342 8.19582 2.70842C8.22916 2.68758 8.26666 2.66675 8.30416 2.65425C8.34166 2.63758 8.37917 2.62508 8.42084 2.61675C8.50001 2.60008 8.58332 2.60008 8.66249 2.61675C8.70415 2.62508 8.74167 2.63758 8.77917 2.65425C8.81667 2.66675 8.85417 2.68758 8.8875 2.70842C8.92084 2.73342 8.95416 2.75842 8.98333 2.78758C9.0125 2.81675 9.0375 2.85008 9.0625 2.88341C9.08333 2.91675 9.10417 2.95425 9.11667 2.99175C9.13333 3.02925 9.14582 3.06675 9.15415 3.10842C9.16249 3.14592 9.16666 3.18758 9.16666 3.22925C9.16666 3.39592 9.1 3.55425 8.98333 3.67091C8.95416 3.70008 8.92084 3.72508 8.8875 3.75008C8.85417 3.77092 8.81667 3.79175 8.77917 3.80841C8.74167 3.82091 8.70415 3.83342 8.66249 3.84175C8.62082 3.85008 8.58333 3.85425 8.54166 3.85425Z" fill="white"/>
<path d="M8.54167 5.3124C8.51667 5.3124 8.4875 5.30823 8.4625 5.30407C8.43333 5.2999 8.40833 5.29157 8.38333 5.27907C8.35833 5.27073 8.33333 5.25823 8.30833 5.24157C8.2875 5.22907 8.26666 5.20824 8.24582 5.19157C8.22916 5.17074 8.20833 5.1499 8.19583 5.12907C8.17916 5.10407 8.16667 5.07907 8.15834 5.05407C8.14584 5.02907 8.13751 5.00407 8.13334 4.97907C8.12917 4.9499 8.125 4.9249 8.125 4.89573C8.125 4.7874 8.17082 4.67906 8.24582 4.5999C8.26666 4.58323 8.2875 4.56657 8.30833 4.5499C8.33333 4.53323 8.35833 4.52073 8.38333 4.5124C8.40833 4.4999 8.43333 4.49157 8.4625 4.4874C8.5125 4.4749 8.56667 4.4749 8.62083 4.4874C8.65 4.49157 8.675 4.4999 8.7 4.5124C8.725 4.52073 8.74999 4.53323 8.77083 4.5499C8.79583 4.56657 8.81668 4.58323 8.83751 4.5999C8.91251 4.67906 8.95833 4.7874 8.95833 4.89573C8.95833 4.9249 8.95416 4.9499 8.94999 4.97907C8.94583 5.00407 8.93749 5.02907 8.92499 5.05407C8.91666 5.07907 8.90417 5.10407 8.88751 5.12907C8.87084 5.1499 8.85418 5.17074 8.83751 5.19157C8.81668 5.20824 8.79583 5.22907 8.77083 5.24157C8.74999 5.25823 8.725 5.27073 8.7 5.27907C8.675 5.29157 8.65 5.2999 8.62083 5.30407C8.59583 5.30823 8.56667 5.3124 8.54167 5.3124Z" fill="white"/>
<path d="M1.45833 5.31261C1.35 5.31261 1.24165 5.26678 1.16249 5.19178C1.08749 5.11261 1.04166 5.00427 1.04166 4.89594C1.04166 4.78761 1.08749 4.67927 1.16249 4.6001C1.27915 4.48344 1.4625 4.44594 1.61667 4.51261C1.67083 4.53344 1.71251 4.5626 1.75417 4.6001C1.82917 4.67927 1.875 4.78761 1.875 4.89594C1.875 5.00427 1.82917 5.11261 1.75417 5.19178C1.67501 5.26678 1.56666 5.31261 1.45833 5.31261Z" fill="white"/>
<path d="M8.54166 6.45837C8.45833 6.45837 8.37915 6.42504 8.32082 6.3667C8.26249 6.30837 8.22916 6.2292 8.22916 6.14587C8.22916 6.1042 8.2375 6.06671 8.25416 6.02504C8.27083 5.98754 8.29165 5.9542 8.32082 5.92504C8.40832 5.83754 8.54582 5.80837 8.66249 5.85837C8.69999 5.87504 8.73334 5.89587 8.76251 5.92504C8.79168 5.9542 8.8125 5.98754 8.82917 6.02504C8.84583 6.06671 8.85416 6.1042 8.85416 6.14587C8.85416 6.2292 8.82084 6.30837 8.76251 6.3667C8.73334 6.39587 8.69999 6.4167 8.66249 6.43337C8.62082 6.45004 8.58333 6.45837 8.54166 6.45837Z" fill="white"/>
<path d="M1.45834 6.45824C1.375 6.45824 1.29582 6.4249 1.23749 6.36657C1.20832 6.3374 1.18333 6.30407 1.17083 6.26657C1.15417 6.22907 1.14584 6.1874 1.14584 6.14574C1.14584 6.10407 1.15417 6.06657 1.17083 6.0249C1.18333 5.9874 1.20832 5.95407 1.23749 5.9249C1.34999 5.80824 1.56251 5.80824 1.67918 5.9249C1.70835 5.95407 1.72917 5.9874 1.74584 6.0249C1.7625 6.06657 1.77084 6.10407 1.77084 6.14574C1.77084 6.1874 1.7625 6.22907 1.74584 6.26657C1.72917 6.30407 1.70835 6.3374 1.67918 6.36657C1.62085 6.4249 1.54167 6.45824 1.45834 6.45824Z" fill="white"/>
<path d="M8.54167 7.49997C8.5125 7.49997 8.4875 7.49581 8.4625 7.48331C8.4375 7.47497 8.41251 7.45831 8.39585 7.43747C8.35418 7.39997 8.33334 7.3458 8.33334 7.29164C8.33334 7.23747 8.35418 7.1833 8.39585 7.1458C8.47085 7.06663 8.61249 7.06663 8.68749 7.1458C8.72916 7.1833 8.75 7.23747 8.75 7.29164C8.75 7.3458 8.72916 7.39997 8.68749 7.43747C8.64999 7.47914 8.59584 7.49997 8.54167 7.49997Z" fill="white"/>
<path d="M1.45833 7.49997C1.40417 7.49997 1.35001 7.47914 1.31251 7.43747C1.27084 7.39997 1.25 7.3458 1.25 7.29164C1.25 7.23747 1.27084 7.1833 1.31251 7.1458C1.38751 7.06663 1.52916 7.06663 1.60416 7.1458C1.64582 7.1833 1.66667 7.23747 1.66667 7.29164C1.66667 7.3458 1.64582 7.39997 1.60416 7.43747C1.56666 7.47914 1.5125 7.49997 1.45833 7.49997Z" fill="white"/>
<path d="M3.22916 2.91671C3.1875 2.91671 3.14584 2.91255 3.10834 2.90422C3.06667 2.89588 3.02916 2.88338 2.99166 2.86672C2.94999 2.85422 2.91666 2.83338 2.88332 2.81255C2.84582 2.78755 2.81667 2.76255 2.7875 2.73338C2.67083 2.61671 2.60416 2.45421 2.60416 2.29171C2.60416 2.12921 2.67083 1.96672 2.7875 1.85005C3.02083 1.61672 3.4375 1.61672 3.67083 1.85005C3.7875 1.96672 3.85416 2.12505 3.85416 2.29171C3.85416 2.45838 3.7875 2.61671 3.67083 2.73338C3.64166 2.76255 3.60834 2.78755 3.575 2.81255C3.54167 2.83338 3.50417 2.85422 3.46667 2.86672C3.42917 2.88338 3.39165 2.89588 3.34999 2.90422C3.31249 2.91255 3.27083 2.91671 3.22916 2.91671Z" fill="white"/>
<path d="M6.77084 2.91675C6.72917 2.91675 6.68751 2.91258 6.65001 2.90425C6.60835 2.89592 6.57083 2.88342 6.53333 2.86675C6.49583 2.85425 6.45833 2.83342 6.425 2.81258C6.39166 2.78758 6.35834 2.76258 6.32917 2.73341C6.3 2.70425 6.275 2.67092 6.25 2.63758C6.22917 2.60425 6.20833 2.56675 6.19166 2.52925C6.17916 2.49175 6.16668 2.45425 6.15835 2.41258C6.15001 2.37508 6.14584 2.33342 6.14584 2.29175C6.14584 2.12925 6.2125 1.96675 6.32917 1.85008C6.35834 1.82092 6.39166 1.79592 6.425 1.77092C6.45833 1.75008 6.49583 1.72925 6.53333 1.71675C6.57083 1.70008 6.60835 1.68758 6.65001 1.67925C6.72918 1.66258 6.81249 1.66258 6.89166 1.67925C6.93333 1.68758 6.97084 1.70008 7.00834 1.71675C7.04584 1.72925 7.08334 1.75008 7.11668 1.77092C7.15001 1.79592 7.18333 1.82092 7.2125 1.85008C7.32917 1.96675 7.39584 2.12925 7.39584 2.29175C7.39584 2.33342 7.39166 2.37508 7.38332 2.41258C7.37499 2.45425 7.36251 2.49175 7.35001 2.52925C7.33334 2.56675 7.3125 2.60425 7.29167 2.63758C7.26667 2.67092 7.24167 2.70425 7.2125 2.73341C7.18333 2.76258 7.15001 2.78758 7.11668 2.81258C7.08334 2.83342 7.04584 2.85425 7.00834 2.86675C6.97084 2.88342 6.93333 2.89592 6.89166 2.90425C6.85416 2.91258 6.8125 2.91675 6.77084 2.91675Z" fill="white"/>
<path d="M3.22916 4.68747C3.1875 4.68747 3.14584 4.6833 3.10834 4.67497C3.06667 4.66663 3.02916 4.65413 2.99166 4.64163C2.95416 4.62497 2.91666 4.60413 2.88332 4.5833C2.84582 4.5583 2.81667 4.5333 2.7875 4.50413C2.67083 4.38747 2.60416 4.22497 2.60416 4.06247C2.60416 3.8958 2.67083 3.73747 2.7875 3.6208C3.02083 3.38747 3.4375 3.38747 3.67083 3.6208C3.7875 3.73747 3.85416 3.8958 3.85416 4.06247C3.85416 4.22913 3.7875 4.38747 3.67083 4.50413C3.55416 4.6208 3.39166 4.68747 3.22916 4.68747Z" fill="white"/>
<path d="M6.77084 4.6875C6.72917 4.6875 6.68751 4.68333 6.65001 4.675C6.60835 4.66667 6.57083 4.65417 6.53333 4.6375C6.49583 4.625 6.45833 4.60417 6.425 4.58333C6.39166 4.55833 6.35834 4.53333 6.32917 4.50417C6.3 4.475 6.275 4.44167 6.25 4.40833C6.22917 4.375 6.20833 4.3375 6.19166 4.3C6.17916 4.2625 6.16668 4.225 6.15835 4.18333C6.15001 4.14583 6.14584 4.10417 6.14584 4.0625C6.14584 3.9 6.2125 3.7375 6.32917 3.62083C6.35834 3.59167 6.39166 3.56667 6.425 3.54167C6.45833 3.52083 6.49583 3.5 6.53333 3.4875C6.57083 3.47083 6.60835 3.45833 6.65001 3.45C6.72918 3.43333 6.81249 3.43333 6.89166 3.45C6.93333 3.45833 6.97084 3.47083 7.00834 3.4875C7.04584 3.5 7.08334 3.52083 7.11668 3.54167C7.15001 3.56667 7.18333 3.59167 7.2125 3.62083C7.32917 3.7375 7.39584 3.9 7.39584 4.0625C7.39584 4.10417 7.39166 4.14583 7.38332 4.18333C7.37499 4.225 7.36251 4.2625 7.35001 4.3C7.33334 4.3375 7.3125 4.375 7.29167 4.40833C7.26667 4.44167 7.24167 4.475 7.2125 4.50417C7.18333 4.53333 7.15001 4.55833 7.11668 4.58333C7.08334 4.60417 7.04584 4.625 7.00834 4.6375C6.97084 4.65417 6.93333 4.66667 6.89166 4.675C6.85416 4.68333 6.8125 4.6875 6.77084 4.6875Z" fill="white"/>
<path d="M3.22917 6.14575C3.175 6.14575 3.12083 6.13325 3.07083 6.11242C3.01666 6.09159 2.97082 6.06242 2.93332 6.02492C2.89582 5.98326 2.86667 5.93742 2.84584 5.88742C2.82501 5.83742 2.8125 5.78325 2.8125 5.72909C2.8125 5.62075 2.85832 5.51242 2.93332 5.43325C3.08749 5.27909 3.37084 5.27909 3.52501 5.43325C3.60001 5.51242 3.64583 5.62075 3.64583 5.72909C3.64583 5.78325 3.63333 5.83742 3.61249 5.88742C3.59166 5.93742 3.56251 5.98326 3.52501 6.02492C3.44584 6.09992 3.3375 6.14575 3.22917 6.14575Z" fill="white"/>
<path d="M6.77083 6.14575C6.6625 6.14575 6.55415 6.09992 6.47499 6.02492C6.39999 5.94576 6.35416 5.83742 6.35416 5.72909C6.35416 5.62075 6.39999 5.51242 6.47499 5.43325C6.62915 5.27909 6.90834 5.27909 7.06667 5.43325C7.14167 5.51242 7.1875 5.62075 7.1875 5.72909C7.1875 5.75825 7.18332 5.78325 7.17916 5.81242C7.17499 5.83742 7.16666 5.86242 7.15416 5.88742C7.14582 5.91242 7.13334 5.93742 7.11667 5.95826C7.1 5.98326 7.08334 6.00409 7.06667 6.02492C6.98751 6.09992 6.87916 6.14575 6.77083 6.14575Z" fill="white"/>
<path d="M3.22916 7.39575C3.14583 7.39575 3.06665 7.36242 3.00832 7.30409C2.97915 7.27492 2.95833 7.24158 2.94166 7.20408C2.925 7.16658 2.91666 7.12492 2.91666 7.08325C2.91666 7.04159 2.925 7.00409 2.94166 6.96242C2.95833 6.92492 2.97915 6.89159 3.00832 6.86242C3.03749 6.83325 3.07084 6.81242 3.10834 6.79575C3.18334 6.76242 3.27082 6.76242 3.34999 6.79575C3.38749 6.81242 3.42084 6.83325 3.45001 6.86242C3.50834 6.92075 3.54166 6.99992 3.54166 7.08325C3.54166 7.12492 3.53333 7.16658 3.51667 7.20408C3.5 7.24158 3.47918 7.27492 3.45001 7.30409C3.39168 7.36242 3.3125 7.39575 3.22916 7.39575Z" fill="white"/>
<path d="M6.77084 7.39575C6.72917 7.39575 6.68751 7.38742 6.65001 7.37075C6.61251 7.35409 6.57916 7.33325 6.54999 7.30409C6.52082 7.27492 6.49583 7.24158 6.48333 7.20408C6.46667 7.16658 6.45834 7.12492 6.45834 7.08325C6.45834 7.04159 6.46667 6.99992 6.48333 6.96242C6.5 6.92492 6.52082 6.89159 6.54999 6.86242C6.57916 6.83325 6.61251 6.81242 6.65001 6.79575C6.72501 6.76242 6.81249 6.76242 6.89166 6.79575C6.92916 6.81242 6.96251 6.83325 6.99168 6.86242C7.02085 6.89159 7.04167 6.92492 7.05834 6.96242C7.075 6.99992 7.08334 7.04159 7.08334 7.08325C7.08334 7.12492 7.075 7.16658 7.05834 7.20408C7.04167 7.24158 7.02085 7.27492 6.99168 7.30409C6.93335 7.36242 6.85417 7.39575 6.77084 7.39575Z" fill="white"/>
<path d="M3.22917 8.33347C3.175 8.33347 3.12085 8.31264 3.08335 8.27097C3.04168 8.23347 3.02084 8.1793 3.02084 8.12513C3.02084 8.07097 3.04168 8.0168 3.08335 7.9793C3.15835 7.90013 3.29999 7.90013 3.37499 7.9793C3.41666 8.0168 3.4375 8.07097 3.4375 8.12513C3.4375 8.1793 3.41666 8.23347 3.37499 8.27097C3.33749 8.31264 3.28334 8.33347 3.22917 8.33347Z" fill="white"/>
<path d="M6.77083 8.33347C6.74167 8.33347 6.71667 8.3293 6.69167 8.3168C6.66667 8.30847 6.64168 8.2918 6.62501 8.27097C6.60418 8.2543 6.58749 8.2293 6.57916 8.2043C6.56666 8.1793 6.5625 8.1543 6.5625 8.12513C6.5625 8.07097 6.58334 8.0168 6.62501 7.9793C6.70001 7.90013 6.84166 7.90013 6.91666 7.9793C6.95832 8.0168 6.97917 8.07097 6.97917 8.12513C6.97917 8.1543 6.97501 8.1793 6.96251 8.2043C6.95418 8.2293 6.93749 8.2543 6.91666 8.27097C6.87916 8.31264 6.825 8.33347 6.77083 8.33347Z" fill="white"/>
</svg>
