<svg width="10" height="10" viewBox="0 0 10 10" fill="none" xmlns="http://www.w3.org/2000/svg">
<path d="M8.125 1.52909C8.125 1.52492 8.125 1.52075 8.11667 1.51659C8.025 1.39992 7.90417 1.33742 7.7625 1.33742C7.54167 1.33742 7.275 1.48325 6.9875 1.79159C6.64583 2.15825 6.12083 2.12909 5.82083 1.72909L5.4 1.17075C5.23333 0.945752 5.0125 0.833252 4.79167 0.833252C4.57083 0.833252 4.35 0.945752 4.18333 1.17075L3.75833 1.73325C3.4625 2.12909 2.94167 2.15825 2.6 1.79575L2.59583 1.79159C2.125 1.28742 1.70417 1.21242 1.46667 1.51659C1.45833 1.52075 1.45833 1.52492 1.45833 1.52909C1.30833 1.84992 1.25 2.29992 1.25 2.93325V7.06658C1.25 7.69992 1.30833 8.14992 1.45833 8.47075C1.45833 8.47492 1.4625 8.48325 1.46667 8.48742C1.70833 8.78742 2.125 8.71242 2.59583 8.20825L2.6 8.20409C2.94167 7.84159 3.4625 7.87075 3.75833 8.26659L4.18333 8.82909C4.35 9.05409 4.57083 9.16658 4.79167 9.16658C5.0125 9.16658 5.23333 9.05409 5.4 8.82909L5.82083 8.27075C6.12083 7.87075 6.64583 7.84159 6.9875 8.20825C7.275 8.51659 7.54167 8.66242 7.7625 8.66242C7.90417 8.66242 8.025 8.60409 8.11667 8.48742C8.12083 8.48325 8.125 8.47492 8.125 8.47075C8.275 8.14992 8.33333 7.69992 8.33333 7.06658V2.93325C8.33333 2.29992 8.275 1.84992 8.125 1.52909ZM5.83333 6.04158H3.33333C3.1625 6.04158 3.02083 5.89992 3.02083 5.72908C3.02083 5.55825 3.1625 5.41658 3.33333 5.41658H5.83333C6.00417 5.41658 6.14583 5.55825 6.14583 5.72908C6.14583 5.89992 6.00417 6.04158 5.83333 6.04158ZM6.66667 4.58325H3.33333C3.1625 4.58325 3.02083 4.44159 3.02083 4.27075C3.02083 4.09992 3.1625 3.95825 3.33333 3.95825H6.66667C6.8375 3.95825 6.97917 4.09992 6.97917 4.27075C6.97917 4.44159 6.8375 4.58325 6.66667 4.58325Z" fill="white"/>
</svg>
