<svg xmlns="http://www.w3.org/2000/svg" width="25" height="24" viewBox="0 0 25 24" fill="none">
    <path d="M20.2263 8.96039C19.5563 8.22039 18.5463 7.79039 17.1463 7.64039V6.88039C17.1463 5.51039 16.5663 4.19039 15.5463 3.27039C14.5163 2.33039 13.1763 1.89039 11.7863 2.02039C9.39635 2.25039 7.38635 4.56039 7.38635 7.06039V7.64039C5.98635 7.79039 4.97635 8.22039 4.30635 8.96039C3.33635 10.0404 3.36635 11.4804 3.47635 12.4804L4.17635 18.0504C4.38635 20.0004 5.17635 22.0004 9.47635 22.0004H15.0563C19.3563 22.0004 20.1463 20.0004 20.3563 18.0604L21.0563 12.4704C21.1663 11.4804 21.1863 10.0404 20.2263 8.96039ZM11.9263 3.41039C12.9263 3.32039 13.8763 3.63039 14.6163 4.30039C15.3463 4.96039 15.7563 5.90039 15.7563 6.88039V7.58039H8.77635V7.06039C8.77635 5.28039 10.2463 3.57039 11.9263 3.41039ZM8.68635 13.1504H8.67635C8.12635 13.1504 7.67635 12.7004 7.67635 12.1504C7.67635 11.6004 8.12635 11.1504 8.67635 11.1504C9.23635 11.1504 9.68635 11.6004 9.68635 12.1504C9.68635 12.7004 9.23635 13.1504 8.68635 13.1504ZM15.6863 13.1504H15.6763C15.1263 13.1504 14.6763 12.7004 14.6763 12.1504C14.6763 11.6004 15.1263 11.1504 15.6763 11.1504C16.2363 11.1504 16.6863 11.6004 16.6863 12.1504C16.6863 12.7004 16.2363 13.1504 15.6863 13.1504Z" fill="#973AE0"/>
</svg>