<svg xmlns="http://www.w3.org/2000/svg" width="25" height="22" viewBox="0 0 25 22" fill="none">
    <path d="M21.8234 6.3979C20.9734 5.53624 19.5534 5.1054 17.4934 5.1054H17.2534V5.06874C17.2534 3.52874 17.2534 1.62207 13.4934 1.62207H11.9734C8.21344 1.62207 8.21344 3.5379 8.21344 5.06874V5.11457H7.97344C5.90344 5.11457 4.49344 5.5454 3.64344 6.40707C2.65344 7.4154 2.68344 8.77207 2.78344 9.6979L2.79344 9.76207L2.86788 10.4786C2.88398 10.6336 2.97143 10.7723 3.10513 10.8524C3.34625 10.997 3.73729 11.2276 3.97344 11.3479C4.11344 11.4304 4.26344 11.5037 4.41344 11.5771C6.12344 12.4387 8.00344 13.0162 9.91344 13.3004C10.0034 14.1621 10.4134 15.1704 12.6034 15.1704C14.7934 15.1704 15.2234 14.1712 15.2934 13.2821C17.3334 12.9796 19.3034 12.3287 21.0834 11.3754C21.1434 11.3479 21.1834 11.3204 21.2334 11.2929C21.6256 11.0897 22.0323 10.8399 22.404 10.5945C22.5248 10.5148 22.6034 10.3854 22.6209 10.2417L22.6334 10.1379L22.6834 9.70707C22.6934 9.65207 22.6934 9.60624 22.7034 9.54207C22.7834 8.61624 22.7634 7.35124 21.8234 6.3979ZM13.8234 12.6771C13.8234 13.6487 13.8234 13.7954 12.5934 13.7954C11.3634 13.7954 11.3634 13.6212 11.3634 12.6862V11.5312H13.8234V12.6771ZM9.64344 5.1054V5.06874C9.64344 3.5104 9.64344 2.9329 11.9734 2.9329H13.4934C15.8234 2.9329 15.8234 3.51957 15.8234 5.06874V5.11457H9.64344V5.1054Z" fill="#00B7C4"/>
    <path d="M21.6188 12.5847C21.9724 12.4304 22.3655 12.7136 22.3275 13.0975L21.9732 16.6745C21.7632 18.5078 20.9432 20.3778 16.5432 20.3778H8.92324C4.52324 20.3778 3.70324 18.5078 3.49324 16.6837L3.15726 13.2958C3.1196 12.9161 3.5048 12.6337 3.85726 12.7799C4.99493 13.252 7.10945 14.0955 8.41252 14.4079C8.57556 14.447 8.70891 14.56 8.78584 14.709C9.39584 15.8902 10.7095 16.5187 12.6032 16.5187C14.4783 16.5187 15.8084 15.866 16.4205 14.6816C16.4975 14.5326 16.631 14.4196 16.7941 14.3803C18.1781 14.047 20.4294 13.1038 21.6188 12.5847Z" fill="#00B7C4"/>
</svg>