<svg width="14" height="14" viewBox="0 0 14 14" fill="none" xmlns="http://www.w3.org/2000/svg">
<path d="M12.1861 7.58398V8.16732H11.6786C11.247 8.16732 10.897 8.51732 10.897 8.95482V9.12982C10.897 9.56732 10.547 9.91732 10.1095 9.91732C9.67779 9.91732 9.32779 9.56732 9.32779 9.12982V8.95482C9.32779 8.51732 8.97195 8.16732 8.54029 8.16732C8.10862 8.16732 7.75862 8.51732 7.75862 8.95482V9.12982C7.75862 9.56732 7.40279 9.91732 6.97112 9.91732C6.53945 9.91732 6.18362 9.56732 6.18362 9.12982V8.95482C6.18362 8.51732 5.83362 8.16732 5.40195 8.16732C4.97029 8.16732 4.61445 8.51732 4.61445 8.95482V9.12982C4.61445 9.56732 4.26445 9.91732 3.83279 9.91732C3.39529 9.91732 3.04529 9.56732 3.04529 9.12982V8.94315C3.04529 8.51148 2.70112 8.16148 2.27529 8.15565H1.81445V7.58398C1.81445 6.77898 2.42112 6.09648 3.24362 5.89815C3.40695 5.85732 3.57612 5.83398 3.75695 5.83398H10.2436C10.4245 5.83398 10.5936 5.85732 10.757 5.89815C11.5795 6.09648 12.1861 6.77898 12.1861 7.58398Z" fill="#00B7C4"/>
<path d="M10.7565 4.18185V5.00435C10.5873 4.96935 10.4182 4.95768 10.2432 4.95768H3.7565C3.5815 4.95768 3.41233 4.97518 3.24316 5.01018V4.18185C3.24316 3.48185 3.87316 2.91602 4.65483 2.91602H9.34483C10.1265 2.91602 10.7565 3.48185 10.7565 4.18185Z" fill="#00B7C4"/>
<path d="M5.10449 2.07057V2.92224H4.65533C4.50366 2.92224 4.36366 2.93974 4.22949 2.97474V2.07057C4.22949 1.86641 4.42783 1.69141 4.66699 1.69141C4.90616 1.69141 5.10449 1.86641 5.10449 2.07057Z" fill="#00B7C4"/>
<path d="M9.77051 1.94336V2.97586C9.63634 2.93503 9.49634 2.91753 9.34467 2.91753H8.89551V1.94336C8.89551 1.70419 9.09384 1.50586 9.33301 1.50586C9.57217 1.50586 9.77051 1.70419 9.77051 1.94336Z" fill="#00B7C4"/>
<path d="M7.4375 1.64435V2.91602H6.5625V1.64435C6.5625 1.38185 6.76083 1.16602 7 1.16602C7.23917 1.16602 7.4375 1.38185 7.4375 1.64435Z" fill="#00B7C4"/>
<path d="M12.8337 12.3971C12.8337 12.6363 12.6353 12.8346 12.3962 12.8346H1.60449C1.36533 12.8346 1.16699 12.6363 1.16699 12.3971C1.16699 12.1579 1.36533 11.9596 1.60449 11.9596H1.81449V9.03125H2.17033V9.07208C2.17033 9.85375 2.68366 10.5771 3.44783 10.7463C4.04283 10.8863 4.60866 10.6938 4.99366 10.3146C5.21533 10.0929 5.57699 10.0871 5.79866 10.3088C6.10199 10.6063 6.51616 10.7929 6.97116 10.7929C7.42616 10.7929 7.84033 10.6121 8.14366 10.3088C8.36533 10.0929 8.72116 10.0929 8.94866 10.3146C9.32783 10.6938 9.89366 10.8863 10.4945 10.7463C11.2587 10.5771 11.772 9.85375 11.772 9.07208V9.04292H12.1862V11.9596H12.3962C12.6353 11.9596 12.8337 12.1579 12.8337 12.3971Z" fill="#00B7C4"/>
</svg>
