<svg width="343" height="200" viewBox="0 0 343 200" fill="none" xmlns="http://www.w3.org/2000/svg">
<g clip-path="url(#clip0_1442_8025)">
<rect width="343" height="200" rx="8" fill="white"/>
<rect width="343" height="200" rx="8" fill="url(#paint0_radial_1442_8025)"/>
<mask id="mask0_1442_8025" style="mask-type:luminance" maskUnits="userSpaceOnUse" x="44" y="-26" width="209" height="122">
<path d="M253 -26H44V95.9147H253V-26Z" fill="white"/>
</mask>
<g mask="url(#mask0_1442_8025)">
<path opacity="0.1" d="M-5.48701 -25C-6.32415 -25 -7 -24.3241 -7 -23.487C-7 -22.6499 -6.32415 -21.974 -5.48701 -21.974C-4.64987 -21.974 -3.97402 -22.6499 -3.97402 -23.487C-3.97402 -24.3241 -4.64987 -25 -5.48701 -25ZM9.86562 -25C9.02848 -25 8.35263 -24.3241 8.35263 -23.487C8.35263 -22.6499 9.02848 -21.974 9.86562 -21.974C10.7028 -21.974 11.3786 -22.6499 11.3786 -23.487C11.3786 -24.3241 10.7028 -25 9.86562 -25ZM25.2259 -25C24.3888 -25 23.7129 -24.3241 23.7129 -23.487C23.7129 -22.6499 24.3888 -21.974 25.2259 -21.974C26.0631 -21.974 26.7389 -22.6499 26.7389 -23.487C26.7389 -24.3241 26.0631 -25 25.2259 -25ZM40.5862 -25C39.7491 -25 39.0732 -24.3241 39.0732 -23.487C39.0732 -22.6499 39.7491 -21.974 40.5862 -21.974C41.4234 -21.974 42.0992 -22.6499 42.0992 -23.487C42.0992 -24.3241 41.4157 -25 40.5862 -25ZM-5.48701 -9.64737C-6.32415 -9.64737 -7 -8.97152 -7 -8.13438C-7 -7.29725 -6.32415 -6.6214 -5.48701 -6.6214C-4.64987 -6.6214 -3.97402 -7.29725 -3.97402 -8.13438C-3.97402 -8.96384 -4.64987 -9.64737 -5.48701 -9.64737ZM9.86562 -9.64737C9.02848 -9.64737 8.35263 -8.97152 8.35263 -8.13438C8.35263 -7.29725 9.02848 -6.6214 9.86562 -6.6214C10.7028 -6.6214 11.3786 -7.29725 11.3786 -8.13438C11.3863 -8.96384 10.7028 -9.64737 9.86562 -9.64737ZM25.2259 -9.64737C24.3888 -9.64737 23.7129 -8.97152 23.7129 -8.13438C23.7129 -7.29725 24.3888 -6.6214 25.2259 -6.6214C26.0631 -6.6214 26.7389 -7.29725 26.7389 -8.13438C26.7389 -8.96384 26.0631 -9.64737 25.2259 -9.64737ZM40.5862 -9.64737C39.7491 -9.64737 39.0732 -8.97152 39.0732 -8.13438C39.0732 -7.29725 39.7491 -6.6214 40.5862 -6.6214C41.4234 -6.6214 42.0992 -7.29725 42.0992 -8.13438C42.0992 -8.96384 41.4157 -9.64737 40.5862 -9.64737ZM-5.48701 5.71293C-6.32415 5.71293 -7 6.38879 -7 7.22592C-7 8.06306 -6.32415 8.73891 -5.48701 8.73891C-4.64987 8.73891 -3.97402 8.06306 -3.97402 7.22592C-3.97402 6.38879 -4.64987 5.71293 -5.48701 5.71293ZM9.86562 5.71293C9.02848 5.71293 8.35263 6.38879 8.35263 7.22592C8.35263 8.06306 9.02848 8.73891 9.86562 8.73891C10.7028 8.73891 11.3786 8.06306 11.3786 7.22592C11.3863 6.38879 10.7028 5.71293 9.86562 5.71293ZM25.2259 5.71293C24.3888 5.71293 23.7129 6.38879 23.7129 7.22592C23.7129 8.06306 24.3888 8.73891 25.2259 8.73891C26.0631 8.73891 26.7389 8.06306 26.7389 7.22592C26.7389 6.38879 26.0631 5.71293 25.2259 5.71293ZM40.5862 5.71293C39.7491 5.71293 39.0732 6.38879 39.0732 7.22592C39.0732 8.06306 39.7491 8.73891 40.5862 8.73891C41.4234 8.73891 42.0992 8.06306 42.0992 7.22592C42.0992 6.38879 41.4157 5.71293 40.5862 5.71293ZM-5.48701 21.0732C-6.32415 21.0732 -7 21.7491 -7 22.5862C-7 23.4234 -6.32415 24.0992 -5.48701 24.0992C-4.64987 24.0992 -3.97402 23.4234 -3.97402 22.5862C-3.97402 21.7491 -4.64987 21.0732 -5.48701 21.0732ZM9.86562 21.0732C9.02848 21.0732 8.35263 21.7491 8.35263 22.5862C8.35263 23.4234 9.02848 24.0992 9.86562 24.0992C10.7028 24.0992 11.3786 23.4234 11.3786 22.5862C11.3863 21.7491 10.7028 21.0732 9.86562 21.0732ZM25.2259 21.0732C24.3888 21.0732 23.7129 21.7491 23.7129 22.5862C23.7129 23.4234 24.3888 24.0992 25.2259 24.0992C26.0631 24.0992 26.7389 23.4234 26.7389 22.5862C26.7389 21.7491 26.0631 21.0732 25.2259 21.0732ZM40.5862 21.0732C39.7491 21.0732 39.0732 21.7491 39.0732 22.5862C39.0732 23.4234 39.7491 24.0992 40.5862 24.0992C41.4234 24.0992 42.0992 23.4234 42.0992 22.5862C42.0992 21.7491 41.4157 21.0732 40.5862 21.0732ZM-5.48701 36.4259C-6.32415 36.4259 -7 37.1017 -7 37.9388C-7 38.776 -6.32415 39.4518 -5.48701 39.4518C-4.64987 39.4518 -3.97402 38.776 -3.97402 37.9388C-3.97402 37.1017 -4.64987 36.4259 -5.48701 36.4259ZM9.86562 36.4259C9.02848 36.4259 8.35263 37.1017 8.35263 37.9388C8.35263 38.776 9.02848 39.4518 9.86562 39.4518C10.7028 39.4518 11.3786 38.776 11.3786 37.9388C11.3863 37.1017 10.7028 36.4259 9.86562 36.4259ZM25.2259 36.4259C24.3888 36.4259 23.7129 37.1017 23.7129 37.9388C23.7129 38.776 24.3888 39.4518 25.2259 39.4518C26.0631 39.4518 26.7389 38.776 26.7389 37.9388C26.7389 37.1017 26.0631 36.4259 25.2259 36.4259ZM40.5862 36.4259C39.7491 36.4259 39.0732 37.1017 39.0732 37.9388C39.0732 38.776 39.7491 39.4518 40.5862 39.4518C41.4234 39.4518 42.0992 38.776 42.0992 37.9388C42.0992 37.1017 41.4157 36.4259 40.5862 36.4259ZM-5.48701 51.7862C-6.32415 51.7862 -7 52.462 -7 53.2991C-7 54.1363 -6.32415 54.8121 -5.48701 54.8121C-4.64987 54.8121 -3.97402 54.1363 -3.97402 53.2991C-3.97402 52.462 -4.64987 51.7862 -5.48701 51.7862ZM9.86562 51.7862C9.02848 51.7862 8.35263 52.462 8.35263 53.2991C8.35263 54.1363 9.02848 54.8121 9.86562 54.8121C10.7028 54.8121 11.3786 54.1363 11.3786 53.2991C11.3863 52.462 10.7028 51.7862 9.86562 51.7862ZM25.2259 51.7862C24.3888 51.7862 23.7129 52.462 23.7129 53.2991C23.7129 54.1363 24.3888 54.8121 25.2259 54.8121C26.0631 54.8121 26.7389 54.1363 26.7389 53.2991C26.7389 52.462 26.0631 51.7862 25.2259 51.7862ZM40.5862 51.7862C39.7491 51.7862 39.0732 52.462 39.0732 53.2991C39.0732 54.1363 39.7491 54.8121 40.5862 54.8121C41.4234 54.8121 42.0992 54.1363 42.0992 53.2991C42.0992 52.462 41.4157 51.7862 40.5862 51.7862ZM55.9389 -25C55.1017 -25 54.4259 -24.3241 54.4259 -23.487C54.4259 -22.6499 55.1017 -21.974 55.9389 -21.974C56.776 -21.974 57.4518 -22.6499 57.4518 -23.487C57.4518 -24.3241 56.776 -25 55.9389 -25ZM71.2992 -25C70.462 -25 69.7862 -24.3241 69.7862 -23.487C69.7862 -22.6499 70.462 -21.974 71.2992 -21.974C72.1363 -21.974 72.8121 -22.6499 72.8121 -23.487C72.8121 -24.3241 72.1363 -25 71.2992 -25ZM86.6518 -25C85.8147 -25 85.1388 -24.3241 85.1388 -23.487C85.1388 -22.6499 85.8147 -21.974 86.6518 -21.974C87.4889 -21.974 88.1648 -22.6499 88.1648 -23.487C88.1648 -24.3241 87.4889 -25 86.6518 -25ZM102.012 -21.974C102.849 -21.974 103.525 -22.6499 103.525 -23.487C103.525 -24.3241 102.849 -25 102.012 -25C101.175 -25 100.499 -24.3241 100.499 -23.487C100.499 -22.6499 101.175 -21.974 102.012 -21.974ZM55.9389 -9.64737C55.1017 -9.64737 54.4259 -8.97152 54.4259 -8.13438C54.4259 -7.29725 55.1017 -6.6214 55.9389 -6.6214C56.776 -6.6214 57.4518 -7.29725 57.4518 -8.13438C57.4518 -8.96384 56.776 -9.64737 55.9389 -9.64737ZM71.2992 -9.64737C70.462 -9.64737 69.7862 -8.97152 69.7862 -8.13438C69.7862 -7.29725 70.462 -6.6214 71.2992 -6.6214C72.1363 -6.6214 72.8121 -7.29725 72.8121 -8.13438C72.8121 -8.96384 72.1363 -9.64737 71.2992 -9.64737ZM86.6518 -9.64737C85.8147 -9.64737 85.1388 -8.97152 85.1388 -8.13438C85.1388 -7.29725 85.8147 -6.6214 86.6518 -6.6214C87.4889 -6.6214 88.1648 -7.29725 88.1648 -8.13438C88.1724 -8.96384 87.4889 -9.64737 86.6518 -9.64737ZM102.012 -9.64737C101.175 -9.64737 100.499 -8.97152 100.499 -8.13438C100.499 -7.29725 101.175 -6.6214 102.012 -6.6214C102.849 -6.6214 103.525 -7.29725 103.525 -8.13438C103.525 -8.96384 102.849 -9.64737 102.012 -9.64737ZM55.9389 5.71293C55.1017 5.71293 54.4259 6.38879 54.4259 7.22592C54.4259 8.06306 55.1017 8.73891 55.9389 8.73891C56.776 8.73891 57.4518 8.06306 57.4518 7.22592C57.4518 6.38879 56.776 5.71293 55.9389 5.71293ZM71.2992 5.71293C70.462 5.71293 69.7862 6.38879 69.7862 7.22592C69.7862 8.06306 70.462 8.73891 71.2992 8.73891C72.1363 8.73891 72.8121 8.06306 72.8121 7.22592C72.8121 6.38879 72.1363 5.71293 71.2992 5.71293ZM86.6518 5.71293C85.8147 5.71293 85.1388 6.38879 85.1388 7.22592C85.1388 8.06306 85.8147 8.73891 86.6518 8.73891C87.4889 8.73891 88.1648 8.06306 88.1648 7.22592C88.1724 6.38879 87.4889 5.71293 86.6518 5.71293ZM102.012 5.71293C101.175 5.71293 100.499 6.38879 100.499 7.22592C100.499 8.06306 101.175 8.73891 102.012 8.73891C102.849 8.73891 103.525 8.06306 103.525 7.22592C103.525 6.38879 102.849 5.71293 102.012 5.71293ZM55.9389 21.0732C55.1017 21.0732 54.4259 21.7491 54.4259 22.5862C54.4259 23.4234 55.1017 24.0992 55.9389 24.0992C56.776 24.0992 57.4518 23.4234 57.4518 22.5862C57.4518 21.7491 56.776 21.0732 55.9389 21.0732ZM71.2992 21.0732C70.462 21.0732 69.7862 21.7491 69.7862 22.5862C69.7862 23.4234 70.462 24.0992 71.2992 24.0992C72.1363 24.0992 72.8121 23.4234 72.8121 22.5862C72.8121 21.7491 72.1363 21.0732 71.2992 21.0732ZM86.6518 21.0732C85.8147 21.0732 85.1388 21.7491 85.1388 22.5862C85.1388 23.4234 85.8147 24.0992 86.6518 24.0992C87.4889 24.0992 88.1648 23.4234 88.1648 22.5862C88.1724 21.7491 87.4889 21.0732 86.6518 21.0732ZM102.012 21.0732C101.175 21.0732 100.499 21.7491 100.499 22.5862C100.499 23.4234 101.175 24.0992 102.012 24.0992C102.849 24.0992 103.525 23.4234 103.525 22.5862C103.525 21.7491 102.849 21.0732 102.012 21.0732ZM55.9389 36.4259C55.1017 36.4259 54.4259 37.1017 54.4259 37.9388C54.4259 38.776 55.1017 39.4518 55.9389 39.4518C56.776 39.4518 57.4518 38.776 57.4518 37.9388C57.4518 37.1017 56.776 36.4259 55.9389 36.4259ZM71.2992 36.4259C70.462 36.4259 69.7862 37.1017 69.7862 37.9388C69.7862 38.776 70.462 39.4518 71.2992 39.4518C72.1363 39.4518 72.8121 38.776 72.8121 37.9388C72.8121 37.1017 72.1363 36.4259 71.2992 36.4259ZM86.6518 36.4259C85.8147 36.4259 85.1388 37.1017 85.1388 37.9388C85.1388 38.776 85.8147 39.4518 86.6518 39.4518C87.4889 39.4518 88.1648 38.776 88.1648 37.9388C88.1724 37.1017 87.4889 36.4259 86.6518 36.4259ZM102.012 36.4259C101.175 36.4259 100.499 37.1017 100.499 37.9388C100.499 38.776 101.175 39.4518 102.012 39.4518C102.849 39.4518 103.525 38.776 103.525 37.9388C103.525 37.1017 102.849 36.4259 102.012 36.4259ZM55.9389 51.7862C55.1017 51.7862 54.4259 52.462 54.4259 53.2991C54.4259 54.1363 55.1017 54.8121 55.9389 54.8121C56.776 54.8121 57.4518 54.1363 57.4518 53.2991C57.4518 52.462 56.776 51.7862 55.9389 51.7862ZM71.2992 51.7862C70.462 51.7862 69.7862 52.462 69.7862 53.2991C69.7862 54.1363 70.462 54.8121 71.2992 54.8121C72.1363 54.8121 72.8121 54.1363 72.8121 53.2991C72.8121 52.462 72.1363 51.7862 71.2992 51.7862ZM86.6518 51.7862C85.8147 51.7862 85.1388 52.462 85.1388 53.2991C85.1388 54.1363 85.8147 54.8121 86.6518 54.8121C87.4889 54.8121 88.1648 54.1363 88.1648 53.2991C88.1724 52.462 87.4889 51.7862 86.6518 51.7862ZM102.012 51.7862C101.175 51.7862 100.499 52.462 100.499 53.2991C100.499 54.1363 101.175 54.8121 102.012 54.8121C102.849 54.8121 103.525 54.1363 103.525 53.2991C103.525 52.462 102.849 51.7862 102.012 51.7862Z" fill="white"/>
</g>
<mask id="mask1_1442_8025" style="mask-type:luminance" maskUnits="userSpaceOnUse" x="-7" y="0" width="351" height="205">
<path d="M334.13 0H2C-2.97056 0 -7 4.02944 -7 9V195.239C-7 200.21 -2.97056 204.239 2 204.239H334.13C339.101 204.239 343.13 200.21 343.13 195.239V9C343.13 4.02944 339.101 0 334.13 0Z" fill="white"/>
</mask>
<g mask="url(#mask1_1442_8025)">
<path opacity="0.6" d="M347.315 -6.7832C347.315 -11.7538 343.286 -15.7832 338.315 -15.7832H-1.74024C-6.7108 -15.7832 -10.7402 -11.7538 -10.7402 -6.7832V21.4067C-10.7402 26.3773 -6.7108 30.4067 -1.74023 30.4067H172.608C174.994 30.4067 177.284 31.3549 178.971 33.0428L207.383 61.4546C209.071 63.1424 211.36 64.0906 213.747 64.0906H338.315C343.286 64.0906 347.315 60.0612 347.315 55.0906V-6.7832Z" fill="url(#paint1_linear_1442_8025)"/>
</g>
<mask id="mask2_1442_8025" style="mask-type:luminance" maskUnits="userSpaceOnUse" x="-16" y="-13" width="273" height="159">
<path d="M256.13 -13H-16V145.74H256.13V-13Z" fill="white"/>
</mask>
<g mask="url(#mask2_1442_8025)">
<path d="M-6.5 -49C-39.9139 -49 -67 -21.9139 -67 11.5C-67 44.9139 -39.9139 72 -6.5 72C26.9139 72 54 44.9139 54 11.5C54.0073 -21.9139 26.9139 -49 -6.5 -49ZM-6.5 51.5865C-28.6367 51.5865 -46.5865 33.6367 -46.5865 11.5C-46.5865 -10.6367 -28.6367 -28.5865 -6.5 -28.5865C15.6367 -28.5865 33.5865 -10.6367 33.5865 11.5C33.5865 33.644 15.6367 51.5865 -6.5 51.5865Z" fill="url(#paint2_linear_1442_8025)"/>
</g>
<mask id="mask3_1442_8025" style="mask-type:luminance" maskUnits="userSpaceOnUse" x="10" y="-13" width="386" height="226">
<path d="M396 -13H10V212.163H396V-13Z" fill="white"/>
</mask>
<g mask="url(#mask3_1442_8025)">
<path d="M331.504 173.455C316.781 173.455 304.852 185.384 304.852 200.108C304.852 214.817 316.781 226.76 331.504 226.76C346.213 226.76 358.157 214.831 358.157 200.108C358.142 185.384 346.213 173.455 331.504 173.455ZM331.504 215.058C323.249 215.058 316.54 208.363 316.54 200.093C316.54 191.838 323.235 185.129 331.504 185.129C339.759 185.129 346.469 191.824 346.469 200.093C346.454 208.363 339.759 215.058 331.504 215.058Z" fill="url(#paint3_linear_1442_8025)"/>
</g>
<path d="M309.16 46L307.07 48.1L309.28 50.31L307.07 52.52L309.16 54.62L311.37 52.41L313.59 54.62L315.68 52.52L313.47 50.31L315.68 48.1L313.59 46L311.37 48.22L309.16 46Z" stroke="white" stroke-width="0.3" stroke-miterlimit="10"/>
<path d="M289.09 46L287 48.1L289.21 50.31L287 52.52L289.09 54.62L291.3 52.41L293.52 54.62L295.61 52.52L293.4 50.31L295.61 48.1L293.52 46L291.3 48.22L289.09 46Z" stroke="white" stroke-width="0.3" stroke-miterlimit="10"/>
<path d="M255.16 46L253.07 48.1L255.28 50.31L253.07 52.52L255.16 54.62L257.37 52.41L259.59 54.62L261.68 52.52L259.47 50.31L261.68 48.1L259.59 46L257.37 48.22L255.16 46Z" stroke="white" stroke-width="0.3" stroke-miterlimit="10"/>
<path d="M235.09 46L233 48.1L235.21 50.31L233 52.52L235.09 54.62L237.3 52.41L239.52 54.62L241.61 52.52L239.4 50.31L241.61 48.1L239.52 46L237.3 48.22L235.09 46Z" stroke="white" stroke-width="0.3" stroke-miterlimit="10"/>
<path d="M12.1 106.18L10 108.27L12.21 110.48L10 112.69L12.1 114.79L14.31 112.58L16.52 114.79L18.62 112.69L16.4 110.48L18.62 108.27L16.52 106.18L14.31 108.39L12.1 106.18Z" stroke="white" stroke-width="0.3" stroke-miterlimit="10"/>
<path d="M12.1 163L10 165.09L12.21 167.3L10 169.51L12.1 171.61L14.31 169.4L16.52 171.61L18.62 169.51L16.4 167.3L18.62 165.09L16.52 163L14.31 165.21L12.1 163Z" stroke="white" stroke-width="0.3" stroke-miterlimit="10"/>
<path d="M12.1 180.369L10 182.459L12.21 184.679L10 186.889L12.1 188.979L14.31 186.769L16.52 188.979L18.62 186.889L16.4 184.679L18.62 182.459L16.52 180.369L14.31 182.579L12.1 180.369Z" stroke="white" stroke-width="0.3" stroke-miterlimit="10"/>
<path d="M12.1 90L10 92.09L12.21 94.3L10 96.52L12.1 98.61L14.31 96.4L16.52 98.61L18.62 96.52L16.4 94.3L18.62 92.09L16.52 90L14.31 92.21L12.1 90Z" stroke="white" stroke-width="0.3" stroke-miterlimit="10"/>
<path d="M148.19 99.4736C146.932 99.8935 146.403 101.693 147.003 103.503C147.6 105.298 149.122 106.422 150.38 106.002C151.638 105.582 152.168 103.783 151.568 101.973C150.968 100.163 149.448 99.0538 148.19 99.4736ZM146.389 94.1191C143.068 95.2322 141.659 99.995 143.257 104.757C144.855 109.519 148.842 112.458 152.164 111.345C152.8 111.133 153.331 110.762 153.816 110.309L153.826 108.548C153.292 109.296 152.618 109.86 151.772 110.156C148.904 111.123 145.472 108.574 144.108 104.49C142.727 100.393 143.947 96.2975 146.801 95.3335C149.288 94.4994 152.188 96.3075 153.813 99.4709L153.809 97.7128C151.858 94.8071 148.935 93.2739 146.389 94.1191ZM145.435 85.6271L116.963 85.6492C112.349 85.6555 108.597 89.406 108.603 94.0198L108.607 104.467C108.892 104.307 109.195 104.159 109.52 104.052C109.916 103.917 110.793 103.63 111.726 103.317C110.439 103.742 109.399 104.601 108.612 105.758L108.617 106.81C109.416 105.004 110.721 103.643 112.447 103.074C113.435 102.736 114.382 102.42 114.806 102.28C118.592 101.003 123.046 103.943 125.348 108.932L136.004 105.356C134.817 99.9894 136.611 94.9579 140.397 93.6811C140.891 93.5119 142.121 93.0976 143.294 92.7088L142.603 92.9457C138.433 94.3405 136.668 100.314 138.678 106.29C140.684 112.252 145.69 115.959 149.86 114.564C148.927 114.877 148.064 115.161 147.654 115.3C143.868 116.576 139.414 113.636 137.112 108.647L121.014 114.041C120.906 115.054 120.4 115.872 119.609 116.142C118.351 116.562 116.847 115.45 116.232 113.643C115.635 111.848 116.164 110.048 117.42 109.614C118.294 109.312 119.301 109.782 120.034 110.71L123.794 109.453C121.929 105.659 118.479 103.49 115.539 104.47C112.217 105.583 110.808 110.346 112.406 115.108C114.004 119.87 117.991 122.809 121.313 121.696C123.87 120.833 125.283 117.828 125.081 114.319L126.697 113.726C127.275 118.502 125.48 122.737 122.045 123.886C121.621 124.027 120.674 124.343 119.686 124.681C115.589 126.062 110.686 122.501 108.623 116.715L108.616 118.655C110.967 123.424 115.292 126.164 118.98 124.921C118.047 125.234 117.184 125.518 116.774 125.656C114.06 126.564 111.01 125.31 108.648 122.693C108.771 127.209 112.456 130.852 116.995 130.845L145.467 130.823C150.096 130.814 153.833 127.066 153.827 122.453L153.824 113.118C153.539 113.278 153.236 113.425 152.911 113.532C152.486 113.673 151.539 113.989 150.551 114.327C146.381 115.722 141.364 112.032 139.369 106.053C137.363 100.091 139.127 94.1182 143.294 92.7088C144.283 92.3704 145.23 92.0549 145.654 91.914C148.368 91.0066 151.45 92.2691 153.815 94.9006L153.821 93.9825C153.815 89.3688 150.064 85.618 145.435 85.6271Z" fill="white"/>
<path d="M234.075 121.004C233.799 121.004 233.575 120.78 233.575 120.504V99.8242C233.575 99.5481 233.799 99.3242 234.075 99.3242H247.829C248.105 99.3242 248.329 99.5481 248.329 99.8242V103.256C248.329 103.533 248.105 103.756 247.829 103.756H239.589C239.313 103.756 239.089 103.98 239.089 104.256V108.199C239.089 108.475 239.313 108.699 239.589 108.699H246.988C247.264 108.699 247.488 108.923 247.488 109.199V112.421C247.488 112.697 247.264 112.921 246.988 112.921H239.589C239.313 112.921 239.089 113.145 239.089 113.421V120.504C239.089 120.78 238.865 121.004 238.589 121.004H234.075Z" fill="white"/>
<path d="M208.224 121.004C207.997 121.004 207.798 120.851 207.74 120.631L202.337 99.9506C202.255 99.6338 202.494 99.3242 202.821 99.3242H207.46C207.698 99.3242 207.902 99.4911 207.95 99.7236L210.802 113.605C210.808 113.635 210.835 113.657 210.866 113.657C210.897 113.657 210.923 113.637 210.93 113.607L214.34 99.7051C214.395 99.4815 214.596 99.3242 214.826 99.3242H218.669C218.899 99.3242 219.1 99.4815 219.155 99.7051L222.564 113.607C222.572 113.637 222.598 113.657 222.628 113.657C222.66 113.657 222.686 113.635 222.693 113.605L225.545 99.7236C225.592 99.4911 225.797 99.3242 226.034 99.3242H230.673C231.001 99.3242 231.24 99.6338 231.157 99.9506L225.754 120.631C225.697 120.851 225.498 121.004 225.271 121.004H220.618C220.391 121.004 220.193 120.851 220.135 120.632L216.806 108.044C216.798 108.014 216.771 107.993 216.74 107.993C216.709 107.993 216.682 108.014 216.674 108.044L213.36 120.632C213.302 120.851 213.103 121.004 212.876 121.004H208.224Z" fill="white"/>
<path d="M183.804 121.004C183.528 121.004 183.304 120.78 183.304 120.504V99.8242C183.304 99.5481 183.528 99.3242 183.804 99.3242H193.385C197.682 99.3242 200.281 101.398 200.281 104.778V104.808C200.281 107.24 198.429 109.184 195.989 109.519C195.961 109.523 195.939 109.547 195.939 109.576C195.939 109.607 195.963 109.632 195.994 109.634C198.928 109.808 201.228 111.947 201.228 114.769V114.799C201.228 118.57 198.298 121.004 193.655 121.004H183.804ZM191.928 103.216H189.318C189.041 103.216 188.818 103.439 188.818 103.716V107.734C188.818 108.01 189.041 108.234 189.318 108.234H191.522C193.731 108.234 194.902 107.272 194.902 105.649V105.619C194.902 104.117 193.791 103.216 191.928 103.216ZM191.928 111.704H189.318C189.041 111.704 188.818 111.928 188.818 112.204V116.613C188.818 116.889 189.041 117.113 189.318 117.113H192.093C194.347 117.113 195.624 116.166 195.624 114.409V114.379C195.624 112.651 194.347 111.704 191.928 111.704Z" fill="white"/>
<path d="M167.699 121.004C167.481 121.004 167.288 120.863 167.222 120.655L160.673 99.9752C160.571 99.6528 160.812 99.3242 161.15 99.3242H166.253C166.482 99.3242 166.681 99.4791 166.738 99.7005L170.79 115.575C170.798 115.605 170.825 115.626 170.856 115.626C170.887 115.626 170.914 115.605 170.922 115.575L174.96 99.701C175.016 99.4793 175.215 99.3242 175.444 99.3242H180.547C180.886 99.3242 181.126 99.6528 181.024 99.9752L174.475 120.655C174.409 120.863 174.216 121.004 173.998 121.004H167.699Z" fill="white"/>
</g>
<defs>
<radialGradient id="paint0_radial_1442_8025" cx="0" cy="0" r="1" gradientUnits="userSpaceOnUse" gradientTransform="translate(177.215 44.9366) scale(288.67 288.554)">
<stop stop-color="#323231"/>
<stop offset="1" stop-color="#0D0D0D"/>
</radialGradient>
<linearGradient id="paint1_linear_1442_8025" x1="-16.8053" y1="24.1563" x2="357.111" y2="24.1563" gradientUnits="userSpaceOnUse">
<stop stop-color="#323231"/>
<stop offset="1" stop-color="#0D0D0D"/>
</linearGradient>
<linearGradient id="paint2_linear_1442_8025" x1="39.4662" y1="-34.462" x2="-65.2079" y2="70.212" gradientUnits="userSpaceOnUse">
<stop stop-color="#F66A03"/>
<stop offset="1" stop-color="#F60403"/>
</linearGradient>
<linearGradient id="paint3_linear_1442_8025" x1="344.26" y1="162.528" x2="319.062" y2="236.722" gradientUnits="userSpaceOnUse">
<stop stop-color="#F66A03"/>
<stop offset="1" stop-color="#F60403"/>
</linearGradient>
<clipPath id="clip0_1442_8025">
<rect width="343" height="200" rx="8" fill="white"/>
</clipPath>
</defs>
</svg>
