<svg width="49" height="49" viewBox="0 0 49 49" fill="none" xmlns="http://www.w3.org/2000/svg">
<g clip-path="url(#clip0_807_34307)">
<path d="M45.0838 20.0043L43.0855 18.4856C43.3453 17.5664 43.5651 16.787 43.7649 16.1076C44.5643 13.4298 45.0039 11.951 43.9048 10.4323C42.8057 8.91357 41.307 8.85362 38.4693 8.77369H35.9914C35.6517 7.89442 35.3919 7.11507 35.1521 6.45562C34.2329 3.81782 33.7133 2.45895 31.9148 1.77952C30.1163 1.10008 28.8573 2.05928 26.5393 3.65795L24.5409 5.0368L22.5426 3.69792C20.4843 2.07927 18.9656 1.0801 17.1471 1.6796C15.3286 2.2791 14.849 3.67794 13.9098 6.33572C13.67 6.99517 13.3902 7.77452 13.0705 8.67377L10.4927 8.75371C7.69498 8.75371 6.15626 8.85362 5.05718 10.3724C3.9581 11.8911 4.49765 13.3699 5.25701 16.0676C5.45685 16.747 5.69665 17.5264 5.93645 18.4456L3.93811 19.9644C1.75993 21.643 0.500977 22.5822 0.500977 24.4806C0.500977 26.379 1.71996 27.2983 3.93811 28.9968L5.93645 30.5156C5.69665 31.4348 5.45685 32.2142 5.25701 32.8936C4.45768 35.5714 4.01805 37.0501 5.11713 38.5689C6.21621 40.0876 7.77492 40.1276 10.5526 40.2075H13.0106C13.3503 41.0868 13.6101 41.8661 13.8499 42.5256C14.7891 45.1634 15.2887 46.5222 17.0872 47.2017C18.8857 47.8811 20.1446 46.9219 22.4627 45.3232L24.461 43.9444L26.4593 45.2833C27.6919 46.3622 29.2132 47.0568 30.8357 47.2816C31.196 47.2779 31.5535 47.2172 31.8948 47.1017C33.6933 46.5222 34.1929 45.1034 35.1321 42.4456C35.3719 41.7862 35.6317 41.0068 35.9714 40.1276H38.4494C41.247 40.1276 42.7857 40.0276 43.8848 38.4889C44.9839 36.9502 44.5643 35.4914 43.7649 32.8137C43.5651 32.1342 43.3253 31.3549 43.0855 30.4356L45.0838 28.9169C47.282 27.3382 48.461 26.4789 48.461 24.4806C48.461 22.4823 47.282 21.7029 45.0838 20.0043Z" fill="#33C041"/>
<path d="M21.2245 34.9931C20.9543 34.9817 20.6893 34.9157 20.4454 34.7989C20.2015 34.6821 19.9839 34.517 19.8056 34.3137L13.9106 27.7392C13.5581 27.3417 13.378 26.8204 13.4099 26.2902C13.4417 25.7599 13.6829 25.264 14.0804 24.9115C14.4779 24.5591 14.9991 24.379 15.5294 24.4108C16.0597 24.4427 16.5556 24.6839 16.9081 25.0814L21.3444 30.0972L33.9938 17.7874C34.176 17.5812 34.3989 17.4149 34.6484 17.2988C34.8979 17.1827 35.1687 17.1194 35.4438 17.1129C35.7189 17.1063 35.9924 17.1567 36.2472 17.2608C36.5019 17.3649 36.7324 17.5205 36.9243 17.7178C37.1161 17.9151 37.2651 18.1499 37.3619 18.4075C37.4587 18.6651 37.5013 18.94 37.4869 19.2148C37.4726 19.4896 37.4016 19.7585 37.2785 20.0046C37.1554 20.2507 36.9828 20.4688 36.7715 20.6451L22.6233 34.4735C22.2416 34.8209 21.7403 35.007 21.2245 34.9931Z" fill="white"/>
</g>
<defs>
<clipPath id="clip0_807_34307">
<rect width="48" height="47.96" fill="white" transform="translate(0.5 0.5)"/>
</clipPath>
</defs>
</svg>
