<svg width="200" height="165" viewBox="0 0 200 165" fill="none" xmlns="http://www.w3.org/2000/svg">
<path d="M200 122.984H0V123.084H200V122.984Z" fill="#9D999A"/>
<path d="M179.961 129.419H166.713V129.519H179.961V129.419Z" fill="#9D999A"/>
<path d="M132.488 130.508H129.012V130.608H132.488V130.508Z" fill="#EBEBEB"/>
<path d="M166.313 125.709H158.637V125.809H166.313V125.709Z" fill="#9D999A"/>
<path d="M38.2604 126.378H20.9844V126.478H38.2604V126.378Z" fill="#9D999A"/>
<path d="M44.3562 126.378H41.8242V126.478H44.3562V126.378Z" fill="#EBEBEB"/>
<path d="M90.0599 128.066H52.5879V128.166H90.0599V128.066Z" fill="#EBEBEB"/>
<path d="M86.1473 0.159054L86.4833 0.843055C86.5029 0.883076 86.5322 0.917567 86.5686 0.943409C86.6049 0.969251 86.6471 0.985627 86.6913 0.991053L87.4473 1.10305C87.4973 1.11076 87.5442 1.13227 87.5826 1.16516C87.6211 1.19805 87.6496 1.24101 87.665 1.28922C87.6804 1.33743 87.682 1.38897 87.6697 1.43805C87.6574 1.48713 87.6316 1.53181 87.5953 1.56705L87.0513 2.10305C87.0192 2.13337 86.9952 2.17115 86.9812 2.21302C86.9672 2.25488 86.9638 2.29955 86.9713 2.34305L87.0993 3.09505C87.1089 3.14589 87.1039 3.19843 87.0847 3.24649C87.0655 3.29455 87.033 3.33614 86.991 3.36638C86.949 3.39661 86.8992 3.41424 86.8476 3.4172C86.7959 3.42015 86.7445 3.4083 86.6993 3.38305L86.0233 3.02705C85.9842 3.00736 85.9411 2.9971 85.8973 2.9971C85.8535 2.9971 85.8104 3.00736 85.7713 3.02705L85.0913 3.38305C85.0461 3.4083 84.9947 3.42015 84.943 3.4172C84.8914 3.41424 84.8416 3.39661 84.7996 3.36638C84.7576 3.33614 84.7251 3.29455 84.7059 3.24649C84.6868 3.19843 84.6817 3.14589 84.6913 3.09505L84.8233 2.34305C84.8297 2.29958 84.8259 2.2552 84.812 2.2135C84.7981 2.17181 84.7745 2.13397 84.7433 2.10305L84.1953 1.56705C84.1589 1.53155 84.1332 1.48655 84.1211 1.43718C84.109 1.3878 84.111 1.33602 84.1268 1.28771C84.1426 1.2394 84.1717 1.19649 84.2106 1.16385C84.2496 1.13121 84.297 1.11015 84.3473 1.10305L85.1033 0.991053C85.1473 0.984954 85.1892 0.968316 85.2254 0.942548C85.2617 0.916781 85.2911 0.882649 85.3113 0.843055L85.6473 0.159054C85.6695 0.111517 85.7049 0.0713049 85.7492 0.0431334C85.7934 0.014962 85.8448 0 85.8973 0C85.9498 0 86.0012 0.014962 86.0455 0.0431334C86.0897 0.0713049 86.1251 0.111517 86.1473 0.159054Z" fill="#FFF0C5"/>
<path d="M36.3444 56.4977L36.6844 57.1857C36.7039 57.225 36.7327 57.259 36.7682 57.2848C36.8037 57.3106 36.845 57.3274 36.8884 57.3337L37.6444 57.4457C37.6947 57.4528 37.7421 57.4739 37.781 57.5065C37.82 57.5392 37.8491 57.5821 37.8649 57.6304C37.8807 57.6787 37.8827 57.7305 37.8706 57.7799C37.8585 57.8292 37.8328 57.8742 37.7964 57.9097L37.2484 58.4417C37.217 58.4733 37.1937 58.5119 37.1804 58.5544C37.1672 58.5969 37.1644 58.642 37.1724 58.6857L37.3004 59.4377C37.31 59.4886 37.3049 59.5411 37.2857 59.5892C37.2666 59.6372 37.2341 59.6788 37.1921 59.7091C37.1501 59.7393 37.1003 59.7569 37.0487 59.7599C36.997 59.7628 36.9456 59.751 36.9004 59.7257L36.2244 59.3697C36.1846 59.35 36.1408 59.3397 36.0964 59.3397C36.052 59.3397 36.0082 59.35 35.9684 59.3697L35.2924 59.7257C35.2472 59.751 35.1958 59.7628 35.1441 59.7599C35.0925 59.7569 35.0427 59.7393 35.0007 59.7091C34.9587 59.6788 34.9262 59.6372 34.907 59.5892C34.8878 59.5411 34.8828 59.4886 34.8924 59.4377L35.0204 58.6857C35.0283 58.642 35.0256 58.5969 35.0123 58.5544C34.9991 58.5119 34.9758 58.4733 34.9444 58.4417L34.4004 57.9097C34.364 57.8742 34.3383 57.8292 34.3262 57.7799C34.3141 57.7305 34.3161 57.6787 34.3319 57.6304C34.3477 57.5821 34.3768 57.5392 34.4157 57.5065C34.4547 57.4739 34.502 57.4528 34.5524 57.4457L35.3084 57.3337C35.3518 57.3274 35.393 57.3106 35.4286 57.2848C35.4641 57.259 35.4928 57.225 35.5124 57.1857L35.8524 56.4977C35.8744 56.4511 35.9092 56.4117 35.9528 56.3841C35.9963 56.3565 36.0468 56.3418 36.0984 56.3418C36.15 56.3418 36.2005 56.3565 36.244 56.3841C36.2876 56.4117 36.3224 56.4511 36.3444 56.4977Z" fill="#FFDF7F"/>
<path d="M30.0636 18.6976L30.3996 19.3816C30.4189 19.4214 30.4475 19.4561 30.483 19.4825C30.5185 19.509 30.5599 19.5265 30.6036 19.5336L31.3596 19.6416C31.4099 19.6495 31.457 19.6712 31.4958 19.7043C31.5345 19.7374 31.5634 19.7805 31.5791 19.829C31.5949 19.8774 31.5969 19.9293 31.585 19.9788C31.573 20.0284 31.5476 20.0736 31.5116 20.1096L30.9636 20.6416C30.9326 20.6727 30.9093 20.7106 30.8954 20.7522C30.8815 20.7938 30.8775 20.8381 30.8836 20.8816L31.0156 21.6376C31.0252 21.6884 31.0201 21.741 31.0009 21.789C30.9818 21.8371 30.9493 21.8787 30.9073 21.9089C30.8653 21.9392 30.8155 21.9568 30.7638 21.9597C30.7122 21.9627 30.6607 21.9509 30.6156 21.9256L29.9396 21.5696C29.9004 21.5479 29.8564 21.5365 29.8116 21.5365C29.7668 21.5365 29.7227 21.5479 29.6836 21.5696L29.0076 21.9256C28.9624 21.9509 28.911 21.9627 28.8593 21.9597C28.8076 21.9568 28.7579 21.9392 28.7159 21.9089C28.6739 21.8787 28.6414 21.8371 28.6222 21.789C28.603 21.741 28.598 21.6884 28.6076 21.6376L28.7356 20.8816C28.7438 20.8381 28.7407 20.7932 28.7267 20.7512C28.7127 20.7092 28.6882 20.6715 28.6556 20.6416L28.1116 20.1096C28.0741 20.0745 28.0473 20.0296 28.0343 19.9799C28.0213 19.9302 28.0226 19.8779 28.038 19.829C28.0535 19.78 28.0825 19.7364 28.1217 19.7033C28.161 19.6701 28.2087 19.6487 28.2596 19.6416L29.0156 19.5336C29.0598 19.5265 29.1017 19.509 29.1378 19.4825C29.174 19.4561 29.2033 19.4215 29.2236 19.3816L29.5596 18.6976C29.5813 18.6489 29.6167 18.6076 29.6614 18.5786C29.7061 18.5496 29.7583 18.5342 29.8116 18.5342C29.8649 18.5342 29.917 18.5496 29.9618 18.5786C30.0065 18.6076 30.0418 18.6489 30.0636 18.6976Z" fill="#FFDF7F"/>
<path d="M60.3716 35.892L60.5716 36.292C60.5839 36.3154 60.6016 36.3356 60.6231 36.3508C60.6447 36.3661 60.6695 36.3761 60.6956 36.38L61.1476 36.444C61.1777 36.4488 61.2059 36.4619 61.229 36.4818C61.2521 36.5018 61.2691 36.5277 61.2783 36.5568C61.2874 36.5859 61.2882 36.6169 61.2807 36.6465C61.2732 36.676 61.2576 36.7028 61.2356 36.724L60.9116 37.044C60.8923 37.0622 60.8779 37.0848 60.8695 37.11C60.8611 37.1351 60.8591 37.1619 60.8636 37.188L60.9396 37.636C60.946 37.6662 60.9435 37.6976 60.9325 37.7264C60.9214 37.7553 60.9023 37.7803 60.8773 37.7984C60.8524 37.8166 60.8227 37.8272 60.7919 37.8289C60.7611 37.8306 60.7304 37.8233 60.7036 37.808L60.3036 37.596C60.2801 37.5841 60.2541 37.5778 60.2276 37.5778C60.2012 37.5778 60.1752 37.5841 60.1516 37.596L59.7516 37.808C59.7249 37.8233 59.6942 37.8306 59.6634 37.8289C59.6326 37.8272 59.6029 37.8166 59.5779 37.7984C59.553 37.7803 59.5338 37.7553 59.5228 37.7264C59.5117 37.6976 59.5092 37.6662 59.5156 37.636L59.5916 37.188C59.5962 37.1619 59.5942 37.1351 59.5858 37.11C59.5774 37.0848 59.5629 37.0622 59.5436 37.044L59.2156 36.724C59.1936 36.7026 59.1781 36.6754 59.1707 36.6456C59.1634 36.6158 59.1646 36.5845 59.1742 36.5553C59.1838 36.5261 59.2014 36.5002 59.225 36.4805C59.2486 36.4609 59.2772 36.4482 59.3076 36.444L59.7596 36.38C59.7858 36.3761 59.8106 36.3661 59.8322 36.3508C59.8537 36.3356 59.8713 36.3154 59.8836 36.292L60.0836 35.892C60.0986 35.8672 60.1197 35.8466 60.1449 35.8323C60.1701 35.818 60.1987 35.8105 60.2276 35.8105C60.2566 35.8105 60.2851 35.818 60.3104 35.8323C60.3356 35.8466 60.3567 35.8672 60.3716 35.892Z" fill="#FFDF7F"/>
<path d="M48.1123 88.3056L48.3123 88.7056C48.3244 88.7295 48.3419 88.7503 48.3634 88.7663C48.3849 88.7823 48.4099 88.793 48.4363 88.7976L48.8883 88.8616C48.9187 88.8658 48.9474 88.8784 48.971 88.8981C48.9946 88.9178 49.0122 88.9437 49.0217 88.9729C49.0313 89.002 49.0325 89.0333 49.0252 89.0632C49.0179 89.093 49.0023 89.1202 48.9803 89.1416L48.6523 89.4576C48.633 89.4765 48.6185 89.4999 48.6101 89.5257C48.6018 89.5515 48.5998 89.5789 48.6043 89.6056L48.6843 90.0536C48.6896 90.084 48.6862 90.1152 48.6745 90.1437C48.6628 90.1722 48.6433 90.1969 48.6182 90.2148C48.5932 90.2328 48.5636 90.2433 48.5328 90.2452C48.5021 90.2471 48.4714 90.2403 48.4443 90.2256L48.0443 90.0136C48.0208 90.0016 47.9947 89.9954 47.9683 89.9954C47.9419 89.9954 47.9159 90.0016 47.8923 90.0136L47.4923 90.2256C47.4654 90.2392 47.4352 90.2451 47.4051 90.2427C47.375 90.2403 47.3461 90.2296 47.3217 90.2118C47.2973 90.194 47.2783 90.1698 47.2667 90.1419C47.2552 90.114 47.2516 90.0834 47.2563 90.0536L47.3323 89.6056C47.3373 89.5792 47.336 89.552 47.3283 89.5262C47.3207 89.5005 47.3069 89.4769 47.2883 89.4576L46.9603 89.1416C46.9384 89.1204 46.9228 89.0936 46.9152 89.064C46.9077 89.0345 46.9086 89.0034 46.9177 88.9744C46.9268 88.9453 46.9439 88.9193 46.967 88.8994C46.99 88.8795 47.0182 88.8664 47.0483 88.8616L47.5003 88.7976C47.5269 88.7936 47.5522 88.7831 47.5738 88.7671C47.5954 88.751 47.6128 88.7299 47.6243 88.7056L47.8283 88.3056C47.8427 88.2807 47.8634 88.26 47.8883 88.2456C47.9133 88.2312 47.9415 88.2236 47.9703 88.2236C47.9991 88.2236 48.0274 88.2312 48.0523 88.2456C48.0772 88.26 48.0979 88.2807 48.1123 88.3056Z" fill="#FFF0C5"/>
<path d="M173.761 0.78399L173.961 1.18399C173.972 1.20802 173.99 1.22871 174.011 1.24412C174.033 1.25952 174.058 1.26912 174.085 1.27199L174.537 1.33999C174.567 1.34418 174.596 1.35683 174.62 1.37651C174.643 1.39618 174.661 1.42208 174.67 1.45126C174.68 1.48044 174.681 1.51173 174.674 1.54156C174.667 1.57139 174.651 1.59856 174.629 1.61999L174.301 1.93599C174.282 1.95434 174.268 1.97703 174.259 2.0021C174.251 2.02717 174.249 2.05389 174.253 2.07999L174.333 2.53198C174.338 2.56235 174.335 2.59359 174.323 2.62211C174.311 2.65064 174.292 2.67529 174.267 2.69324C174.242 2.7112 174.212 2.72172 174.181 2.72362C174.151 2.72552 174.12 2.71872 174.093 2.70398L173.693 2.49198C173.669 2.48004 173.643 2.47381 173.617 2.47381C173.591 2.47381 173.564 2.48004 173.541 2.49198L173.141 2.70398C173.114 2.71762 173.084 2.72354 173.054 2.7211C173.024 2.71867 172.995 2.70796 172.97 2.69017C172.946 2.67238 172.927 2.6482 172.915 2.62029C172.904 2.59237 172.9 2.56182 172.905 2.53198L172.981 2.07999C172.986 2.05421 172.984 2.02769 172.976 2.00264C172.969 1.97759 172.955 1.95473 172.937 1.93599L172.601 1.62399C172.579 1.60283 172.563 1.57597 172.556 1.54644C172.548 1.5169 172.549 1.48585 172.558 1.45677C172.567 1.42769 172.585 1.40173 172.608 1.38181C172.631 1.36189 172.659 1.34879 172.689 1.34399L173.141 1.27599C173.168 1.2735 173.193 1.26405 173.215 1.24861C173.237 1.23316 173.254 1.21225 173.265 1.18799L173.469 0.787991C173.481 0.759651 173.501 0.735454 173.527 0.718319C173.553 0.701185 173.583 0.691844 173.614 0.691421C173.645 0.690998 173.675 0.699511 173.701 0.715936C173.727 0.732361 173.748 0.755996 173.761 0.78399Z" fill="#FFF0C5"/>
<path d="M170.285 76.2737L170.633 76.9817C170.652 77.0228 170.682 77.0582 170.719 77.0848C170.756 77.1113 170.799 77.1282 170.845 77.1337L171.645 77.2497C171.697 77.2567 171.746 77.2784 171.787 77.3122C171.827 77.346 171.857 77.3905 171.874 77.4406C171.89 77.4908 171.892 77.5446 171.879 77.5957C171.866 77.6468 171.839 77.6933 171.801 77.7297L171.201 78.2817C171.168 78.3144 171.144 78.3543 171.131 78.3981C171.117 78.4419 171.113 78.4884 171.121 78.5337L171.257 79.3337C171.263 79.3841 171.257 79.4354 171.237 79.4822C171.217 79.529 171.185 79.5697 171.144 79.5999C171.103 79.6301 171.055 79.6489 171.005 79.6541C170.954 79.6593 170.903 79.6509 170.857 79.6297L170.157 79.2617C170.116 79.24 170.071 79.2286 170.025 79.2286C169.979 79.2286 169.933 79.24 169.893 79.2617L169.201 79.6217C169.155 79.6444 169.103 79.6539 169.052 79.6493C169.001 79.6447 168.952 79.6261 168.911 79.5955C168.869 79.565 168.837 79.5236 168.818 79.476C168.798 79.4284 168.792 79.3764 168.801 79.3257L168.933 78.5257C168.941 78.4804 168.938 78.4336 168.924 78.3897C168.91 78.3457 168.886 78.3059 168.853 78.2737L168.285 77.7217C168.248 77.6844 168.222 77.6376 168.21 77.5866C168.199 77.5356 168.201 77.4824 168.218 77.4327C168.234 77.383 168.264 77.3389 168.304 77.3052C168.344 77.2715 168.393 77.2495 168.445 77.2417L169.225 77.1257C169.27 77.1202 169.313 77.1033 169.35 77.0768C169.387 77.0502 169.417 77.0148 169.437 76.9737L169.789 76.2657C169.814 76.2219 169.851 76.1857 169.895 76.1608C169.939 76.1359 169.988 76.1232 170.039 76.1241C170.09 76.1249 170.139 76.1392 170.182 76.1655C170.225 76.1918 170.261 76.2292 170.285 76.2737Z" fill="#FFDF7F"/>
<path d="M127.435 9.98122C127.435 10.0864 127.404 10.1893 127.345 10.2768C127.287 10.3643 127.204 10.4325 127.107 10.4727C127.009 10.513 126.902 10.5235 126.799 10.503C126.696 10.4825 126.601 10.4318 126.527 10.3574C126.453 10.283 126.402 10.1882 126.381 10.085C126.361 9.98181 126.371 9.87484 126.412 9.77763C126.452 9.68042 126.52 9.59734 126.608 9.53888C126.695 9.48042 126.798 9.44922 126.903 9.44922C127.044 9.44922 127.179 9.50527 127.279 9.60504C127.379 9.70481 127.435 9.84012 127.435 9.98122Z" fill="#FFDF7F"/>
<path d="M142.705 113.089C142.705 113.194 142.673 113.297 142.615 113.384C142.557 113.472 142.473 113.54 142.376 113.58C142.279 113.62 142.172 113.631 142.069 113.61C141.966 113.59 141.871 113.539 141.796 113.465C141.722 113.39 141.671 113.296 141.651 113.192C141.63 113.089 141.641 112.982 141.681 112.885C141.721 112.788 141.79 112.705 141.877 112.646C141.965 112.588 142.067 112.557 142.173 112.557C142.243 112.556 142.312 112.57 142.377 112.596C142.442 112.623 142.5 112.662 142.55 112.711C142.6 112.761 142.639 112.82 142.665 112.884C142.692 112.949 142.705 113.019 142.705 113.089Z" fill="#FFF0C5"/>
<path d="M53.1008 3.34728C53.1008 3.79743 52.9673 4.23747 52.7173 4.61176C52.4672 4.98604 52.1117 5.27776 51.6958 5.45003C51.2799 5.62229 50.8223 5.66736 50.3808 5.57955C49.9393 5.49172 49.5338 5.27496 49.2155 4.95665C48.8971 4.63835 48.6804 4.23281 48.5926 3.79131C48.5047 3.34981 48.5498 2.89218 48.7221 2.4763C48.8943 2.06041 49.1861 1.70495 49.5604 1.45486C49.9346 1.20477 50.3747 1.07129 50.8248 1.07129C51.4285 1.07129 52.0074 1.31108 52.4342 1.73791C52.861 2.16474 53.1008 2.74365 53.1008 3.34728Z" fill="#FFDF7F"/>
<path d="M74.6362 18.3856C76.0096 18.6269 77.4017 18.7461 78.7962 18.7416C78.2503 19.3796 77.5485 19.8653 76.7591 20.1513C75.9698 20.4374 75.1197 20.514 74.2919 20.3738C73.4641 20.2337 72.6867 19.8814 72.0355 19.3514C71.3843 18.8214 70.8815 18.1317 70.5762 17.3496C71.8968 17.8125 73.2553 18.1591 74.6362 18.3856Z" fill="#FFF0C5"/>
<path d="M75.3449 14.1882C73.7616 13.9047 72.1523 13.792 70.5449 13.8522C70.9456 12.7997 71.6991 11.9189 72.6768 11.36C73.6545 10.8011 74.7959 10.5988 75.9062 10.7876C77.0164 10.9764 78.0268 11.5447 78.7648 12.3953C79.5028 13.246 79.9227 14.3265 79.9529 15.4522C78.4664 14.8676 76.9216 14.4439 75.3449 14.1882Z" fill="#FFF0C5"/>
<path d="M82.6532 16.8491C82.8078 15.9343 79.5551 14.6219 75.388 13.9178C71.221 13.2138 67.7177 13.3847 67.5631 14.2995C67.4085 15.2144 70.6612 16.5268 74.8283 17.2308C78.9953 17.9349 82.4986 17.764 82.6532 16.8491Z" fill="#FFF0C5"/>
<path d="M173.456 51.1423C171.594 54.8704 169.015 58.1951 165.868 60.9264C162.721 63.6578 159.067 65.7424 155.114 67.0611C151.16 68.3797 146.986 68.9067 142.83 68.6117C138.673 68.3168 134.615 67.2059 130.888 65.3423C130.24 65.0223 129.612 64.6823 129.012 64.3223C134.608 62.2468 139.657 58.9205 143.773 54.5973C147.888 50.2741 150.962 45.0681 152.76 39.3763C154.558 33.6845 155.033 27.6572 154.147 21.7542C153.262 15.8512 151.04 10.2283 147.652 5.31445C152.825 5.73921 157.815 7.42579 162.185 10.2265C166.555 13.0272 170.171 16.8566 172.718 21.3793C175.264 25.902 176.663 30.9802 176.792 36.169C176.921 41.3578 175.775 46.499 173.456 51.1423Z" fill="#FFF0C5"/>
<path d="M158.944 13.764C159.798 14.3945 160.501 15.2059 161.005 16.1401C161.508 17.0743 161.799 18.1083 161.856 19.168C160.749 17.6372 159.41 16.2878 157.888 15.168C156.373 14.043 154.695 13.1554 152.912 12.536C153.946 12.2821 155.023 12.2605 156.066 12.4728C157.109 12.6852 158.092 13.1261 158.944 13.764Z" fill="#FFDF7F"/>
<path d="M150.932 61.8582C150.045 62.443 149.04 62.8244 147.989 62.9751C146.938 63.1259 145.867 63.0422 144.852 62.7302C146.665 62.2159 148.387 61.4224 149.956 60.3782C151.535 59.344 152.947 58.0747 154.144 56.6143C154.029 57.6713 153.681 58.6897 153.126 59.5964C152.57 60.5031 151.821 61.2756 150.932 61.8582Z" fill="#FFDF7F"/>
<path d="M161.865 31.6574C162.319 32.617 162.555 33.6656 162.555 34.7274C162.555 35.7892 162.319 36.8378 161.865 37.7974C161.616 35.9288 161.076 34.1107 160.265 32.4094C159.466 30.7007 158.411 29.124 157.137 27.7334C158.165 27.9982 159.123 28.4873 159.94 29.1657C160.758 29.8442 161.415 30.695 161.865 31.6574Z" fill="#FFDF7F"/>
<path d="M167.02 53.4407C166.355 54.2685 165.514 54.9387 164.559 55.4035C163.604 55.8682 162.558 56.1158 161.496 56.1287C163.066 55.086 164.463 53.8038 165.636 52.3287C166.824 50.8623 167.782 49.2235 168.476 47.4688C168.689 48.5099 168.669 49.5854 168.417 50.6179C168.166 51.6505 167.688 52.6145 167.02 53.4407Z" fill="#FFDF7F"/>
<path d="M99.9994 141.048C142.832 141.048 177.555 139.021 177.555 136.52C177.555 134.019 142.832 131.992 99.9994 131.992C57.1664 131.992 22.4434 134.019 22.4434 136.52C22.4434 139.021 57.1664 141.048 99.9994 141.048Z" fill="#FBE9B4"/>
<path d="M101.739 23.1539L101.459 22.9339C102.719 21.3339 104.043 19.8299 105.395 18.4219L105.647 18.6699C104.303 20.0659 102.987 21.5779 101.739 23.1539Z" fill="url(#paint0_linear_807_34320)"/>
<path d="M100.245 24.4702L98.9551 26.0967L99.2309 26.3154L100.521 24.6889L100.245 24.4702Z" fill="url(#paint1_linear_807_34320)"/>
<path d="M127.999 41.7108C136.691 27.7388 137.875 13.9709 131.547 9.51489C125.219 5.0589 112.655 10.8109 102.427 23.7029L73.1992 60.5708L103.167 81.6747L127.999 41.7108Z" fill="url(#paint2_linear_807_34320)"/>
<path opacity="0.1" d="M124.579 39.3031L99.1393 78.851L96.0273 72.903L121.295 36.8231C128.439 26.6192 132.443 17.2952 132.459 12.1032C132.459 12.0028 132.493 11.9054 132.558 11.8283C132.622 11.7512 132.711 11.6994 132.81 11.6821C132.909 11.6648 133.011 11.6832 133.098 11.7339C133.184 11.7847 133.25 11.8645 133.283 11.9592C135.083 17.1392 131.963 27.8272 124.579 39.3031Z" fill="white"/>
<path d="M103.149 81.6646C107.194 75.9188 103.765 66.5367 95.4883 60.7092C87.2119 54.8816 77.2227 54.8153 73.177 60.5611C69.1313 66.3069 72.561 75.689 80.8374 81.5166C89.1139 87.3442 99.103 87.4104 103.149 81.6646Z" fill="url(#paint3_linear_807_34320)"/>
<path opacity="0.5" d="M103.149 81.6646C107.194 75.9188 103.765 66.5367 95.4883 60.7092C87.2119 54.8816 77.2227 54.8153 73.177 60.5611C69.1313 66.3069 72.561 75.689 80.8374 81.5166C89.1139 87.3442 99.103 87.4104 103.149 81.6646Z" fill="white"/>
<path opacity="0.1" d="M100.038 54.1989C93.4624 49.5669 86.0024 48.2429 81.2384 50.4069L73.8184 59.7589C78.2184 54.8469 87.6224 55.1829 95.4864 60.7189C103.35 66.2549 106.842 75.0108 103.69 80.7988L109.918 70.7988C110.454 65.5469 106.686 58.8789 100.038 54.1989Z" fill="black"/>
<path opacity="0.2" d="M110.571 24.0469C108.747 26.9349 107.371 32.3389 112.791 36.1508C118.211 39.9628 122.835 36.8548 124.935 34.1509L110.571 24.0469Z" fill="black"/>
<path d="M126.215 30.8233C125.595 35.9832 119.631 39.7472 113.371 35.3392C107.111 30.9312 108.643 24.0473 113.291 21.7393C116.155 20.3073 119.803 20.9393 122.299 22.6753C124.795 24.4113 126.599 27.6233 126.215 30.8233Z" fill="white"/>
<path d="M114.222 34.1176C111.786 32.4056 110.538 30.1657 110.714 27.8217C110.794 26.81 111.134 25.8363 111.702 24.9951C112.269 24.154 113.045 23.4741 113.954 23.0217C116.13 21.9337 119.21 22.2737 121.446 23.8457C123.682 25.4177 125.046 28.2097 124.746 30.6256C124.627 31.6306 124.25 32.5877 123.652 33.4041C123.054 34.2206 122.256 34.8687 121.334 35.2856C119.198 36.2536 116.658 35.8336 114.222 34.1176Z" fill="url(#paint4_linear_807_34320)"/>
<path opacity="0.3" d="M114.222 34.1176C111.786 32.4056 110.538 30.1657 110.714 27.8217C110.794 26.81 111.134 25.8363 111.702 24.9951C112.269 24.154 113.045 23.4741 113.954 23.0217C116.13 21.9337 119.21 22.2737 121.446 23.8457C123.682 25.4177 125.046 28.2097 124.746 30.6256C124.627 31.6306 124.25 32.5877 123.652 33.4041C123.054 34.2206 122.256 34.8687 121.334 35.2856C119.198 36.2536 116.658 35.8336 114.222 34.1176Z" fill="black"/>
<path d="M114.223 34.1189C111.787 32.4069 110.495 30.2309 110.591 27.999C110.632 27.05 110.935 26.131 111.466 25.3433C111.997 24.5555 112.735 23.9298 113.599 23.535C115.691 22.567 118.711 22.991 120.947 24.567C123.183 26.143 124.599 28.8429 124.391 31.1389C124.31 32.0868 123.968 32.9937 123.404 33.7591C122.839 34.5245 122.073 35.1184 121.191 35.4749C119.139 36.3189 116.659 35.8349 114.223 34.1189Z" fill="url(#paint5_linear_807_34320)"/>
<path opacity="0.2" d="M114.223 34.1189C111.787 32.4069 110.495 30.2309 110.591 27.999C110.632 27.05 110.935 26.131 111.466 25.3433C111.997 24.5555 112.735 23.9298 113.599 23.535C115.691 22.567 118.711 22.991 120.947 24.567C123.183 26.143 124.599 28.8429 124.391 31.1389C124.31 32.0868 123.968 32.9937 123.404 33.7591C122.839 34.5245 122.073 35.1184 121.191 35.4749C119.139 36.3189 116.659 35.8349 114.223 34.1189Z" fill="white"/>
<path opacity="0.3" d="M122.643 26.146L111.383 31.114C110.825 30.1729 110.547 29.0917 110.583 27.998C110.605 27.4829 110.706 26.9741 110.883 26.49L118.151 23.29C119.915 23.7371 121.488 24.7415 122.635 26.154L122.643 26.146Z" fill="white"/>
<path opacity="0.3" d="M124.258 29.351L113.926 33.903C113.305 33.4473 112.739 32.9211 112.238 32.335L123.478 27.375C123.83 27.9939 124.092 28.6591 124.258 29.351Z" fill="white"/>
<path opacity="0.1" d="M135.522 20.4429L127.811 14.5237L119.922 9.45496C124.542 7.57097 128.682 7.49897 131.546 9.51496C134.41 11.531 135.738 15.4589 135.522 20.4429Z" fill="black"/>
<path opacity="0.5" d="M95.4813 70.4163C96.7417 68.6262 95.7208 65.7368 93.201 63.9626C90.6812 62.1884 87.6168 62.2012 86.3564 63.9913C85.096 65.7813 86.1169 68.6707 88.6367 70.4449C91.1565 72.2191 94.2209 72.2063 95.4813 70.4163Z" fill="url(#paint6_linear_807_34320)"/>
<path opacity="0.5" d="M83.5988 68.7364C82.3388 70.5244 79.2748 70.5404 76.7548 68.7644C74.2348 66.9885 73.2108 64.1005 74.4708 62.3125C75.7308 60.5245 78.7988 60.5085 81.3188 62.2845C83.8388 64.0605 84.8428 66.9485 83.5988 68.7364Z" fill="url(#paint7_linear_807_34320)"/>
<path opacity="0.5" d="M101.082 81.0587C99.822 82.8507 96.758 82.8627 94.238 81.0867C91.718 79.3107 90.698 76.4227 91.958 74.6347C93.218 72.8467 96.282 72.8307 98.802 74.6067C101.322 76.3827 102.342 79.2707 101.082 81.0587Z" fill="url(#paint8_linear_807_34320)"/>
<path opacity="0.5" d="M89.1991 79.3742C87.9391 81.1622 84.8751 81.1742 82.3551 79.4022C79.8351 77.6302 78.8151 74.7382 80.0751 72.9462C81.3351 71.1542 84.3991 71.1462 86.9191 72.9182C89.4391 74.6902 90.4431 77.5822 89.1991 79.3742Z" fill="url(#paint9_linear_807_34320)"/>
<path opacity="0.5" d="M95.4872 70.423C95.3539 70.6119 95.1981 70.7838 95.0232 70.935C95.7232 69.151 94.6672 66.675 92.4152 65.091C90.1632 63.507 87.4792 63.347 86.0352 64.603C86.12 64.3901 86.2287 64.1874 86.3592 63.999C87.6192 62.211 90.6872 62.195 93.2072 63.971C95.7272 65.747 96.7432 68.631 95.4872 70.423Z" fill="url(#paint10_linear_807_34320)"/>
<path opacity="0.5" d="M83.5984 68.735C83.4656 68.9231 83.3112 69.0949 83.1384 69.247C83.8384 67.459 82.7864 64.987 80.5304 63.399C78.2744 61.811 75.5944 61.655 74.1504 62.915C74.2344 62.7017 74.3431 62.499 74.4744 62.311C75.7344 60.519 78.7984 60.507 81.3184 62.283C83.8384 64.059 84.8424 66.943 83.5984 68.735Z" fill="url(#paint11_linear_807_34320)"/>
<path opacity="0.5" d="M101.083 81.0642C100.95 81.251 100.796 81.4215 100.623 81.5722C101.323 79.7842 100.267 77.3122 98.0148 75.7282C95.7628 74.1442 93.0788 73.9802 91.6348 75.2442C91.7179 75.0292 91.8267 74.8251 91.9588 74.6362C93.2188 72.8442 96.2828 72.8322 98.8028 74.6082C101.323 76.3842 102.347 79.2722 101.083 81.0642Z" fill="url(#paint12_linear_807_34320)"/>
<path opacity="0.5" d="M89.198 79.3742C89.0674 79.5628 88.9127 79.7336 88.738 79.8822C89.438 78.0982 88.382 75.6222 86.13 74.0382C83.878 72.4542 81.194 72.2942 79.75 73.5542C79.8323 73.3389 79.9412 73.1347 80.074 72.9462C81.334 71.1542 84.398 71.1462 86.918 72.9182C89.438 74.6902 90.442 77.5822 89.198 79.3742Z" fill="url(#paint13_linear_807_34320)"/>
<path d="M93.0314 37.3126C93.0314 37.3126 87.6314 44.3206 82.9274 50.3526C82.2594 51.1935 81.3841 51.8463 80.3876 52.2467C79.3911 52.6471 78.3075 52.7815 77.2434 52.6366C73.1354 52.1286 66.4434 55.0366 66.4434 55.0366C66.4434 55.0366 79.1034 34.2406 93.0314 37.3126Z" fill="url(#paint14_linear_807_34320)"/>
<path opacity="0.3" d="M93.0314 37.3126C93.0314 37.3126 87.6314 44.3206 82.9274 50.3526C82.2594 51.1935 81.3841 51.8463 80.3876 52.2467C79.3911 52.6471 78.3075 52.7815 77.2434 52.6366C73.1354 52.1286 66.4434 55.0366 66.4434 55.0366C66.4434 55.0366 79.1034 34.2406 93.0314 37.3126Z" fill="black"/>
<path d="M118.353 55.1523C118.353 55.1523 113.597 62.5963 109.481 69.0563C108.915 69.9686 108.596 71.0126 108.555 72.0856C108.515 73.1586 108.754 74.2237 109.249 75.1763C111.113 78.8763 110.625 86.1723 110.625 86.1723C110.625 86.1723 125.941 67.2243 118.353 55.1523Z" fill="url(#paint15_linear_807_34320)"/>
<path opacity="0.3" d="M118.353 55.1523C118.353 55.1523 113.597 62.5963 109.481 69.0563C108.915 69.9686 108.596 71.0126 108.555 72.0856C108.515 73.1586 108.754 74.2237 109.249 75.1763C111.113 78.8763 110.625 86.1723 110.625 86.1723C110.625 86.1723 125.941 67.2243 118.353 55.1523Z" fill="black"/>
<path d="M135.803 108.667C140.799 96.4432 119.199 92.9792 110.651 96.0472C102.103 99.1152 93.3869 101.395 93.0509 93.2152C92.7149 85.0352 99.2989 79.9632 96.1589 78.0753C94.4189 77.0273 93.9229 78.8752 93.0629 81.5712C90.4309 89.8312 75.5229 91.7992 82.3829 103.755C89.2429 115.711 85.5829 113.115 74.0429 117.911C62.5029 122.707 68.4429 136.519 79.6069 136.519H146.839C177.655 136.519 148.479 77.5352 135.803 108.667Z" fill="url(#paint16_linear_807_34320)"/>
<path opacity="0.6" d="M135.803 108.667C140.799 96.4432 119.199 92.9792 110.651 96.0472C102.103 99.1152 93.3869 101.395 93.0509 93.2152C92.7149 85.0352 99.2989 79.9632 96.1589 78.0753C94.4189 77.0273 93.9229 78.8752 93.0629 81.5712C90.4309 89.8312 75.5229 91.7992 82.3829 103.755C89.2429 115.711 85.5829 113.115 74.0429 117.911C62.5029 122.707 68.4429 136.519 79.6069 136.519H146.839C177.655 136.519 148.479 77.5352 135.803 108.667Z" fill="white"/>
<path d="M79.0187 66.0591C78.1227 62.9472 73.2747 66.8591 68.4987 71.5991C63.7227 76.3391 61.3667 87.1591 56.7467 92.7991C52.1267 98.4391 38.8987 103.535 44.0707 112.023C51.6987 124.531 34.1667 136.531 54.9307 136.531H97.5187C105.307 136.531 113.751 127.007 101.623 120.531C89.4947 114.055 71.3267 129.155 66.4227 114.751C63.9907 107.603 72.8227 110.883 68.7307 99.1791C64.6387 87.4751 64.9107 84.2871 66.9947 79.0711C72.0667 66.3591 80.3987 70.7871 79.0187 66.0591Z" fill="url(#paint17_linear_807_34320)"/>
<path opacity="0.6" d="M79.0187 66.0591C78.1227 62.9472 73.2747 66.8591 68.4987 71.5991C63.7227 76.3391 61.3667 87.1591 56.7467 92.7991C52.1267 98.4391 38.8987 103.535 44.0707 112.023C51.6987 124.531 34.1667 136.531 54.9307 136.531H97.5187C105.307 136.531 113.751 127.007 101.623 120.531C89.4947 114.055 71.3267 129.155 66.4227 114.751C63.9907 107.603 72.8227 110.883 68.7307 99.1791C64.6387 87.4751 64.9107 84.2871 66.9947 79.0711C72.0667 66.3591 80.3987 70.7871 79.0187 66.0591Z" fill="white"/>
<path d="M87.8466 67.494C88.9026 65.566 92.5266 66.722 92.4466 69.246C92.3666 71.77 82.9826 75.078 84.7266 83.794C86.4706 92.51 103.223 93.134 107.155 101.866C111.087 110.598 95.8546 111.822 100.399 117.282C104.943 122.742 118.967 110.202 128.959 113.426C138.951 116.65 148.935 136.518 130.607 136.518H74.1306C61.8506 136.518 52.8826 111.162 64.6826 100.73C76.4826 90.298 66.9626 93.686 71.3666 87.002C75.7706 80.318 83.7946 74.886 87.8466 67.494Z" fill="url(#paint18_linear_807_34320)"/>
<path opacity="0.8" d="M87.8466 67.494C88.9026 65.566 92.5266 66.722 92.4466 69.246C92.3666 71.77 82.9826 75.078 84.7266 83.794C86.4706 92.51 103.223 93.134 107.155 101.866C111.087 110.598 95.8546 111.822 100.399 117.282C104.943 122.742 118.967 110.202 128.959 113.426C138.951 116.65 148.935 136.518 130.607 136.518H74.1306C61.8506 136.518 52.8826 111.162 64.6826 100.73C76.4826 90.298 66.9626 93.686 71.3666 87.002C75.7706 80.318 83.7946 74.886 87.8466 67.494Z" fill="white"/>
<g filter="url(#filter0_d_807_34320)">
<path d="M48.6882 152.492H45.8885C45.8374 152.13 45.733 151.808 45.5753 151.527C45.4176 151.241 45.2152 150.999 44.968 150.798C44.7209 150.598 44.4354 150.445 44.1115 150.338C43.7919 150.232 43.4446 150.178 43.0696 150.178C42.392 150.178 41.8018 150.347 41.299 150.683C40.7962 151.016 40.4063 151.501 40.1293 152.141C39.8523 152.776 39.7138 153.547 39.7138 154.455C39.7138 155.388 39.8523 156.172 40.1293 156.807C40.4105 157.442 40.8026 157.921 41.3054 158.245C41.8082 158.569 42.3899 158.731 43.0504 158.731C43.4212 158.731 43.7642 158.682 44.0795 158.584C44.3991 158.486 44.6825 158.343 44.9297 158.156C45.1768 157.964 45.3814 157.732 45.5433 157.459C45.7095 157.186 45.8246 156.875 45.8885 156.526L48.6882 156.538C48.6158 157.139 48.4347 157.719 48.1449 158.277C47.8594 158.831 47.4737 159.327 46.9879 159.766C46.5064 160.201 45.9311 160.546 45.2621 160.802C44.5973 161.053 43.8452 161.179 43.0057 161.179C41.8381 161.179 40.794 160.915 39.8736 160.386C38.9574 159.858 38.233 159.093 37.7003 158.092C37.1719 157.09 36.9077 155.878 36.9077 154.455C36.9077 153.027 37.1761 151.812 37.7131 150.811C38.25 149.81 38.9787 149.047 39.8991 148.523C40.8196 147.994 41.8551 147.73 43.0057 147.73C43.7642 147.73 44.4673 147.837 45.1151 148.05C45.767 148.263 46.3445 148.574 46.8473 148.983C47.3501 149.388 47.7592 149.884 48.0746 150.472C48.3942 151.06 48.5987 151.734 48.6882 152.492ZM62.7028 154.455C62.7028 155.882 62.4322 157.097 61.891 158.098C61.354 159.099 60.6211 159.864 59.6921 160.393C58.7674 160.917 57.7276 161.179 56.5728 161.179C55.4094 161.179 54.3654 160.915 53.4407 160.386C52.516 159.858 51.7852 159.093 51.2482 158.092C50.7113 157.09 50.4428 155.878 50.4428 154.455C50.4428 153.027 50.7113 151.812 51.2482 150.811C51.7852 149.81 52.516 149.047 53.4407 148.523C54.3654 147.994 55.4094 147.73 56.5728 147.73C57.7276 147.73 58.7674 147.994 59.6921 148.523C60.6211 149.047 61.354 149.81 61.891 150.811C62.4322 151.812 62.7028 153.027 62.7028 154.455ZM59.8967 154.455C59.8967 153.53 59.7582 152.75 59.4812 152.115C59.2085 151.48 58.8228 150.999 58.3242 150.67C57.8256 150.342 57.2418 150.178 56.5728 150.178C55.9038 150.178 55.32 150.342 54.8214 150.67C54.3228 150.999 53.935 151.48 53.658 152.115C53.3853 152.75 53.2489 153.53 53.2489 154.455C53.2489 155.379 53.3853 156.159 53.658 156.794C53.935 157.429 54.3228 157.911 54.8214 158.239C55.32 158.567 55.9038 158.731 56.5728 158.731C57.2418 158.731 57.8256 158.567 58.3242 158.239C58.8228 157.911 59.2085 157.429 59.4812 156.794C59.7582 156.159 59.8967 155.379 59.8967 154.455ZM64.753 147.909H68.1664L71.7715 156.705H71.9249L75.53 147.909H78.9434V161H76.2587V152.479H76.15L72.7623 160.936H70.9341L67.5463 152.447H67.4377V161H64.753V147.909ZM83.9915 147.909V161H81.2237V147.909H83.9915ZM97.2182 147.909V161H94.8276L89.1323 152.761H89.0364V161H86.2686V147.909H88.6976L94.3482 156.142H94.4632V147.909H97.2182ZM108.185 152.141C108.096 151.83 107.97 151.555 107.808 151.316C107.646 151.073 107.448 150.869 107.214 150.702C106.984 150.532 106.719 150.402 106.421 150.312C106.127 150.223 105.801 150.178 105.443 150.178C104.774 150.178 104.186 150.344 103.679 150.677C103.176 151.009 102.784 151.493 102.503 152.128C102.222 152.759 102.081 153.53 102.081 154.442C102.081 155.354 102.219 156.129 102.496 156.768C102.773 157.408 103.165 157.896 103.673 158.232C104.18 158.565 104.778 158.731 105.469 158.731C106.095 158.731 106.63 158.62 107.073 158.398C107.521 158.173 107.862 157.855 108.096 157.446C108.335 157.037 108.454 156.553 108.454 155.995L109.016 156.078H105.641V153.994H111.119V155.643C111.119 156.794 110.876 157.783 110.391 158.609C109.905 159.432 109.236 160.067 108.384 160.514C107.531 160.957 106.555 161.179 105.456 161.179C104.229 161.179 103.151 160.908 102.222 160.367C101.293 159.822 100.568 159.048 100.048 158.047C99.5327 157.041 99.2749 155.848 99.2749 154.467C99.2749 153.406 99.4283 152.46 99.7351 151.629C100.046 150.794 100.481 150.087 101.039 149.507C101.597 148.928 102.247 148.487 102.989 148.184C103.73 147.881 104.533 147.73 105.398 147.73C106.14 147.73 106.83 147.839 107.469 148.056C108.109 148.269 108.675 148.572 109.17 148.964C109.668 149.356 110.075 149.822 110.391 150.364C110.706 150.901 110.908 151.493 110.998 152.141H108.185ZM124.466 151.674C124.415 151.158 124.195 150.758 123.808 150.472C123.42 150.187 122.893 150.044 122.229 150.044C121.777 150.044 121.396 150.108 121.085 150.236C120.773 150.359 120.535 150.532 120.369 150.754C120.207 150.975 120.126 151.227 120.126 151.508C120.117 151.742 120.166 151.947 120.273 152.121C120.384 152.296 120.535 152.447 120.727 152.575C120.918 152.699 121.14 152.808 121.391 152.901C121.643 152.991 121.911 153.067 122.197 153.131L123.373 153.413C123.944 153.54 124.468 153.711 124.945 153.924C125.423 154.137 125.836 154.399 126.185 154.71C126.535 155.021 126.805 155.388 126.997 155.81C127.193 156.232 127.293 156.715 127.298 157.261C127.293 158.062 127.089 158.756 126.684 159.344C126.283 159.928 125.704 160.382 124.945 160.706C124.191 161.026 123.281 161.185 122.216 161.185C121.159 161.185 120.239 161.023 119.455 160.7C118.675 160.376 118.065 159.896 117.626 159.261C117.192 158.622 116.964 157.832 116.942 156.89H119.621C119.651 157.329 119.776 157.695 119.998 157.989C120.224 158.279 120.524 158.499 120.899 158.648C121.278 158.793 121.707 158.865 122.184 158.865C122.653 158.865 123.06 158.797 123.405 158.661C123.754 158.524 124.025 158.335 124.217 158.092C124.408 157.849 124.504 157.57 124.504 157.254C124.504 156.96 124.417 156.713 124.242 156.513C124.072 156.312 123.82 156.142 123.488 156.001C123.16 155.861 122.757 155.733 122.28 155.618L120.854 155.26C119.751 154.991 118.879 154.572 118.24 154.001C117.601 153.43 117.283 152.661 117.288 151.693C117.283 150.901 117.494 150.208 117.92 149.616C118.351 149.023 118.941 148.561 119.691 148.229C120.441 147.896 121.293 147.73 122.248 147.73C123.219 147.73 124.067 147.896 124.792 148.229C125.521 148.561 126.087 149.023 126.492 149.616C126.897 150.208 127.106 150.894 127.119 151.674H124.466ZM141.189 154.455C141.189 155.882 140.919 157.097 140.377 158.098C139.84 159.099 139.107 159.864 138.178 160.393C137.254 160.917 136.214 161.179 135.059 161.179C133.896 161.179 132.852 160.915 131.927 160.386C131.002 159.858 130.271 159.093 129.735 158.092C129.198 157.09 128.929 155.878 128.929 154.455C128.929 153.027 129.198 151.812 129.735 150.811C130.271 149.81 131.002 149.047 131.927 148.523C132.852 147.994 133.896 147.73 135.059 147.73C136.214 147.73 137.254 147.994 138.178 148.523C139.107 149.047 139.84 149.81 140.377 150.811C140.919 151.812 141.189 153.027 141.189 154.455ZM138.383 154.455C138.383 153.53 138.244 152.75 137.968 152.115C137.695 151.48 137.309 150.999 136.811 150.67C136.312 150.342 135.728 150.178 135.059 150.178C134.39 150.178 133.806 150.342 133.308 150.67C132.809 150.999 132.421 151.48 132.144 152.115C131.872 152.75 131.735 153.53 131.735 154.455C131.735 155.379 131.872 156.159 132.144 156.794C132.421 157.429 132.809 157.911 133.308 158.239C133.806 158.567 134.39 158.731 135.059 158.731C135.728 158.731 136.312 158.567 136.811 158.239C137.309 157.911 137.695 157.429 137.968 156.794C138.244 156.159 138.383 155.379 138.383 154.455ZM155.269 154.455C155.269 155.882 154.999 157.097 154.457 158.098C153.92 159.099 153.188 159.864 152.259 160.393C151.334 160.917 150.294 161.179 149.139 161.179C147.976 161.179 146.932 160.915 146.007 160.386C145.082 159.858 144.352 159.093 143.815 158.092C143.278 157.09 143.009 155.878 143.009 154.455C143.009 153.027 143.278 151.812 143.815 150.811C144.352 149.81 145.082 149.047 146.007 148.523C146.932 147.994 147.976 147.73 149.139 147.73C150.294 147.73 151.334 147.994 152.259 148.523C153.188 149.047 153.92 149.81 154.457 150.811C154.999 151.812 155.269 153.027 155.269 154.455ZM152.463 154.455C152.463 153.53 152.325 152.75 152.048 152.115C151.775 151.48 151.389 150.999 150.891 150.67C150.392 150.342 149.808 150.178 149.139 150.178C148.47 150.178 147.886 150.342 147.388 150.67C146.889 150.999 146.501 151.48 146.224 152.115C145.952 152.75 145.815 153.53 145.815 154.455C145.815 155.379 145.952 156.159 146.224 156.794C146.501 157.429 146.889 157.911 147.388 158.239C147.886 158.567 148.47 158.731 149.139 158.731C149.808 158.731 150.392 158.567 150.891 158.239C151.389 157.911 151.775 157.429 152.048 156.794C152.325 156.159 152.463 155.379 152.463 154.455ZM168.269 147.909V161H165.878L160.183 152.761H160.087V161H157.319V147.909H159.748L165.399 156.142H165.514V147.909H168.269Z" fill="url(#paint19_linear_807_34320)"/>
</g>
<defs>
<filter id="filter0_d_807_34320" x="36.9082" y="147.73" width="131.361" height="14.4551" filterUnits="userSpaceOnUse" color-interpolation-filters="sRGB">
<feFlood flood-opacity="0" result="BackgroundImageFix"/>
<feColorMatrix in="SourceAlpha" type="matrix" values="0 0 0 0 0 0 0 0 0 0 0 0 0 0 0 0 0 0 127 0" result="hardAlpha"/>
<feOffset dy="1"/>
<feComposite in2="hardAlpha" operator="out"/>
<feColorMatrix type="matrix" values="0 0 0 0 0.380769 0 0 0 0 0.380769 0 0 0 0 0.380769 0 0 0 0.4 0"/>
<feBlend mode="normal" in2="BackgroundImageFix" result="effect1_dropShadow_807_34320"/>
<feBlend mode="normal" in="SourceGraphic" in2="effect1_dropShadow_807_34320" result="shape"/>
</filter>
<linearGradient id="paint0_linear_807_34320" x1="101.459" y1="20.7879" x2="105.647" y2="20.7879" gradientUnits="userSpaceOnUse">
<stop stop-color="#F2CC5A"/>
<stop offset="1" stop-color="#FFC252"/>
</linearGradient>
<linearGradient id="paint1_linear_807_34320" x1="99.093" y1="26.2061" x2="100.383" y2="24.5796" gradientUnits="userSpaceOnUse">
<stop stop-color="#F2CC5A"/>
<stop offset="1" stop-color="#FFC252"/>
</linearGradient>
<linearGradient id="paint2_linear_807_34320" x1="73.1992" y1="44.8486" x2="135.545" y2="44.8486" gradientUnits="userSpaceOnUse">
<stop stop-color="#F2CC5A"/>
<stop offset="1" stop-color="#FFC252"/>
</linearGradient>
<linearGradient id="paint3_linear_807_34320" x1="80.8374" y1="81.5166" x2="95.4883" y2="60.7091" gradientUnits="userSpaceOnUse">
<stop stop-color="#F2CC5A"/>
<stop offset="1" stop-color="#FFC252"/>
</linearGradient>
<linearGradient id="paint4_linear_807_34320" x1="110.697" y1="29.0923" x2="124.787" y2="29.0923" gradientUnits="userSpaceOnUse">
<stop stop-color="#F2CC5A"/>
<stop offset="1" stop-color="#FFC252"/>
</linearGradient>
<linearGradient id="paint5_linear_807_34320" x1="110.586" y1="29.4499" x2="124.411" y2="29.4499" gradientUnits="userSpaceOnUse">
<stop stop-color="#F2CC5A"/>
<stop offset="1" stop-color="#FFC252"/>
</linearGradient>
<linearGradient id="paint6_linear_807_34320" x1="88.6367" y1="70.4449" x2="93.201" y2="63.9626" gradientUnits="userSpaceOnUse">
<stop stop-color="#F2CC5A"/>
<stop offset="1" stop-color="#FFC252"/>
</linearGradient>
<linearGradient id="paint7_linear_807_34320" x1="73.9316" y1="65.5245" x2="84.1318" y2="65.5245" gradientUnits="userSpaceOnUse">
<stop stop-color="#F2CC5A"/>
<stop offset="1" stop-color="#FFC252"/>
</linearGradient>
<linearGradient id="paint8_linear_807_34320" x1="91.418" y1="77.8475" x2="101.622" y2="77.8475" gradientUnits="userSpaceOnUse">
<stop stop-color="#F2CC5A"/>
<stop offset="1" stop-color="#FFC252"/>
</linearGradient>
<linearGradient id="paint9_linear_807_34320" x1="79.5352" y1="76.1595" x2="89.7321" y2="76.1595" gradientUnits="userSpaceOnUse">
<stop stop-color="#F2CC5A"/>
<stop offset="1" stop-color="#FFC252"/>
</linearGradient>
<linearGradient id="paint10_linear_807_34320" x1="86.0352" y1="66.7917" x2="96.0254" y2="66.7917" gradientUnits="userSpaceOnUse">
<stop stop-color="#F2CC5A"/>
<stop offset="1" stop-color="#FFC252"/>
</linearGradient>
<linearGradient id="paint11_linear_807_34320" x1="74.1504" y1="65.103" x2="84.1314" y2="65.103" gradientUnits="userSpaceOnUse">
<stop stop-color="#F2CC5A"/>
<stop offset="1" stop-color="#FFC252"/>
</linearGradient>
<linearGradient id="paint12_linear_807_34320" x1="91.6348" y1="77.4282" x2="101.625" y2="77.4282" gradientUnits="userSpaceOnUse">
<stop stop-color="#F2CC5A"/>
<stop offset="1" stop-color="#FFC252"/>
</linearGradient>
<linearGradient id="paint13_linear_807_34320" x1="79.75" y1="75.739" x2="89.731" y2="75.739" gradientUnits="userSpaceOnUse">
<stop stop-color="#F2CC5A"/>
<stop offset="1" stop-color="#FFC252"/>
</linearGradient>
<linearGradient id="paint14_linear_807_34320" x1="66.4434" y1="46.0197" x2="93.0314" y2="46.0197" gradientUnits="userSpaceOnUse">
<stop stop-color="#F2CC5A"/>
<stop offset="1" stop-color="#FFC252"/>
</linearGradient>
<linearGradient id="paint15_linear_807_34320" x1="108.551" y1="70.6623" x2="120.464" y2="70.6623" gradientUnits="userSpaceOnUse">
<stop stop-color="#F2CC5A"/>
<stop offset="1" stop-color="#FFC252"/>
</linearGradient>
<linearGradient id="paint16_linear_807_34320" x1="67.7871" y1="107.148" x2="160.501" y2="107.148" gradientUnits="userSpaceOnUse">
<stop stop-color="#F2CC5A"/>
<stop offset="1" stop-color="#FFC252"/>
</linearGradient>
<linearGradient id="paint17_linear_807_34320" x1="42.8906" y1="100.738" x2="107.713" y2="100.738" gradientUnits="userSpaceOnUse">
<stop stop-color="#F2CC5A"/>
<stop offset="1" stop-color="#FFC252"/>
</linearGradient>
<linearGradient id="paint18_linear_807_34320" x1="59.1582" y1="101.524" x2="140.824" y2="101.524" gradientUnits="userSpaceOnUse">
<stop stop-color="#F2CC5A"/>
<stop offset="1" stop-color="#FFC252"/>
</linearGradient>
<linearGradient id="paint19_linear_807_34320" x1="36" y1="154" x2="170" y2="154" gradientUnits="userSpaceOnUse">
<stop stop-color="#F2CC5A"/>
<stop offset="1" stop-color="#FFC252"/>
</linearGradient>
</defs>
</svg>
