<svg width="22" height="22" viewBox="0 0 22 22" fill="none" xmlns="http://www.w3.org/2000/svg">
<path d="M5.52637 16.9728V17.968C5.52637 18.0999 5.57863 18.2268 5.67217 18.3199C5.76525 18.4134 5.89211 18.4657 6.024 18.4657H15.9764C16.1083 18.4657 16.2351 18.4134 16.3282 18.3199C16.4217 18.2268 16.474 18.0999 16.474 17.968V16.9728C16.474 15.5213 15.8973 14.1289 14.8707 13.1023C13.8441 12.0757 12.4517 11.499 11.0002 11.499C9.54864 11.499 8.1563 12.0757 7.12969 13.1023C6.10311 14.1289 5.52637 15.5213 5.52637 16.9728Z" fill="#FFBB55"/>
<path d="M1.04744 18.4654H4.61634C4.56013 18.3072 4.53075 18.139 4.53075 17.9678V16.9726C4.53075 15.836 4.82981 14.7303 5.38416 13.7609C4.96866 13.5858 4.51236 13.4893 4.03312 13.4893C2.10936 13.4893 0.549805 15.0488 0.549805 16.9726V17.9678C0.549805 18.2425 0.772732 18.4654 1.04744 18.4654Z" fill="#FFBB55"/>
<path d="M17.9663 13.4893C17.487 13.4893 17.0307 13.5858 16.6152 13.7609C17.1696 14.7303 17.4686 15.836 17.4686 16.9726V17.9678C17.4686 18.139 17.4393 18.3072 17.3831 18.4654H20.952C21.2267 18.4654 21.4496 18.2425 21.4496 17.9678V16.9726C21.4496 15.0488 19.89 13.4893 17.9663 13.4893Z" fill="#FFBB55"/>
<path d="M5.77228 11.7859C6.75337 10.824 6.76897 9.24894 5.80712 8.26786C4.84527 7.28677 3.2702 7.27117 2.28911 8.23302C1.30802 9.19487 1.29243 10.7699 2.25428 11.751C3.21613 12.7321 4.7912 12.7477 5.77228 11.7859Z" fill="#FFBB55"/>
<path d="M19.7083 11.7909C20.6895 10.829 20.7051 9.25376 19.7431 8.27259C18.7812 7.29141 17.206 7.27582 16.2248 8.23775C15.2436 9.19969 15.228 10.7749 16.19 11.7561C17.1519 12.7372 18.7271 12.7528 19.7083 11.7909Z" fill="#FFBB55"/>
<path d="M11.5515 10.454C13.4503 10.1481 14.7415 8.36088 14.4357 6.46214C14.1298 4.56339 12.3426 3.27212 10.4438 3.578C8.54509 3.88387 7.25382 5.67107 7.5597 7.56981C7.86557 9.46856 9.65277 10.7598 11.5515 10.454Z" fill="#FFBB55"/>
</svg>
