<svg width="16" height="16" viewBox="0 0 16 16" fill="none" xmlns="http://www.w3.org/2000/svg">
<path d="M7.5 12.1673H6C5.26667 12.1673 4.66667 12.7673 4.66667 13.5006V13.6673H4C3.72667 13.6673 3.5 13.894 3.5 14.1673C3.5 14.4406 3.72667 14.6673 4 14.6673H12C12.2733 14.6673 12.5 14.4406 12.5 14.1673C12.5 13.894 12.2733 13.6673 12 13.6673H11.3333V13.5006C11.3333 12.7673 10.7333 12.1673 10 12.1673H8.5V10.6406C8.33333 10.6606 8.16667 10.6673 8 10.6673C7.83333 10.6673 7.66667 10.6606 7.5 10.6406V12.1673Z" fill="#00B7C4"/>
<path d="M12.3205 7.7587C12.7605 7.59203 13.1472 7.3187 13.4538 7.01203C14.0738 6.32537 14.4805 5.50536 14.4805 4.54536C14.4805 3.58536 13.7272 2.83203 12.7672 2.83203H12.3938C11.9605 1.94536 11.0538 1.33203 10.0005 1.33203H6.00051C4.94717 1.33203 4.04051 1.94536 3.60717 2.83203H3.23384C2.27384 2.83203 1.52051 3.58536 1.52051 4.54536C1.52051 5.50536 1.92717 6.32537 2.54717 7.01203C2.85384 7.3187 3.24051 7.59203 3.68051 7.7587C4.37384 9.46537 6.04051 10.6654 8.00051 10.6654C9.96051 10.6654 11.6272 9.46537 12.3205 7.7587ZM9.89384 5.63203L9.48051 6.1387C9.41384 6.21203 9.36718 6.3587 9.37384 6.4587L9.41384 7.11203C9.44051 7.51203 9.15384 7.7187 8.78051 7.57203L8.17384 7.33203C8.08051 7.2987 7.92051 7.2987 7.82717 7.33203L7.22051 7.57203C6.84717 7.7187 6.56051 7.51203 6.58717 7.11203L6.62717 6.4587C6.63384 6.3587 6.58717 6.21203 6.52051 6.1387L6.10717 5.63203C5.84717 5.32536 5.96051 4.98536 6.34718 4.88536L6.98051 4.72536C7.08051 4.6987 7.20051 4.60536 7.25384 4.5187L7.60717 3.97203C7.82717 3.63203 8.17384 3.63203 8.39384 3.97203L8.74717 4.5187C8.80051 4.60536 8.92051 4.6987 9.02051 4.72536L9.65384 4.88536C10.0405 4.98536 10.1538 5.32536 9.89384 5.63203Z" fill="#00B7C4"/>
</svg>
