<svg width="151" height="150" viewBox="0 0 151 150" fill="none" xmlns="http://www.w3.org/2000/svg">
<path fill-rule="evenodd" clip-rule="evenodd" d="M72.9376 16.613C72.6092 16.4775 72.2574 16.4081 71.9023 16.4087L71.8994 16.4087C71.1823 16.4094 70.4947 16.6945 69.9877 17.2016C69.4809 17.7083 69.1958 18.3953 69.1949 19.112V22.5149H62.4697L62.4697 19.1074C62.4719 16.6087 63.4654 14.213 65.2323 12.4462C66.9988 10.6796 69.394 9.68613 71.8922 9.6836L71.8935 9.6836C73.1319 9.68184 74.3584 9.92408 75.5031 10.3965C76.6487 10.8693 77.6898 11.5633 78.5669 12.4389C79.444 13.3144 80.1398 14.3544 80.6146 15.4991C81.0893 16.6439 81.3337 17.871 81.3337 19.1103V22.389H74.6085V19.1103C74.6085 18.7552 74.5385 18.4035 74.4024 18.0754C74.2664 17.7473 74.067 17.4493 73.8156 17.1984C73.5642 16.9474 73.2659 16.7485 72.9376 16.613ZM71.8935 9.6836L71.8922 9.6836L71.8935 9.6836Z" fill="url(#paint0_linear_1836_9269)"/>
<path d="M72.3099 132.409C86.2482 132.409 97.5475 121.11 97.5475 107.171C97.5475 93.2329 86.2482 81.9336 72.3099 81.9336C58.3715 81.9336 47.0723 93.2329 47.0723 107.171C47.0723 121.11 58.3715 132.409 72.3099 132.409Z" fill="url(#paint1_linear_1836_9269)"/>
<path d="M112.132 79.3473V59.985C112.132 49.4239 107.936 39.2952 100.468 31.8274C93.0006 24.3595 82.872 20.1641 72.3108 20.1641C61.7496 20.1641 51.621 24.3595 44.1531 31.8274C36.6852 39.2952 32.4898 49.4239 32.4898 59.985V79.3473C32.4903 83.7957 31.2319 88.1533 28.8601 91.9166C26.4883 95.6799 23.1 98.6952 19.0868 100.614C18.1644 101.053 17.3857 101.745 16.8415 102.61C16.2973 103.475 16.0099 104.476 16.0127 105.498V105.603C16.012 105.972 16.0841 106.337 16.2248 106.678C16.3656 107.019 16.5722 107.329 16.8329 107.591C17.0935 107.852 17.4032 108.059 17.744 108.2C18.0849 108.342 18.4502 108.414 18.8192 108.414H125.797C126.166 108.414 126.532 108.342 126.872 108.2C127.213 108.059 127.523 107.852 127.784 107.591C128.044 107.329 128.251 107.019 128.392 106.678C128.532 106.337 128.604 105.972 128.604 105.603V105.498C128.604 104.479 128.316 103.482 127.773 102.62C127.23 101.759 126.454 101.068 125.535 100.63C121.519 98.7097 118.129 95.692 115.757 91.9257C113.385 88.1594 112.128 83.7984 112.132 79.3473Z" fill="url(#paint2_linear_1836_9269)"/>
<path d="M130.574 41.7876C131.062 39.7632 133.942 39.7632 134.431 41.7876C134.605 42.511 135.17 43.0759 135.894 43.2505C137.918 43.7392 137.918 46.6187 135.894 47.1074C135.17 47.282 134.605 47.8469 134.431 48.5703C133.942 50.5947 131.062 50.5947 130.574 48.5703C130.399 47.8469 129.834 47.282 129.111 47.1074C127.086 46.6187 127.086 43.7392 129.111 43.2505C129.834 43.0759 130.399 42.511 130.574 41.7876Z" fill="#FF9F2C"/>
<path d="M24.8003 120.381C25.289 118.357 28.1685 118.357 28.6572 120.381C28.8318 121.105 29.3967 121.67 30.1201 121.844C32.1445 122.333 32.1445 125.212 30.1201 125.701C29.3967 125.876 28.8318 126.441 28.6572 127.164C28.1685 129.188 25.289 129.188 24.8003 127.164C24.6257 126.441 24.0608 125.876 23.3374 125.701C21.313 125.212 21.313 122.333 23.3374 121.844C24.0608 121.67 24.6257 121.105 24.8003 120.381Z" fill="#FF9F2C"/>
<circle cx="101.624" cy="36.7021" r="16.6143" fill="url(#paint3_linear_1836_9269)"/>
<circle cx="101.624" cy="36.7021" r="17.6143" stroke="white" stroke-opacity="0.5" stroke-width="2"/>
<g filter="url(#filter0_d_1836_9269)">
<path d="M101.621 44.0227C100.4 44.018 99.3486 43.7173 98.468 43.1207C97.592 42.5241 96.9173 41.66 96.4438 40.5284C95.9751 39.3968 95.743 38.0355 95.7478 36.4446C95.7478 34.8584 95.9822 33.5066 96.4509 32.3892C96.9244 31.2718 97.5991 30.4219 98.4751 29.8395C99.3557 29.2524 100.405 28.9588 101.621 28.9588C102.838 28.9588 103.885 29.2524 104.761 29.8395C105.641 30.4266 106.318 31.2789 106.792 32.3963C107.265 33.509 107.5 34.8584 107.495 36.4446C107.495 38.0402 107.258 39.4039 106.785 40.5355C106.316 41.6671 105.644 42.5312 104.768 43.1278C103.892 43.7244 102.843 44.0227 101.621 44.0227ZM101.621 41.473C102.455 41.473 103.12 41.054 103.617 40.2159C104.114 39.3778 104.36 38.1207 104.356 36.4446C104.356 35.3414 104.242 34.4228 104.015 33.6889C103.792 32.955 103.475 32.4034 103.063 32.0341C102.656 31.6648 102.175 31.4801 101.621 31.4801C100.793 31.4801 100.13 31.8944 99.6327 32.723C99.1356 33.5516 98.8846 34.7921 98.8799 36.4446C98.8799 37.562 98.9912 38.4948 99.2137 39.2429C99.441 39.9863 99.7606 40.545 100.172 40.919C100.584 41.2884 101.067 41.473 101.621 41.473Z" fill="white"/>
</g>
<defs>
<filter id="filter0_d_1836_9269" x="94.7402" y="28.959" width="13.7617" height="17.0645" filterUnits="userSpaceOnUse" color-interpolation-filters="sRGB">
<feFlood flood-opacity="0" result="BackgroundImageFix"/>
<feColorMatrix in="SourceAlpha" type="matrix" values="0 0 0 0 0 0 0 0 0 0 0 0 0 0 0 0 0 0 127 0" result="hardAlpha"/>
<feOffset dy="1"/>
<feGaussianBlur stdDeviation="0.5"/>
<feComposite in2="hardAlpha" operator="out"/>
<feColorMatrix type="matrix" values="0 0 0 0 0 0 0 0 0 0 0 0 0 0 0 0 0 0 0.25 0"/>
<feBlend mode="normal" in2="BackgroundImageFix" result="effect1_dropShadow_1836_9269"/>
<feBlend mode="normal" in="SourceGraphic" in2="effect1_dropShadow_1836_9269" result="shape"/>
</filter>
<linearGradient id="paint0_linear_1836_9269" x1="62.4697" y1="16.0992" x2="81.3337" y2="16.0992" gradientUnits="userSpaceOnUse">
<stop stop-color="#FFDF70"/>
<stop offset="1" stop-color="#FFBA93"/>
</linearGradient>
<linearGradient id="paint1_linear_1836_9269" x1="75" y1="146" x2="74" y2="75.5" gradientUnits="userSpaceOnUse">
<stop stop-color="#F6C71E"/>
<stop offset="1" stop-color="#F49A67"/>
</linearGradient>
<linearGradient id="paint2_linear_1836_9269" x1="16.0127" y1="64.2892" x2="128.604" y2="64.2892" gradientUnits="userSpaceOnUse">
<stop stop-color="#FFDF70"/>
<stop offset="1" stop-color="#FFBA93"/>
</linearGradient>
<linearGradient id="paint3_linear_1836_9269" x1="101.624" y1="20.0879" x2="101.624" y2="53.3164" gradientUnits="userSpaceOnUse">
<stop stop-color="#FF9599"/>
<stop offset="1" stop-color="#DA595E"/>
</linearGradient>
</defs>
</svg>
