<svg width="22" height="22" viewBox="0 0 22 22" fill="none" xmlns="http://www.w3.org/2000/svg">
<path d="M10.3125 16.729H8.25C7.24167 16.729 6.41667 17.554 6.41667 18.5624V18.7915H5.5C5.12417 18.7915 4.8125 19.1032 4.8125 19.479C4.8125 19.8549 5.12417 20.1665 5.5 20.1665H16.5C16.8758 20.1665 17.1875 19.8549 17.1875 19.479C17.1875 19.1032 16.8758 18.7915 16.5 18.7915H15.5833V18.5624C15.5833 17.554 14.7583 16.729 13.75 16.729H11.6875V14.6299C11.4583 14.6574 11.2292 14.6665 11 14.6665C10.7708 14.6665 10.5417 14.6574 10.3125 14.6299V16.729Z" fill="#527DFF"/>
<path d="M16.9398 10.6697C17.5448 10.4405 18.0765 10.0647 18.4982 9.64301C19.3507 8.69884 19.9098 7.57134 19.9098 6.25134C19.9098 4.93134 18.874 3.89551 17.554 3.89551H17.0407C16.4448 2.67634 15.1982 1.83301 13.7498 1.83301H8.24984C6.80151 1.83301 5.55484 2.67634 4.95901 3.89551H4.44568C3.12568 3.89551 2.08984 4.93134 2.08984 6.25134C2.08984 7.57134 2.64901 8.69884 3.50151 9.64301C3.92318 10.0647 4.45484 10.4405 5.05984 10.6697C6.01318 13.0163 8.30484 14.6663 10.9998 14.6663C13.6948 14.6663 15.9865 13.0163 16.9398 10.6697ZM13.6032 7.74551L13.0348 8.44217C12.9432 8.54301 12.879 8.74467 12.8882 8.88217L12.9432 9.78051C12.9798 10.3305 12.5857 10.6147 12.0723 10.413L11.2382 10.083C11.1098 10.0372 10.8898 10.0372 10.7615 10.083L9.92734 10.413C9.41401 10.6147 9.01984 10.3305 9.05651 9.78051L9.11151 8.88217C9.12068 8.74467 9.05651 8.54301 8.96484 8.44217L8.39651 7.74551C8.03901 7.32384 8.19484 6.85634 8.72651 6.71884L9.59734 6.49884C9.73484 6.46217 9.89984 6.33384 9.97318 6.21467L10.459 5.46301C10.7615 4.99551 11.2382 4.99551 11.5407 5.46301L12.0265 6.21467C12.0998 6.33384 12.2648 6.46217 12.4023 6.49884L13.2732 6.71884C13.8048 6.85634 13.9607 7.32384 13.6032 7.74551Z" fill="#527DFF"/>
</svg>
