<svg xmlns="http://www.w3.org/2000/svg" width="59" height="59" viewBox="0 0 59 59" fill="none">
    <rect x="0.625" y="0.625" width="57.75" height="57.75" rx="28.875" fill="white"/>
    <path d="M40.8441 16.0762L29.6182 24.837L18.1357 16.0762V16.0785L18.1496 16.0904V28.3579L29.4887 37.3081L40.8441 28.7035V16.0762Z" fill="#EA4335"/>
    <path d="M43.7928 13.9432L40.8447 16.0742V28.7016L50.1214 21.5793V17.2889C50.1214 17.2889 48.9953 11.1611 43.7928 13.9432Z" fill="#FBBC05"/>
    <path d="M40.8447 28.7053V45.0832H47.9548C47.9548 45.0832 49.978 44.8749 50.1237 42.5686V21.583L40.8447 28.7053Z" fill="#34A853"/>
    <path d="M18.1501 45.0934V28.3556L18.1357 28.3438L18.1501 45.0934Z" fill="#C5221F"/>
    <path d="M18.1358 16.0763L15.2039 13.9571C10.0014 11.175 8.87305 17.3004 8.87305 17.3004V21.5908L18.1358 28.3437V16.0763Z" fill="#C5221F"/>
    <path d="M18.1357 16.0781V28.3456L18.1501 28.3574V16.09L18.1357 16.0781Z" fill="#C5221F"/>
    <path d="M8.87305 21.5918V42.5774C9.0164 44.886 11.0419 45.092 11.0419 45.092H18.152L18.1358 28.3423L8.87305 21.5918Z" fill="#4285F4"/>
</svg>