<svg width="14" height="14" viewBox="0 0 14 14" fill="none" xmlns="http://www.w3.org/2000/svg">
<path d="M6.91591 3.17184C7.44121 2.64654 7.44121 1.79487 6.91591 1.26957C6.39061 0.74427 5.53893 0.74427 5.01364 1.26957C4.48834 1.79487 4.48834 2.64654 5.01364 3.17184C5.53893 3.69714 6.39061 3.69714 6.91591 3.17184Z" fill="#00B7C4"/>
<path d="M11.7728 0.875H7.9622C7.8397 0.875 7.74345 0.97344 7.74345 1.09375C7.74345 1.21406 7.8397 1.3125 7.9622 1.3125H9.30313V2.32531H10.0469C10.1672 2.32531 10.2656 2.42156 10.2656 2.54406C10.2656 2.66437 10.1672 2.76281 10.0469 2.76281H9.30313V3.59844H10.6484C10.7687 3.59844 10.8672 3.69687 10.8672 3.81719C10.8672 3.9375 10.7687 4.03594 10.6484 4.03594H9.30313V4.87155H10.0469C10.1672 4.87155 10.2656 4.96999 10.2656 5.0903C10.2656 5.21063 10.1672 5.30905 10.0469 5.30905H9.30313V6.14468H10.6484C10.7687 6.14468 10.8672 6.24312 10.8672 6.36343C10.8672 6.48375 10.7687 6.58218 10.6484 6.58218H9.30313V7.41781H10.0469C10.1672 7.41781 10.2656 7.51625 10.2656 7.63656C10.2656 7.75687 10.1672 7.85531 10.0469 7.85531H9.30313V8.69093H10.6484C10.7687 8.69093 10.8672 8.78937 10.8672 8.90968C10.8672 9.02999 10.7687 9.12843 10.6484 9.12843H9.30313V9.96406H10.0469C10.1672 9.96406 10.2656 10.0625 10.2656 10.1828C10.2656 10.3031 10.1672 10.4016 10.0469 10.4016H9.30313V11.2372H10.6484C10.7687 11.2372 10.8672 11.3356 10.8672 11.4559C10.8672 11.5784 10.7687 11.6747 10.6484 11.6747H9.30313V12.6875H7.33875C7.40656 12.565 7.44594 12.425 7.44594 12.2763V8.71281C7.54657 8.76094 7.66032 8.78938 7.77844 8.78938C8.20282 8.78938 8.54626 8.44375 8.54626 8.01937V5.44906C8.54626 4.68344 7.925 4.06219 7.15937 4.06219H4.77282C4.00719 4.06219 3.38375 4.68344 3.38375 5.44906V8.01937C3.38375 8.44375 3.72938 8.78938 4.15375 8.78938C4.27188 8.78938 4.38563 8.76313 4.48406 8.71281V12.2763C4.48406 12.425 4.52344 12.565 4.59125 12.6875H2.22656C2.10406 12.6875 2.00781 12.7859 2.00781 12.9063C2.00781 13.0266 2.10406 13.125 2.22656 13.125H11.7728C11.8953 13.125 11.9916 13.0266 11.9916 12.9063V1.09375C11.9916 0.97344 11.8953 0.875 11.7728 0.875Z" fill="#00B7C4"/>
</svg>
