<svg xmlns="http://www.w3.org/2000/svg" width="59" height="59" viewBox="0 0 59 59" fill="none">
    <rect x="4.23438" y="4.23438" width="50.5312" height="50.5312" rx="14.4375" fill="url(#paint0_radial_570_21488)"/>
    <rect x="4.23438" y="4.23438" width="50.5312" height="50.5312" rx="14.4375" fill="url(#paint1_radial_570_21488)"/>
    <rect x="4.23438" y="4.23438" width="50.5312" height="50.5312" rx="14.4375" fill="url(#paint2_radial_570_21488)"/>
    <path d="M42.1328 19.5742C42.1328 21.0693 40.9208 22.2812 39.4258 22.2812C37.9307 22.2812 36.7188 21.0693 36.7188 19.5742C36.7188 18.0792 37.9307 16.8672 39.4258 16.8672C40.9208 16.8672 42.1328 18.0792 42.1328 19.5742Z" fill="white"/>
    <path fill-rule="evenodd" clip-rule="evenodd" d="M29.5 38.5234C34.4835 38.5234 38.5234 34.4835 38.5234 29.5C38.5234 24.5165 34.4835 20.4766 29.5 20.4766C24.5165 20.4766 20.4766 24.5165 20.4766 29.5C20.4766 34.4835 24.5165 38.5234 29.5 38.5234ZM29.5 34.9141C32.4901 34.9141 34.9141 32.4901 34.9141 29.5C34.9141 26.5099 32.4901 24.0859 29.5 24.0859C26.5099 24.0859 24.0859 26.5099 24.0859 29.5C24.0859 32.4901 26.5099 34.9141 29.5 34.9141Z" fill="white"/>
    <path fill-rule="evenodd" clip-rule="evenodd" d="M11.4531 28.7781C11.4531 22.7138 11.4531 19.6816 12.6333 17.3654C13.6714 15.3279 15.3279 13.6714 17.3654 12.6333C19.6816 11.4531 22.7138 11.4531 28.7781 11.4531H30.2219C36.2862 11.4531 39.3184 11.4531 41.6346 12.6333C43.6721 13.6714 45.3286 15.3279 46.3667 17.3654C47.5469 19.6816 47.5469 22.7138 47.5469 28.7781V30.2219C47.5469 36.2862 47.5469 39.3184 46.3667 41.6346C45.3286 43.6721 43.6721 45.3286 41.6346 46.3667C39.3184 47.5469 36.2862 47.5469 30.2219 47.5469H28.7781C22.7138 47.5469 19.6816 47.5469 17.3654 46.3667C15.3279 45.3286 13.6714 43.6721 12.6333 41.6346C11.4531 39.3184 11.4531 36.2862 11.4531 30.2219V28.7781ZM28.7781 15.0625H30.2219C33.3136 15.0625 35.4153 15.0653 37.0398 15.198C38.6223 15.3273 39.4315 15.5617 39.996 15.8493C41.3543 16.5414 42.4586 17.6457 43.1507 19.004C43.4383 19.5685 43.6727 20.3777 43.802 21.9602C43.9347 23.5847 43.9375 25.6864 43.9375 28.7781V30.2219C43.9375 33.3136 43.9347 35.4153 43.802 37.0398C43.6727 38.6223 43.4383 39.4315 43.1507 39.996C42.4586 41.3543 41.3543 42.4586 39.996 43.1507C39.4315 43.4383 38.6223 43.6727 37.0398 43.802C35.4153 43.9347 33.3136 43.9375 30.2219 43.9375H28.7781C25.6864 43.9375 23.5847 43.9347 21.9602 43.802C20.3777 43.6727 19.5685 43.4383 19.004 43.1507C17.6457 42.4586 16.5414 41.3543 15.8493 39.996C15.5617 39.4315 15.3273 38.6223 15.198 37.0398C15.0653 35.4153 15.0625 33.3136 15.0625 30.2219V28.7781C15.0625 25.6864 15.0653 23.5847 15.198 21.9602C15.3273 20.3777 15.5617 19.5685 15.8493 19.004C16.5414 17.6457 17.6457 16.5414 19.004 15.8493C19.5685 15.5617 20.3777 15.3273 21.9602 15.198C23.5847 15.0653 25.6864 15.0625 28.7781 15.0625Z" fill="white"/>
    <defs>
        <radialGradient id="paint0_radial_570_21488" cx="0" cy="0" r="1" gradientUnits="userSpaceOnUse" gradientTransform="translate(22.2812 42.1328) rotate(-55.3758) scale(46.0549)">
            <stop stop-color="#B13589"/>
            <stop offset="0.79309" stop-color="#C62F94"/>
            <stop offset="1" stop-color="#8A3AC8"/>
        </radialGradient>
        <radialGradient id="paint1_radial_570_21488" cx="0" cy="0" r="1" gradientUnits="userSpaceOnUse" gradientTransform="translate(20.4766 56.5703) rotate(-65.1363) scale(40.7756)">
            <stop stop-color="#E0E8B7"/>
            <stop offset="0.444662" stop-color="#FB8A2E"/>
            <stop offset="0.71474" stop-color="#E2425C"/>
            <stop offset="1" stop-color="#E2425C" stop-opacity="0"/>
        </radialGradient>
        <radialGradient id="paint2_radial_570_21488" cx="0" cy="0" r="1" gradientUnits="userSpaceOnUse" gradientTransform="translate(1.52735 6.03906) rotate(-8.1301) scale(70.1859 15.012)">
            <stop offset="0.156701" stop-color="#406ADC"/>
            <stop offset="0.467799" stop-color="#6A45BE"/>
            <stop offset="1" stop-color="#6A45BE" stop-opacity="0"/>
        </radialGradient>
    </defs>
</svg>