<svg width="22" height="22" viewBox="0 0 22 22" fill="none" xmlns="http://www.w3.org/2000/svg">
<path d="M4.46867 7.56273H5.84367C6.03273 7.56273 6.18742 7.40805 6.18742 7.21898V6.41805C6.18742 6.0743 5.99492 5.59648 5.49992 5.4418V4.82992L7.09492 5.36273L6.55179 6.99555C6.52085 7.0918 6.53117 7.19492 6.58273 7.28086C6.63429 7.3668 6.72023 7.42523 6.81992 7.44242L10.9449 8.12992C10.9621 8.13336 10.9827 8.13336 10.9999 8.13336C11.0171 8.13336 11.0377 8.13336 11.0549 8.12992L15.1799 7.44242C15.2796 7.42523 15.3655 7.3668 15.4171 7.28086C15.4687 7.19492 15.479 7.0918 15.448 6.99555L14.9049 5.36273L17.6377 4.4518C17.7752 4.40711 17.868 4.28336 17.8715 4.13898C17.8784 3.99461 17.7924 3.86398 17.6618 3.80898L11.1305 1.05898C11.0446 1.02461 10.9484 1.02461 10.8624 1.05898L4.33117 3.80898C4.20054 3.86398 4.1146 3.99461 4.12148 4.13898C4.12835 4.28336 4.22117 4.40711 4.35523 4.4518L4.81242 4.60305V5.4418C4.31742 5.59648 4.12492 6.0743 4.12492 6.41805V7.21898C4.12492 7.40805 4.2796 7.56273 4.46867 7.56273ZM7.72054 4.49305C8.20523 4.18367 9.27429 3.66805 10.9999 3.66805C12.7255 3.66805 13.7946 4.18711 14.2793 4.49305C14.4409 4.59617 14.4855 4.8093 14.3859 4.96742C14.3205 5.07055 14.2105 5.12555 14.0971 5.12555C14.0352 5.12555 13.9699 5.10836 13.9115 5.07055C13.4921 4.80242 12.5537 4.35211 11.0034 4.35211C9.45304 4.35211 8.5146 4.80242 8.09523 5.07055C7.9371 5.17367 7.72398 5.12555 7.62085 4.96398C7.51429 4.8093 7.56242 4.59617 7.72054 4.49305ZM4.81242 6.42148C4.81585 6.26336 4.88117 6.0743 5.15617 6.0743C5.4346 6.0743 5.49648 6.26336 5.49992 6.41805V6.87523H4.81242V6.42148Z" fill="#25C173"/>
<path d="M18.1947 9.95136V9.49074C18.1947 9.24668 18.0984 9.01636 17.9231 8.84792C17.7478 8.67605 17.5106 8.58324 17.27 8.59355C13.8634 8.6898 11.5947 9.60074 11 9.86886C10.4053 9.60074 8.14 8.69324 4.73 8.59355C4.4825 8.58324 4.25219 8.67605 4.07687 8.84792C3.90156 9.0198 3.80531 9.24668 3.80531 9.49074V9.95136C3.20031 10.1061 2.75 10.6492 2.75 11.3023V18.6826C2.75 19.4526 3.37562 20.0817 4.14906 20.0817H17.8544C18.6244 20.0817 19.2534 19.456 19.2534 18.6826V11.3023C19.25 10.6492 18.7997 10.1061 18.1947 9.95136ZM17.2872 9.28105C17.3456 9.28105 17.4006 9.30167 17.4419 9.34292C17.4831 9.38417 17.5072 9.43574 17.5072 9.49418V17.8748C17.5072 17.9882 17.4178 18.081 17.3044 18.0845C14.3516 18.1635 12.2513 18.8545 11.3403 19.2154V10.4704C11.9763 10.1989 14.1453 9.37042 17.2872 9.28105ZM4.49281 9.49074C4.49281 9.4323 4.51688 9.38074 4.55813 9.33949C4.59938 9.30167 4.65094 9.27761 4.70937 9.27761H4.71625C7.85813 9.36699 10.0272 10.1954 10.6597 10.467V19.2086C9.75219 18.8476 7.64844 18.1567 4.69562 18.0776C4.58562 18.0742 4.49281 17.9814 4.49281 17.8679V9.49074Z" fill="#25C173"/>
<path d="M5.44131 10.8623C5.78506 10.8864 6.13225 10.9173 6.476 10.9586C6.48975 10.9586 6.5035 10.962 6.51725 10.962C6.68913 10.962 6.83694 10.8348 6.85756 10.6595C6.88163 10.4705 6.74756 10.2986 6.5585 10.278C6.201 10.2333 5.84006 10.2023 5.486 10.1783C5.29694 10.168 5.13194 10.3089 5.12163 10.498C5.11131 10.687 5.25225 10.8486 5.44131 10.8623Z" fill="#25C173"/>
<path d="M5.122 11.5844C5.10825 11.7735 5.25263 11.9384 5.44169 11.9488C6.08794 11.99 6.73075 12.0656 7.35294 12.1722C7.37356 12.1756 7.39075 12.1756 7.41137 12.1756C7.57637 12.1756 7.72075 12.0588 7.74825 11.8903C7.77919 11.7047 7.65544 11.5259 7.46637 11.495C6.82356 11.385 6.15669 11.3059 5.48638 11.2613C5.29731 11.2509 5.13575 11.3953 5.122 11.5844Z" fill="#25C173"/>
<path d="M5.122 13.4306C5.10825 13.6196 5.25263 13.7846 5.44169 13.7949C7.26356 13.9153 8.697 14.2728 9.577 14.5512C9.61138 14.5615 9.64575 14.5684 9.68013 14.5684C9.8245 14.5684 9.962 14.4756 10.0067 14.3278C10.0651 14.1456 9.962 13.9531 9.78325 13.8981C8.86887 13.6093 7.377 13.2381 5.48638 13.1109C5.29731 13.1006 5.13575 13.2415 5.122 13.4306Z" fill="#25C173"/>
<path d="M9.78325 15.1803C8.86887 14.8915 7.38044 14.5203 5.48638 14.3931C5.29731 14.3828 5.13231 14.5237 5.122 14.7128C5.10825 14.9019 5.25263 15.0669 5.44169 15.0772C7.26356 15.1975 8.697 15.555 9.577 15.8334C9.61138 15.8437 9.64575 15.8506 9.68013 15.8506C9.8245 15.8506 9.962 15.7578 10.0067 15.61C10.0651 15.4312 9.96544 15.2353 9.78325 15.1803Z" fill="#25C173"/>
<path d="M9.78325 16.5172C8.86887 16.2285 7.377 15.8572 5.48638 15.73C5.29388 15.7197 5.13231 15.8606 5.122 16.0497C5.10825 16.2388 5.25263 16.4038 5.44169 16.4141C7.26356 16.5344 8.697 16.8919 9.577 17.1703C9.61138 17.1806 9.64575 17.1875 9.68013 17.1875C9.8245 17.1875 9.962 17.0947 10.0067 16.9469C10.0651 16.7681 9.96544 16.5722 9.78325 16.5172Z" fill="#25C173"/>
<path d="M12.3169 14.5684C12.3513 14.5684 12.3857 14.5649 12.42 14.5512C13.3 14.2728 14.73 13.9153 16.5553 13.7949C16.7444 13.7812 16.8888 13.6196 16.875 13.4306C16.8613 13.2415 16.6997 13.1006 16.5107 13.1109C14.62 13.2346 13.1316 13.6093 12.2138 13.8981C12.0316 13.9565 11.9319 14.149 11.9903 14.3278C12.0385 14.4756 12.1725 14.5684 12.3169 14.5684Z" fill="#25C173"/>
<path d="M12.3169 15.8506C12.3513 15.8506 12.3857 15.8472 12.42 15.8334C13.3 15.555 14.73 15.1975 16.5553 15.0772C16.7444 15.0634 16.8888 14.9019 16.875 14.7128C16.8613 14.5237 16.6963 14.3828 16.5107 14.3931C14.62 14.5203 13.1316 14.8915 12.2138 15.1803C12.0316 15.2387 11.9319 15.4312 11.9903 15.61C12.0385 15.7578 12.1725 15.8506 12.3169 15.8506Z" fill="#25C173"/>
<path d="M12.3169 17.1879C12.3513 17.1879 12.3857 17.1845 12.42 17.1707C13.3 16.8923 14.73 16.5348 16.5553 16.4145C16.7444 16.4007 16.8888 16.2391 16.875 16.0501C16.8613 15.861 16.6997 15.7166 16.5107 15.7304C14.62 15.8541 13.1316 16.2288 12.2138 16.5176C12.0316 16.576 11.9319 16.7685 11.9903 16.9473C12.0385 17.0951 12.1725 17.1879 12.3169 17.1879Z" fill="#25C173"/>
</svg>
