<svg xmlns="http://www.w3.org/2000/svg" width="59" height="59" viewBox="0 0 59 59" fill="none">
    <rect x="4.23438" y="4.23438" width="50.5312" height="50.5312" rx="25.2656" fill="#1275B1"/>
    <path d="M23.3976 18.1163C23.3976 19.8029 21.9357 21.1701 20.1324 21.1701C18.3291 21.1701 16.8672 19.8029 16.8672 18.1163C16.8672 16.4297 18.3291 15.0625 20.1324 15.0625C21.9357 15.0625 23.3976 16.4297 23.3976 18.1163Z" fill="white"/>
    <path d="M17.3137 23.4148H22.8952V40.3281H17.3137V23.4148Z" fill="white"/>
    <path d="M31.8814 23.4148H26.2999V40.3281H31.8814C31.8814 40.3281 31.8814 35.0036 31.8814 31.6744C31.8814 29.6762 32.5637 27.6692 35.2862 27.6692C38.3629 27.6692 38.3443 30.2842 38.33 32.3101C38.3112 34.9582 38.356 37.6605 38.356 40.3281H43.9375V31.4016C43.8902 25.7018 42.405 23.0755 37.5188 23.0755C34.617 23.0755 32.8183 24.3928 31.8814 25.5847V23.4148Z" fill="white"/>
</svg>