<svg width="14" height="14" viewBox="0 0 14 14" fill="none" xmlns="http://www.w3.org/2000/svg">
<path d="M12.0286 4.92982C11.4161 2.23482 9.0653 1.02148 7.0003 1.02148C7.0003 1.02148 7.0003 1.02148 6.99447 1.02148C4.9353 1.02148 2.57863 2.22898 1.96613 4.92398C1.28363 7.93398 3.12697 10.4832 4.7953 12.0873C5.41363 12.6823 6.20697 12.9798 7.0003 12.9798C7.79363 12.9798 8.58697 12.6823 9.19947 12.0873C10.8678 10.4832 12.7111 7.93982 12.0286 4.92982ZM7.0003 7.85232C5.9853 7.85232 5.1628 7.02982 5.1628 6.01482C5.1628 4.99982 5.9853 4.17732 7.0003 4.17732C8.0153 4.17732 8.8378 4.99982 8.8378 6.01482C8.8378 7.02982 8.0153 7.85232 7.0003 7.85232Z" fill="#00B7C4"/>
</svg>
