<svg width="101" height="100" viewBox="0 0 101 100" fill="none" xmlns="http://www.w3.org/2000/svg">
<path d="M15.0801 37.5V22.9167C15.0801 21.8116 15.5191 20.7518 16.3005 19.9704C17.0819 19.189 18.1417 18.75 19.2467 18.75H38.6842C39.5858 18.75 40.463 19.0424 41.1843 19.5833L47.3092 24.1667C48.0305 24.7076 48.9077 25 49.8092 25H81.7468C82.8518 25 83.9116 25.439 84.693 26.2204C85.4744 27.0018 85.9134 28.0616 85.9134 29.1667V37.5H15.0801Z" fill="url(#paint0_linear_807_36628)"/>
<path d="M90.0803 39.9168L83.8303 77.4168C83.7504 77.9098 83.4961 78.3577 83.1137 78.6789C82.7313 79.0001 82.2463 79.1733 81.7469 79.1668H19.2469C18.7476 79.1733 18.2625 79.0001 17.8801 78.6789C17.4977 78.3577 17.2434 77.9098 17.1636 77.4168L10.9136 39.9168C10.8649 39.6167 10.8825 39.3095 10.9652 39.0169C11.0479 38.7243 11.1936 38.4533 11.3921 38.223C11.5907 37.9927 11.8372 37.8087 12.1144 37.6838C12.3917 37.5589 12.6929 37.4963 12.9969 37.5002H87.9969C88.301 37.4963 88.6022 37.5589 88.8794 37.6838C89.1567 37.8087 89.4032 37.9927 89.6017 38.223C89.8003 38.4533 89.946 38.7243 90.0286 39.0169C90.1113 39.3095 90.1289 39.6167 90.0803 39.9168Z" fill="url(#paint1_linear_807_36628)"/>
<path d="M80.7685 5.64866C78.8935 3.41949 75.4977 1.75282 73.4144 3.71115C71.331 1.77365 67.9977 3.37782 66.0602 5.64866C63.831 8.33616 63.456 11.6278 65.206 13.107C66.956 14.5862 70.206 13.6695 72.4352 11.0237C74.0602 9.08616 72.7686 9.08616 74.3936 11.0237C76.6227 13.6695 79.8519 14.5862 81.6227 13.107C83.3935 11.6278 82.9977 8.33616 80.7685 5.64866Z" fill="#638AFF"/>
<path d="M73.4128 14.584C75.7139 14.584 77.5794 11.7858 77.5794 8.33398C77.5794 4.8822 75.7139 2.08398 73.4128 2.08398C71.1116 2.08398 69.2461 4.8822 69.2461 8.33398C69.2461 11.7858 71.1116 14.584 73.4128 14.584Z" fill="url(#paint2_linear_807_36628)"/>
<path d="M83.8301 93.5013C83.8211 94.371 83.5567 95.2189 83.0698 95.9396C82.583 96.6603 81.895 97.222 81.0915 97.555C80.288 97.8879 79.4044 97.9774 78.5504 97.8123C77.6965 97.6472 76.9099 97.2348 76.2884 96.6263L65.0801 85.418L71.3301 79.168L82.5384 90.3763C82.9493 90.7861 83.2751 91.2733 83.4967 91.8096C83.7184 92.346 83.8317 92.9209 83.8301 93.5013Z" fill="url(#paint3_linear_807_36628)"/>
<path d="M67.7769 76.475L62.3852 81.8667C61.5717 82.6803 61.5717 83.9994 62.3852 84.813L63.608 86.0357C64.4215 86.8493 65.7406 86.8493 66.5542 86.0357L71.9459 80.644C72.7595 79.8304 72.7595 78.5113 71.9459 77.6977L70.7232 76.475C69.9096 75.6614 68.5905 75.6614 67.7769 76.475Z" fill="url(#paint4_linear_807_36628)"/>
<path d="M52.5794 87.5007C64.0854 87.5007 73.4128 78.1733 73.4128 66.6673C73.4128 55.1614 64.0854 45.834 52.5794 45.834C41.0735 45.834 31.7461 55.1614 31.7461 66.6673C31.7461 78.1733 41.0735 87.5007 52.5794 87.5007Z" fill="url(#paint5_linear_807_36628)"/>
<path d="M52.5788 83.3333C61.7835 83.3333 69.2454 75.8714 69.2454 66.6667C69.2454 57.4619 61.7835 50 52.5788 50C43.374 50 35.9121 57.4619 35.9121 66.6667C35.9121 75.8714 43.374 83.3333 52.5788 83.3333Z" fill="url(#paint6_linear_807_36628)"/>
<path d="M52.5814 70.8348C49.6022 70.8348 49.8106 65.6057 53.2481 64.4807C53.6109 64.3581 53.9329 64.1379 54.1788 63.8443C54.4246 63.5507 54.5848 63.1949 54.6416 62.8162C54.6985 62.4375 54.6499 62.0505 54.5011 61.6976C54.3524 61.3447 54.1092 61.0396 53.7984 60.8159C53.4875 60.5922 53.1211 60.4585 52.7392 60.4295C52.3573 60.4005 51.9749 60.4773 51.6338 60.6515C51.2928 60.8257 51.0063 61.0905 50.806 61.4169C50.6056 61.7433 50.4991 62.1185 50.4981 62.5015C50.4981 63.054 50.2786 63.5839 49.8879 63.9746C49.4972 64.3653 48.9673 64.5848 48.4147 64.5848C44.4356 64.5848 46.3314 56.2515 52.5814 56.2515C54.0795 56.2188 55.5395 56.7254 56.6953 57.6791C57.8511 58.6327 58.6259 59.9699 58.8783 61.4469C59.1308 62.9239 58.8443 64.4425 58.0708 65.7259C57.2974 67.0093 56.0886 67.9722 54.6647 68.439V68.7515C54.6647 69.304 54.4452 69.8339 54.0545 70.2246C53.6638 70.6153 53.1339 70.8348 52.5814 70.8348Z" fill="#80CBFE"/>
<path d="M52.5794 77.0846C52.1674 77.0846 51.7646 76.9625 51.422 76.7335C51.0794 76.5046 50.8124 76.1792 50.6547 75.7986C50.497 75.4179 50.4557 74.999 50.5361 74.5949C50.6165 74.1907 50.8149 73.8195 51.1063 73.5282C51.3976 73.2368 51.7689 73.0384 52.173 72.958C52.5771 72.8776 52.996 72.9189 53.3767 73.0766C53.7574 73.2342 54.0827 73.5013 54.3117 73.8439C54.5406 74.1865 54.6628 74.5893 54.6628 75.0013C54.6628 75.5538 54.4433 76.0837 54.0526 76.4744C53.6619 76.8651 53.132 77.0846 52.5794 77.0846Z" fill="#80CBFE"/>
<path d="M52.5808 33.3333C48.6016 33.3333 50.4974 25 56.7474 25H69.2474C69.8 25 70.3299 24.7805 70.7206 24.3898C71.1113 23.9991 71.3308 23.4692 71.3308 22.9167V20.8333C71.3308 20.2808 71.5502 19.7509 71.9409 19.3602C72.3316 18.9695 72.8616 18.75 73.4141 18.75C73.9666 18.75 74.4965 18.9695 74.8872 19.3602C75.2779 19.7509 75.4974 20.2808 75.4974 20.8333V22.9167C75.4974 24.5743 74.8389 26.164 73.6668 27.3361C72.4947 28.5082 70.905 29.1667 69.2474 29.1667H56.7474C56.1949 29.1667 55.665 29.3862 55.2743 29.7769C54.8836 30.1676 54.6641 30.6975 54.6641 31.25C54.6641 31.8025 54.4446 32.3324 54.0539 32.7231C53.6632 33.1138 53.1333 33.3333 52.5808 33.3333Z" fill="#638AFF"/>
<defs>
<linearGradient id="paint0_linear_807_36628" x1="50.4967" y1="37.5" x2="50.4967" y2="18.75" gradientUnits="userSpaceOnUse">
<stop stop-color="#54A5FF"/>
<stop offset="1" stop-color="#8AD3FE"/>
</linearGradient>
<linearGradient id="paint1_linear_807_36628" x1="50.4969" y1="79.1668" x2="50.4969" y2="37.5002" gradientUnits="userSpaceOnUse">
<stop stop-color="#54A5FF"/>
<stop offset="1" stop-color="#8AD3FE"/>
</linearGradient>
<linearGradient id="paint2_linear_807_36628" x1="77.5794" y1="8.33398" x2="69.2461" y2="8.33398" gradientUnits="userSpaceOnUse">
<stop stop-color="#FE9661"/>
<stop offset="1" stop-color="#FFB369"/>
</linearGradient>
<linearGradient id="paint3_linear_807_36628" x1="65.0801" y1="88.543" x2="83.8301" y2="88.543" gradientUnits="userSpaceOnUse">
<stop stop-color="#FE9661"/>
<stop offset="1" stop-color="#FFB369"/>
</linearGradient>
<linearGradient id="paint4_linear_807_36628" x1="61.7603" y1="81.2421" x2="72.5503" y2="81.2421" gradientUnits="userSpaceOnUse">
<stop stop-color="#FE9661"/>
<stop offset="1" stop-color="#FFB369"/>
</linearGradient>
<linearGradient id="paint5_linear_807_36628" x1="31.7461" y1="66.6673" x2="73.4128" y2="66.6673" gradientUnits="userSpaceOnUse">
<stop stop-color="#FE9661"/>
<stop offset="1" stop-color="#FFB369"/>
</linearGradient>
<linearGradient id="paint6_linear_807_36628" x1="35.9121" y1="66.6667" x2="69.2454" y2="66.6667" gradientUnits="userSpaceOnUse">
<stop stop-color="white"/>
<stop offset="1" stop-color="white"/>
</linearGradient>
</defs>
</svg>
