<svg width="12" height="12" viewBox="0 0 12 12" fill="none" xmlns="http://www.w3.org/2000/svg">
<path d="M3.82527 10.4549C3.81027 10.4549 3.79027 10.4649 3.77527 10.4649C2.80527 9.98492 2.01527 9.18992 1.53027 8.21992C1.53027 8.20492 1.54027 8.18492 1.54027 8.16992C2.15027 8.34992 2.78027 8.48492 3.40527 8.58992C3.51527 9.21992 3.64527 9.84492 3.82527 10.4549Z" fill="#788A9B"/>
<path d="M10.4695 8.22492C9.97453 9.21992 9.14953 10.0249 8.14453 10.5099C8.33453 9.87492 8.49453 9.23492 8.59953 8.58992C9.22953 8.48492 9.84953 8.34992 10.4595 8.16992C10.4545 8.18992 10.4695 8.20992 10.4695 8.22492Z" fill="#788A9B"/>
<path d="M10.5095 3.85523C9.87953 3.66523 9.24453 3.51023 8.59953 3.40023C8.49453 2.75523 8.33953 2.11523 8.14453 1.49023C9.17953 1.98523 10.0145 2.82023 10.5095 3.85523Z" fill="#788A9B"/>
<path d="M3.82523 1.5443C3.64523 2.1543 3.51523 2.7743 3.41023 3.4043C2.76523 3.5043 2.12523 3.6643 1.49023 3.8543C1.97523 2.8493 2.78023 2.0243 3.77523 1.5293C3.79023 1.5293 3.81023 1.5443 3.82523 1.5443Z" fill="#788A9B"/>
<path d="M7.74488 3.295C6.58488 3.165 5.41488 3.165 4.25488 3.295C4.37988 2.61 4.53988 1.925 4.76488 1.265C4.77488 1.225 4.76988 1.195 4.77488 1.155C5.16988 1.06 5.57488 1 5.99988 1C6.41988 1 6.82988 1.06 7.21988 1.155C7.22488 1.195 7.22488 1.225 7.23488 1.265C7.45988 1.93 7.61988 2.61 7.74488 3.295Z" fill="#788A9B"/>
<path d="M3.295 7.74391C2.605 7.61891 1.925 7.45891 1.265 7.23391C1.225 7.22391 1.195 7.22891 1.155 7.22391C1.06 6.82891 1 6.42391 1 5.99891C1 5.57891 1.06 5.16891 1.155 4.77891C1.195 4.77391 1.225 4.77391 1.265 4.76391C1.93 4.54391 2.605 4.37891 3.295 4.25391C3.17 5.41391 3.17 6.58391 3.295 7.74391Z" fill="#788A9B"/>
<path d="M11.0001 5.99891C11.0001 6.42391 10.9401 6.82891 10.8451 7.22391C10.8051 7.22891 10.7751 7.22391 10.7351 7.23391C10.0701 7.45391 9.39008 7.61891 8.70508 7.74391C8.83508 6.58391 8.83508 5.41391 8.70508 4.25391C9.39008 4.37891 10.0751 4.53891 10.7351 4.76391C10.7751 4.77391 10.8051 4.77891 10.8451 4.77891C10.9401 5.17391 11.0001 5.57891 11.0001 5.99891Z" fill="#788A9B"/>
<path d="M7.74488 8.70508C7.61988 9.39508 7.45988 10.0751 7.23488 10.7351C7.22488 10.7751 7.22488 10.8051 7.21988 10.8451C6.82988 10.9401 6.41988 11.0001 5.99988 11.0001C5.57488 11.0001 5.16988 10.9401 4.77488 10.8451C4.76988 10.8051 4.77488 10.7751 4.76488 10.7351C4.54488 10.0701 4.37988 9.39508 4.25488 8.70508C4.83488 8.77008 5.41488 8.81508 5.99988 8.81508C6.58488 8.81508 7.16988 8.77008 7.74488 8.70508Z" fill="#788A9B"/>
<path d="M7.88167 7.88167C6.63112 8.03944 5.36888 8.03944 4.11833 7.88167C3.96056 6.63112 3.96056 5.36888 4.11833 4.11833C5.36888 3.96056 6.63112 3.96056 7.88167 4.11833C8.03944 5.36888 8.03944 6.63112 7.88167 7.88167Z" fill="#788A9B"/>
</svg>
