<svg width="49" height="48" viewBox="0 0 49 48" fill="none" xmlns="http://www.w3.org/2000/svg">
<circle cx="24.5" cy="24" r="22.5" stroke="#3772FF" stroke-width="3"/>
<path d="M22.7154 26.2428C22.2287 22.6041 27.1653 21.7929 27.1653 19.5447C27.1653 18.131 26.0528 17.3429 24.2219 17.3429C22.8081 17.3429 21.6493 17.9919 20.5136 19.1739L18.6131 17.4357C20.0964 15.7206 22.136 14.5849 24.6159 14.5849C27.9765 14.5849 30.4332 16.1609 30.4332 19.2434C30.4332 22.6272 25.3575 23.0444 25.7284 26.2428H22.7154ZM24.2451 32.431C23.0399 32.431 22.1823 31.5734 22.1823 30.3683C22.1823 29.1631 23.063 28.3287 24.2451 28.3287C25.4039 28.3287 26.2846 29.1631 26.2846 30.3683C26.2846 31.5734 25.4039 32.431 24.2451 32.431Z" fill="#3772FF"/>
</svg>
