<svg width="32" height="32" viewBox="0 0 32 32" fill="none" xmlns="http://www.w3.org/2000/svg">
<path d="M2.66699 11.9993V8.66602C2.66699 5.34602 5.34699 2.66602 8.66699 2.66602H12.0003" stroke="white" stroke-width="2" stroke-linecap="round" stroke-linejoin="round"/>
<path d="M20 2.66602H23.3333C26.6533 2.66602 29.3333 5.34602 29.3333 8.66602V11.9993" stroke="white" stroke-width="2" stroke-linecap="round" stroke-linejoin="round"/>
<path d="M29.333 21.334V23.334C29.333 26.654 26.653 29.334 23.333 29.334H21.333" stroke="white" stroke-width="2" stroke-linecap="round" stroke-linejoin="round"/>
<path d="M12.0003 29.3333H8.66699C5.34699 29.3333 2.66699 26.6533 2.66699 23.3333V20" stroke="white" stroke-width="2" stroke-linecap="round" stroke-linejoin="round"/>
<path d="M13.9997 9.33398V12.0007C13.9997 13.334 13.333 14.0007 11.9997 14.0007H9.33301C7.99967 14.0007 7.33301 13.334 7.33301 12.0007V9.33398C7.33301 8.00065 7.99967 7.33398 9.33301 7.33398H11.9997C13.333 7.33398 13.9997 8.00065 13.9997 9.33398Z" stroke="white" stroke-width="2" stroke-linecap="round" stroke-linejoin="round"/>
<path d="M24.6667 9.33398V12.0007C24.6667 13.334 24 14.0007 22.6667 14.0007H20C18.6667 14.0007 18 13.334 18 12.0007V9.33398C18 8.00065 18.6667 7.33398 20 7.33398H22.6667C24 7.33398 24.6667 8.00065 24.6667 9.33398Z" stroke="white" stroke-width="2" stroke-linecap="round" stroke-linejoin="round"/>
<path d="M13.9997 20V22.6667C13.9997 24 13.333 24.6667 11.9997 24.6667H9.33301C7.99967 24.6667 7.33301 24 7.33301 22.6667V20C7.33301 18.6667 7.99967 18 9.33301 18H11.9997C13.333 18 13.9997 18.6667 13.9997 20Z" stroke="white" stroke-width="2" stroke-linecap="round" stroke-linejoin="round"/>
<path d="M24.6667 20V22.6667C24.6667 24 24 24.6667 22.6667 24.6667H20C18.6667 24.6667 18 24 18 22.6667V20C18 18.6667 18.6667 18 20 18H22.6667C24 18 24.6667 18.6667 24.6667 20Z" stroke="white" stroke-width="2" stroke-linecap="round" stroke-linejoin="round"/>
</svg>
