<svg xmlns="http://www.w3.org/2000/svg" width="23" height="22" viewBox="0 0 23 22" fill="none">
    <path d="M21.2962 7.58051L21.0303 5.04134C20.6453 2.27301 19.3895 1.14551 16.7037 1.14551H14.5403H13.1837H10.397H9.04032H6.84032C4.14532 1.14551 2.89865 2.27301 2.50448 5.06884L2.25698 7.58967C2.16532 8.57051 2.43115 9.52384 3.00865 10.2663C3.70532 11.1738 4.77782 11.6872 5.96948 11.6872C7.12448 11.6872 8.23365 11.1097 8.93032 10.1838C9.55365 11.1097 10.617 11.6872 11.7995 11.6872C12.982 11.6872 14.0178 11.1372 14.6503 10.2205C15.3562 11.128 16.447 11.6872 17.5836 11.6872C18.8028 11.6872 19.9028 11.1463 20.5903 10.193C21.1403 9.45967 21.3878 8.53384 21.2962 7.58051Z" fill="#2A85FF"/>
    <path d="M11.2043 15.2716C10.0402 15.3907 9.16016 16.3807 9.16016 17.5541V20.0657C9.16016 20.3132 9.36182 20.5149 9.60932 20.5149H13.9818C14.2293 20.5149 14.431 20.3132 14.431 20.0657V17.8749C14.4402 15.9591 13.3127 15.0516 11.2043 15.2716Z" fill="#2A85FF"/>
    <path d="M20.3893 13.1996V15.9312C20.3893 18.4612 18.3359 20.5146 15.8059 20.5146C15.5584 20.5146 15.3568 20.3129 15.3568 20.0654V17.8746C15.3568 16.7013 14.9993 15.7846 14.3026 15.1613C13.6884 14.6021 12.8543 14.3271 11.8184 14.3271C11.5893 14.3271 11.3601 14.3363 11.1126 14.3638C9.48094 14.5288 8.24344 15.9037 8.24344 17.5537V20.0654C8.24344 20.3129 8.04177 20.5146 7.79427 20.5146C5.26427 20.5146 3.21094 18.4612 3.21094 15.9312V13.2179C3.21094 12.5763 3.84344 12.1454 4.43927 12.3562C4.68677 12.4387 4.93427 12.5029 5.19094 12.5396C5.30094 12.5579 5.4201 12.5763 5.5301 12.5763C5.67677 12.5946 5.82344 12.6038 5.9701 12.6038C7.03344 12.6038 8.07844 12.2096 8.90344 11.5312C9.69177 12.2096 10.7184 12.6038 11.8001 12.6038C12.8909 12.6038 13.8993 12.2279 14.6876 11.5496C15.5126 12.2188 16.5393 12.6038 17.5843 12.6038C17.7493 12.6038 17.9143 12.5946 18.0701 12.5763C18.1801 12.5671 18.2809 12.5579 18.3818 12.5396C18.6659 12.5029 18.9226 12.4204 19.1793 12.3379C19.7751 12.1363 20.3893 12.5762 20.3893 13.1996Z" fill="#2A85FF"/>
</svg>