<svg width="14" height="14" viewBox="0 0 14 14" fill="none" xmlns="http://www.w3.org/2000/svg">
<path d="M9.91699 2.04102H4.08366C2.33366 2.04102 1.16699 2.91602 1.16699 4.95768V9.04102C1.16699 11.0827 2.33366 11.9577 4.08366 11.9577H9.91699C11.667 11.9577 12.8337 11.0827 12.8337 9.04102V4.95768C12.8337 2.91602 11.667 2.04102 9.91699 2.04102ZM10.1912 5.59352L8.36533 7.05185C7.98033 7.36102 7.49033 7.51268 7.00033 7.51268C6.51033 7.51268 6.01449 7.36102 5.63533 7.05185L3.80949 5.59352C3.62283 5.44185 3.59366 5.16185 3.73949 4.97518C3.89116 4.78852 4.16533 4.75352 4.35199 4.90518L6.17783 6.36352C6.62116 6.71935 7.37366 6.71935 7.81699 6.36352L9.64283 4.90518C9.82949 4.75352 10.1095 4.78268 10.2553 4.97518C10.407 5.16185 10.3778 5.44185 10.1912 5.59352Z" fill="#00B7C4"/>
</svg>
