<svg xmlns="http://www.w3.org/2000/svg" width="49" height="49" viewBox="0 0 49 49" fill="none">
    <path d="M13.1463 30.2043C13.3813 28.2584 14.1794 27.1689 15.6834 26.0521C17.8352 24.5395 20.5233 25.3951 20.5233 25.3951V20.3192C21.1767 20.3025 21.8305 20.3412 22.4768 20.4349V26.9672C22.4768 26.9672 19.7896 26.1115 17.6378 27.6249C16.1346 28.741 15.3349 29.8313 15.1007 31.7772C15.0934 32.8338 15.2917 34.215 16.2048 35.4093C15.979 35.2936 15.7489 35.1616 15.5145 35.0136C13.5029 33.6628 13.1365 31.6364 13.1463 30.2043ZM33.5757 10.9338C32.0954 9.31168 31.5356 7.67393 31.3332 6.52344H33.1954C33.1954 6.52344 32.8241 9.54006 35.5301 12.5066L35.5676 12.5465C34.8383 12.0878 34.1695 11.5463 33.5757 10.9338ZM42.5463 15.5326V21.9335C42.5463 21.9335 40.17 21.8404 38.4115 21.393C35.9561 20.7673 34.3778 19.8077 34.3778 19.8077C34.3778 19.8077 33.2876 19.1233 33.1995 19.0756V32.2934C33.1995 33.0293 32.9979 34.8673 32.3835 36.4002C31.5813 38.4056 30.3434 39.7219 30.1157 39.9909C30.1157 39.9909 28.6101 41.7703 25.9539 42.9685C23.5597 44.0493 21.4576 44.022 20.8293 44.0493C20.8293 44.0493 17.1955 44.1932 13.9256 42.0682C13.2186 41.5999 12.5585 41.0694 11.9541 40.4837L11.9704 40.4954C15.2411 42.6204 18.8741 42.4765 18.8741 42.4765C19.5032 42.4491 21.6053 42.4765 23.9987 41.3956C26.6525 40.1974 28.1605 38.4181 28.1605 38.4181C28.3857 38.1491 29.6294 36.8328 30.4283 34.8266C31.0411 33.2945 31.2443 31.4557 31.2443 30.7197V17.5036C31.3324 17.552 32.4218 18.2364 32.4218 18.2364C32.4218 18.2364 34.0008 19.1968 36.4563 19.8217C38.2156 20.2691 40.5911 20.3622 40.5911 20.3622V15.3465C41.4039 15.5287 42.0967 15.578 42.5463 15.5326Z" fill="#EE1D52"/>
    <path d="M40.5929 15.3465V20.3606C40.5929 20.3606 38.2174 20.2676 36.4581 19.8202C34.0026 19.1945 32.4236 18.2348 32.4236 18.2348C32.4236 18.2348 31.3342 17.5505 31.2461 17.502V30.7213C31.2461 31.4573 31.0445 33.296 30.43 34.8282C29.6279 36.8343 28.39 38.1506 28.1623 38.4197C28.1623 38.4197 26.6559 40.199 24.0005 41.3972C21.6071 42.4781 19.505 42.4507 18.8758 42.4781C18.8758 42.4781 15.2429 42.622 11.9722 40.497L11.9559 40.4852C11.6106 40.1509 11.2855 39.7978 10.9824 39.4278C9.93865 38.1553 9.29888 36.6505 9.13813 36.2211C9.13785 36.2193 9.13785 36.2175 9.13813 36.2157C8.87944 35.4695 8.33597 33.6777 8.41023 31.9422C8.54161 28.8802 9.61877 27.0008 9.90356 26.5299C10.6578 25.246 11.6388 24.0972 12.8029 23.1348C13.8302 22.3043 14.9945 21.6435 16.2482 21.1795C17.6035 20.6347 19.0548 20.3427 20.5242 20.3192V25.3951C20.5242 25.3951 17.8362 24.5426 15.6852 26.0521C14.1812 27.1689 13.3831 28.2584 13.1481 30.2043C13.1383 31.6364 13.5047 33.6628 15.5146 35.0143C15.7491 35.1629 15.9792 35.2949 16.205 35.4101C16.5561 35.8665 16.9835 36.2642 17.4698 36.5872C19.4332 37.83 21.0783 37.9168 23.182 37.1096C24.5848 36.57 25.6407 35.3538 26.1304 34.0062C26.438 33.1646 26.4339 32.3176 26.4339 31.4416V6.52344H31.3301C31.5325 7.67393 32.0923 9.31168 33.5726 10.9338C34.1664 11.5463 34.8352 12.0878 35.5645 12.5465C35.7799 12.7694 36.8816 13.8714 38.2958 14.5479C39.027 14.8976 39.7978 15.1656 40.5929 15.3465Z" fill="black"/>
    <path d="M7.18945 34.6611V34.665L7.31094 34.9943C7.29699 34.956 7.25184 34.8395 7.18945 34.6611Z" fill="#69C9D0"/>
    <path d="M16.2478 21.1786C14.9941 21.6426 13.8298 22.3034 12.8025 23.1339C11.638 24.0985 10.6573 25.2497 9.90396 26.5361C9.61916 27.0054 8.542 28.8864 8.41062 31.9484C8.33636 33.6839 8.87984 35.4757 9.13852 36.2218C9.13824 36.2237 9.13824 36.2255 9.13852 36.2273C9.30173 36.6528 9.93905 38.1576 10.9828 39.434C11.2859 39.804 11.611 40.157 11.9563 40.4914C10.8499 39.758 9.86318 38.8714 9.02835 37.8604C7.99363 36.5988 7.35549 35.1097 7.18902 34.6701C7.18882 34.667 7.18882 34.6639 7.18902 34.6607V34.6553C6.92952 33.9099 6.38441 32.1173 6.4603 30.3794C6.59168 27.3175 7.66885 25.438 7.95364 24.9672C8.70673 23.6807 9.68753 22.5294 10.8522 21.565C11.8792 20.7342 13.0436 20.0734 14.2975 19.6097C15.0796 19.2987 15.8943 19.0693 16.7276 18.9254C17.9835 18.7152 19.2661 18.697 20.5279 18.8714V20.3183C19.0571 20.3414 17.6043 20.6334 16.2478 21.1786Z" fill="#69C9D0"/>
    <path d="M31.3335 6.52284H26.4373V31.4418C26.4373 32.3178 26.4373 33.1625 26.1337 34.0064C25.6392 35.3532 24.5874 36.5694 23.1854 37.109C21.0809 37.9193 19.4358 37.8293 17.4732 36.5866C16.986 36.2651 16.5575 35.8687 16.2051 35.4134C17.8771 36.2682 19.3737 36.2534 21.2278 35.5401C22.6289 35.0004 23.6824 33.7842 24.1753 32.4367C24.4837 31.5951 24.4796 30.7481 24.4796 29.8729V4.94922H31.2405C31.2405 4.94922 31.1646 5.56865 31.3335 6.52284ZM40.5922 13.9592V15.3459C39.7985 15.1647 39.0291 14.8968 38.2991 14.5473C36.885 13.8708 35.7833 12.7688 35.5679 12.5459C35.8179 12.7032 36.0773 12.8463 36.3447 12.9745C38.0641 13.7973 39.7574 14.0429 40.5922 13.9592Z" fill="#69C9D0"/>
</svg>