<svg width="14" height="14" viewBox="0 0 14 14" fill="none" xmlns="http://www.w3.org/2000/svg">
<path d="M12.25 3.48893C10.3075 3.29643 8.35333 3.19727 6.405 3.19727C5.25 3.19727 4.095 3.2556 2.94 3.37227L1.75 3.48893" stroke="#EB2E2E" stroke-width="0.875" stroke-linecap="round" stroke-linejoin="round"/>
<path d="M4.95801 2.89852L5.08634 2.13435C5.17967 1.58018 5.24967 1.16602 6.23551 1.16602H7.76384C8.74968 1.16602 8.82551 1.60352 8.91301 2.14018L9.04134 2.89852" stroke="#EB2E2E" stroke-width="0.875" stroke-linecap="round" stroke-linejoin="round"/>
<path d="M10.9956 5.33203L10.6164 11.2062C10.5522 12.122 10.4997 12.8337 8.87224 12.8337H5.12724C3.49974 12.8337 3.44724 12.122 3.38307 11.2062L3.00391 5.33203" stroke="#EB2E2E" stroke-width="0.875" stroke-linecap="round" stroke-linejoin="round"/>
<path d="M6.02539 9.625H7.96789" stroke="#EB2E2E" stroke-width="0.875" stroke-linecap="round" stroke-linejoin="round"/>
<path d="M5.54199 7.29102H8.45866" stroke="#EB2E2E" stroke-width="0.875" stroke-linecap="round" stroke-linejoin="round"/>
</svg>
