<svg width="15" height="15" viewBox="0 0 15 15" fill="none" xmlns="http://www.w3.org/2000/svg">
<g clip-path="url(#clip0_776_71872)">
<path d="M14.3109 14.0763L12.8245 5.78374C12.7647 5.44989 12.4742 5.20688 12.135 5.20688H9.66305C10.1265 4.75036 10.4146 4.11615 10.4146 3.41573C10.4146 2.02875 9.2862 0.900391 7.89922 0.900391C6.51225 0.900391 5.38384 2.02875 5.38384 3.41573C5.38384 4.11615 5.67187 4.75036 6.13535 5.20688H3.66339C3.32418 5.20688 3.03376 5.44989 2.9739 5.78374L1.48755 14.0763C1.45098 14.2805 1.50669 14.4903 1.63983 14.6494C1.77292 14.8084 1.96966 14.9003 2.17704 14.9003H13.6214C13.8287 14.9003 14.0255 14.8084 14.1586 14.6494C14.2917 14.4903 14.3474 14.2805 14.3109 14.0763ZM7.89922 2.30133C8.51372 2.30133 9.01362 2.80123 9.01362 3.41573C9.01362 4.03023 8.51372 4.53018 7.89922 4.53018C7.28472 4.53018 6.78478 4.03023 6.78478 3.41573C6.78478 2.80123 7.28472 2.30133 7.89922 2.30133ZM7.71617 11.7402C7.6797 11.8074 7.60927 11.8493 7.53278 11.8493H7.20235C7.12829 11.8493 7.05973 11.8101 7.02228 11.7461L6.20451 10.3501L5.68154 10.8839V11.5268C5.68154 11.7049 5.53715 11.8493 5.35904 11.8493C5.18094 11.8493 5.03655 11.7049 5.03655 11.5268V8.97727C5.03655 8.79916 5.18094 8.65477 5.35904 8.65477C5.53715 8.65477 5.68154 8.79916 5.68154 8.97727V10.0733L6.92272 8.72225C6.96223 8.67924 7.01799 8.65477 7.07636 8.65477H7.35996C7.44373 8.65477 7.51934 8.70483 7.55207 8.78193C7.58476 8.85903 7.56818 8.94822 7.51 9.00842L6.64907 9.89895L7.70771 11.5269C7.74942 11.5911 7.75268 11.6729 7.71617 11.7402ZM10.8936 11.3148C10.8936 11.3782 10.8647 11.4384 10.8151 11.478C10.6864 11.5807 10.5169 11.6729 10.3065 11.7545C10.05 11.854 9.7903 11.9037 9.52739 11.9037C9.19322 11.9037 8.90206 11.8337 8.65353 11.6935C8.40519 11.5533 8.21845 11.3528 8.09353 11.092C7.96857 10.8313 7.90613 10.5477 7.90613 10.2411C7.90613 9.90847 7.97585 9.61278 8.11534 9.35426C8.25478 9.09565 8.4589 8.89741 8.72769 8.75933C8.93242 8.65332 9.18743 8.60023 9.49251 8.60023C9.88912 8.60023 10.1989 8.68344 10.4219 8.84978C10.5185 8.92184 10.6002 9.00585 10.6669 9.10177C10.7307 9.19343 10.7436 9.31116 10.7013 9.41445C10.659 9.5178 10.5673 9.59275 10.4575 9.61329L10.4567 9.61343C10.3281 9.63748 10.1977 9.58051 10.1281 9.46974C10.0836 9.39886 10.0267 9.3382 9.95776 9.28772C9.8335 9.19694 9.67841 9.15155 9.49251 9.15155C9.21064 9.15155 8.98654 9.24092 8.82029 9.41954C8.65395 9.5983 8.57079 9.86341 8.57079 10.215C8.57079 10.5941 8.65498 10.8785 8.82356 11.0681C8.99205 11.2576 9.21284 11.3524 9.48602 11.3524C9.62107 11.3524 9.75654 11.3259 9.89238 11.2729C10.0281 11.2198 10.1447 11.1555 10.2421 11.0801V10.6747H9.77256C9.62392 10.6747 9.50348 10.5542 9.50348 10.4056C9.50348 10.257 9.62397 10.1365 9.77256 10.1365H10.685C10.8002 10.1365 10.8936 10.23 10.8936 10.3452V11.3148Z" fill="#00B7C4"/>
</g>
<defs>
<clipPath id="clip0_776_71872">
<rect width="14" height="14" fill="white" transform="translate(0.899414 0.900391)"/>
</clipPath>
</defs>
</svg>
