<svg xmlns="http://www.w3.org/2000/svg" width="59" height="59" viewBox="0 0 59 59" fill="none">
    <rect x="0.625" y="0.625" width="57.75" height="57.75" rx="28.875" fill="white"/>
    <rect x="0.625" y="0.625" width="57.75" height="57.75" rx="28.875" fill="url(#paint0_linear_570_21471)"/>
    <path d="M22.3263 15.2808C21.5515 13.7247 20.3631 13.8625 19.1624 13.8625C17.0167 13.8625 13.6709 16.4327 13.6709 21.2161C13.6709 25.1363 15.3984 29.4276 21.2193 35.847C26.837 42.0422 34.2183 45.247 40.3461 45.1379C46.4739 45.0288 47.7347 39.7556 47.7347 37.9748C47.7347 37.1855 47.2449 36.7917 46.9074 36.6847C44.8192 35.6825 40.9678 33.8152 40.0915 33.4643C39.2152 33.1135 38.7576 33.588 38.4732 33.8462C37.6785 34.6035 36.1032 36.8354 35.5638 37.3374C35.0245 37.8394 34.2203 37.5854 33.8857 37.3956C32.6543 36.9015 29.3155 35.4163 26.6541 32.8364C23.3627 29.6458 23.1696 28.5481 22.5494 27.5709C22.0534 26.7892 22.4174 26.3096 22.599 26.1C23.3082 25.2817 24.2874 24.0184 24.7265 23.3907C25.1656 22.7629 24.817 21.8097 24.6078 21.2161C23.7082 18.663 22.9461 16.5257 22.3263 15.2808Z" fill="white"/>
    <defs>
        <linearGradient id="paint0_linear_570_21471" x1="54.7656" y1="7.84375" x2="0.624999" y2="58.375" gradientUnits="userSpaceOnUse">
            <stop stop-color="#5BD066"/>
            <stop offset="1" stop-color="#27B43E"/>
        </linearGradient>
    </defs>
</svg>