<svg width="25" height="24" viewBox="0 0 25 24" fill="none" xmlns="http://www.w3.org/2000/svg">
<path d="M2.18338 7.45583C2.27978 5.97175 3.47296 4.80867 4.95835 4.73508C7.10929 4.62852 10.1836 4.5 12.5 4.5C14.8164 4.5 17.8907 4.62852 20.0417 4.73508C21.527 4.80867 22.7202 5.97175 22.8166 7.45583C22.909 8.8777 23 10.6272 23 12C23 13.3728 22.909 15.1223 22.8166 16.5442C22.7202 18.0283 21.527 19.1913 20.0417 19.2649C17.8907 19.3715 14.8164 19.5 12.5 19.5C10.1836 19.5 7.10929 19.3715 4.95835 19.2649C3.47296 19.1913 2.27978 18.0283 2.18338 16.5442C2.09102 15.1223 2 13.3728 2 12C2 10.6272 2.09102 8.87769 2.18338 7.45583Z" fill="#FC0D1B"/>
<path d="M10.25 9V15L16.25 12L10.25 9Z" fill="white"/>
</svg>
